<?xml version="1.0" standalone="no"?>
<!DOCTYPE svg PUBLIC "-//W3C//DTD SVG 1.1//EN" "http://www.w3.org/Graphics/SVG/1.1/DTD/svg11.dtd" >
<svg xmlns="http://www.w3.org/2000/svg" xmlns:xlink="http://www.w3.org/1999/xlink" version="1.1">
<metadata></metadata>
<defs>
<font id="signature_of_the_ancient_Rg" horiz-adv-x="876" >
<font-face units-per-em="2048" ascent="1535" descent="-513" />
<missing-glyph horiz-adv-x="535" />
<glyph horiz-adv-x="0" />
<glyph unicode="&#xd;" horiz-adv-x="535" />
<glyph horiz-adv-x="0" />
<glyph horiz-adv-x="0" />
<glyph unicode=" "  horiz-adv-x="535" />
<glyph unicode="&#x09;" horiz-adv-x="535" />
<glyph unicode="&#xa0;" horiz-adv-x="535" />
<glyph unicode="'" horiz-adv-x="808" d="M1114 1234q-14 9 0 44q5 14 8 24.5t6 21.5t5 25q8 35 26 57t40 29t39.5 0t25.5 -31q5 -22 -1.5 -41.5t-17.5 -35.5q-11 -19 -30 -38q5 -5 -3 -6l-13.5 -13.5t-24 -20t-30 -18t-27.5 -2.5z" />
<glyph unicode="*" horiz-adv-x="636" d="M28.5 976.5q-1.5 17.5 9.5 34t34.5 28.5t69.5 12h16l-60 66l-2 3q-5 5 -9.5 16t0.5 19q8 11 20.5 24.5t30.5 17.5t44 -4t58 -41l28 -30l16 115v3q3 8 8.5 17.5t16.5 9.5q14 0 31.5 -1.5t32.5 -12.5t23 -36.5t5 -69.5q-3 -8 -2 -19l73 57h3q5 5 17.5 6.5t18.5 -3.5 q8 -8 19 -22t15 -31.5t-5.5 -41t-39.5 -50.5h63h2q8 0 18 -4t12 -15q3 -14 4.5 -31.5t-9.5 -34t-34.5 -28.5t-69.5 -12h-19l65 -69h3q5 -5 8 -16t-2 -19q-8 -14 -19 -26t-30.5 -17.5t-44 2.5t-57.5 41l-32 30l-17 -115v-3q-3 -8 -8 -17.5t-16 -9.5q-14 0 -31.5 1.5 t-32.5 13.5t-25 37t-4 71l3 16l-74 -54v-3q-8 -5 -19 -6.5t-19 6.5q-11 8 -22 20.5t-14 30t5.5 41t38.5 50.5q-14 0 -29 1.5t-28 1.5h-3q-8 0 -18 4t-12 15q-3 14 -4.5 31.5z" />
<glyph unicode="+" horiz-adv-x="622" d="M28.5 342.5q-1.5 17.5 9.5 34t34.5 29t69.5 12.5l115 -3l27 188v3q3 8 8.5 18t16.5 10q14 0 31.5 -1.5t32.5 -12.5t23 -37t5 -70q-5 -22 -6.5 -41t-6.5 -60l175 -2h2q8 0 18 -4.5t12 -15.5q3 -14 4.5 -31.5t-9.5 -33.5t-34.5 -28.5t-69.5 -12.5q-25 0 -46.5 -1.5 t-70.5 1.5q-5 -38 -12 -82t-16 -106v-3q-3 -8 -8 -17.5t-16 -9.5q-14 0 -31.5 1t-32.5 13.5t-25 37t-4 70.5l14 99q-35 0 -78 1t-94 4h-3q-8 0 -18 4t-12 15q-3 14 -4.5 31.5z" />
<glyph unicode="," horiz-adv-x="237" d="M63 -87q5 14 8 24.5t5 21.5q3 11 6 25q8 35 26 57t39.5 28.5t39.5 0t26 -31.5q5 -22 -1.5 -41t-17.5 -35q-11 -19 -30 -38q5 -5 -3 -6l-13.5 -13.5t-24.5 -20.5t-30.5 -18t-26.5 -3l-3 6q-14 9 0 44z" />
<glyph unicode="-" horiz-adv-x="849" d="M146 342.5q-1 17.5 10 34t34 29t69 12.5l421 -8h3q8 0 17.5 -4.5t12.5 -15.5q3 -14 4 -31.5t-10 -33.5t-34 -28.5t-70 -12.5h-38h-54.5t-113.5 1.5t-214 6.5h-3q-8 0 -17.5 4t-12.5 15q-3 14 -4 31.5z" />
<glyph unicode="." horiz-adv-x="212" d="M55 -16q8 35 25.5 57t39.5 28.5t39.5 0t26.5 -31.5q5 -22 -2 -41t-17 -35q-11 -19 -30 -38q-33 -22 -63 -18t-19 78z" />
<glyph unicode="/" horiz-adv-x="393" d="M30 158l218 1475v3q3 8 8.5 17.5t16.5 9.5q14 0 31.5 -1.5t32.5 -12.5t23.5 -36.5t5.5 -69.5q-3 -14 -15 -104t-32.5 -222.5t-44 -295t-48 -322t-45 -300.5t-34.5 -233v-3q-3 -8 -8 -18t-16 -10q-14 0 -31.5 1.5t-32.5 14t-24.5 37t-4.5 70.5z" />
<glyph unicode="0" horiz-adv-x="1455" d="M35 467q0 115 33 251q30 115 63 191.5t36 84.5q3 5 16.5 34t39 74t64 101t87.5 119q117 150 260 254q172 128 368 169q5 3 43.5 9.5t87.5 4t99.5 -23t83.5 -72.5q5 -5 20.5 -40.5t20.5 -96.5v-27v-30q-3 -27 -11 -49q-5 -19 -16 -37t-30 -23q-46 -19 -69.5 22t25.5 109 q14 22 22 44q5 19 8 40.5t-8 43.5q-3 3 -3 5.5t-3 5.5l-2 3q-25 41 -68.5 54.5t-84.5 16.5q-49 0 -101 -11h-3q-19 -5 -35.5 -9.5t-35.5 -9.5q-16 -5 -64 -26t-94 -56q-35 -27 -84.5 -71t-107 -111t-123 -159.5t-133.5 -215.5q-120 -227 -169 -418q-22 -82 -27.5 -165 t13.5 -157t68 -131.5t139 -87.5q55 -19 134 -27q19 -3 63 -3t90 14q52 16 112 51.5t125.5 100t136.5 162.5t145 238q79 147 109 255t33 180.5t-11 112t-22 52.5q-68 90 -221 96q-3 0 -61.5 -1.5t-140.5 -39.5q-216 -101 -314 -407q-16 -52 -25 -104q-5 -46 -5 -96.5 t16 -96.5q8 -25 26 -40t37 -23q22 -11 44 -14q85 -14 98.5 -59t-33.5 -64q-19 -8 -39.5 -2.5t-36.5 13.5q-22 11 -41 25q-11 8 -22 19q-11 8 -20.5 21.5t-20.5 27.5q-22 25 -27 44q-30 52 -34 114.5t2.5 117t17.5 93t11 43.5q30 87 68.5 162.5t89.5 132.5q79 93 189 142 q87 41 151.5 45t72.5 2q147 -6 229 -82q68 -68 93 -175q41 -191 -52 -451q-33 -93 -64 -154t-37 -70q-5 -8 -49 -79t-131 -153q-104 -98 -224 -153q-123 -57 -257 -57q-14 0 -26 1.5t-26 1.5q-306 25 -417 224q-60 106 -61 251z" />
<glyph unicode="1" horiz-adv-x="1067" d="M41 75v10q8 66 54.5 203.5t130 322t202 403t274.5 444.5q-44 -38 -87.5 -73.5t-90.5 -65.5q-5 -5 -13.5 -10.5t-13.5 -8.5q-11 -11 -16 -14t-9 -5q-25 -11 -46 -19q-19 -5 -39.5 -8t-36.5 8q-38 27 -20.5 69.5t101.5 44.5q22 0 47 6q22 5 43.5 10.5t38.5 19.5 q66 49 128.5 106.5t111.5 108t79 84.5l30 34q5 5 9 5q8 9 19 6q11 -5 26 -16t23 -29t4 -46.5t-29 -67.5q-227 -325 -409 -622q-79 -128 -154.5 -260.5t-134 -258.5t-97 -236.5t-40.5 -192.5q0 -22 -14 -23t-19 1q-35 14 -49 55q-3 8 -3 15z" />
<glyph unicode="2" horiz-adv-x="1422" d="M41 71q0 19 5 25q16 46 76.5 136t154.5 209t215.5 259.5t266.5 288.5q79 79 162.5 148.5t189.5 156.5q68 57 102.5 94t50.5 59q5 8 8 15t9 13v5q22 63 11 112q-16 87 -153 117q-19 3 -39 3h-38t-46 -5q-131 -33 -180 -161v-3l-6 -17q-3 -8 -5.5 -16t-2.5 -22 q-5 -30 5.5 -53t24.5 -40q16 -19 38 -32q33 -27 44 -53.5t8 -45.5t-18 -31t-39 -10q-22 3 -35.5 18t-27.5 31q-14 19 -25 44q-3 3 -5 11q-3 5 -4.5 12t-3.5 13q-16 38 -19 75t1 65.5t11 47.5t9 25q35 98 99.5 139t119.5 55q57 14 98 9.5t47 -7.5q104 -22 144.5 -68t51.5 -90 q11 -57 -6.5 -120t-53 -120.5t-78 -105t-78.5 -72.5l-2 -3h-3q-128 -117 -275.5 -260.5t-287 -291t-251.5 -286.5t-166 -248q60 8 163.5 9t248.5 -23q63 -11 131 -19t131 -11h-3q30 -3 56 5.5t46 18.5q22 11 38 28q33 27 60 34t46 -1.5t27.5 -26t2.5 -39.5 q-5 -14 -14.5 -23.5t-23.5 -17.5h-3q-22 -14 -43 -19l-22 -6h-17q-49 -8 -106 -8q-120 0 -317 33q-112 19 -196.5 20.5t-144.5 -4t-91 -12.5l-32 -7q-25 -5 -33 17q-5 16 -8 27z" />
<glyph unicode="3" horiz-adv-x="1490" d="M52 497q3 66 20.5 131.5t36.5 111.5v3q0 3 4 11t7 13t4.5 9.5t3.5 9.5q3 5 6 9q14 22 30 38q14 14 30 24.5t38 10.5q25 -3 38.5 -16.5t13.5 -34t-18 -45t-53 -43.5q-19 -14 -36 -30q-14 -14 -28.5 -33t-20.5 -41q-22 -79 -22 -131q-5 -93 25 -176t93 -146 q123 -126 352 -147q85 -3 186 25.5t198 90t180 161t135 239.5q44 120 40 207.5t-31.5 147.5t-65.5 95.5t-60 48.5l-17 9h-2q-22 14 -46.5 24.5t-52.5 21.5h-2v3h-3q-3 0 -3 2q-3 0 -3 3l-2 3v3h-3v2v3v3v3v2v3v3v2q3 0 3 3v3h2v3h3v2q96 63 152 178t50 235q-3 52 -22 82 t-42 46t-46.5 23t-33.5 7q-19 3 -42.5 1.5t-48.5 -6.5q-131 -33 -180 -161v-3l-5 -17q-3 -8 -5.5 -16t-2.5 -22q-5 -30 5.5 -53t24.5 -40q16 -19 38 -32q33 -27 43.5 -53.5t8 -45.5t-17.5 -31t-40 -10q-22 3 -35.5 18t-26.5 31q-14 19 -25 44q-3 3 -5 11q-3 5 -4.5 12 t-4.5 13q-16 38 -19 75t1.5 65.5t11 47.5t9.5 25q35 98 99.5 139t119.5 55q57 14 98 9.5t46 -7.5q104 -22 143.5 -73.5t47.5 -98.5q5 -41 0 -82t-17.5 -77.5t-27.5 -69.5t-28 -55q-30 -55 -68.5 -101t-76.5 -76q167 -76 248 -197q93 -137 74 -319q-11 -112 -71 -225.5 t-156 -203.5q-101 -93 -237 -153q-71 -30 -149 -45t-160 -18h-11q-150 0 -273 47q-109 41 -188 120q-68 71 -102.5 165t-28.5 198z" />
<glyph unicode="4" horiz-adv-x="1444" d="M41 776q0 11 8 31t30 50t61.5 72.5t107.5 99.5q79 66 186 146.5t240 173.5q115 79 225.5 151.5t196.5 128.5t140 89l53 32q3 3 4 3t4 3h14q11 -5 26 -16t23 -29t4 -46.5t-29 -67.5q-79 -109 -164 -234q-71 -106 -159.5 -245.5t-175.5 -290.5q104 -13 161 -35 q22 -11 41 -22q16 -14 28.5 -30t14.5 -38q0 -25 -12 -40t-32.5 -17.5t-45 12.5t-49.5 48q-11 16 -27 30q-33 27 -77 35q-5 3 -13.5 3t-18.5 3q-60 -106 -115 -211.5t-96 -202.5t-67 -183t-28 -152q0 -22 -14 -23t-19 1q-35 14 -49 55q-3 8 -3 15v10q11 82 76.5 266 t188.5 430h-83t-97 -3q-82 -3 -160 -8t-136.5 -10.5t-95.5 -9.5l-37 -5q-11 0 -22 9q-8 8 -8 22zM109 806q55 5 160 13t228 14q60 3 112 4.5t98 -1.5q93 183 214.5 382t271.5 404q-41 -30 -124 -93t-187 -140.5t-218.5 -163.5t-221 -166.5t-195.5 -147.5t-138 -105z" />
<glyph unicode="5" horiz-adv-x="1624" d="M55 497q3 66 20.5 131.5t36.5 111.5v3q0 3 4 11t7 13t4 9.5t4 9.5t6 9q14 22 30 38q14 14 30 24.5t38 10.5q25 -3 38.5 -16.5t13.5 -34t-18 -45t-53 -43.5q-19 -14 -36 -30q-14 -14 -28.5 -33t-20.5 -41q-22 -79 -22 -131q-5 -93 25 -176t93 -146q123 -126 352 -147 q85 -3 186 25.5t197.5 90t180 161t135.5 239.5q41 112 39.5 196.5t-26 144.5t-60 97t-60.5 53q-188 117 -518 142q-5 0 -46.5 13.5t-65.5 60.5q-41 76 27 207q25 46 56 95.5t70 109.5l12 16q12 17 38 35t68.5 34t99.5 22q101 5 190 5t162 -8q227 -25 287 -120h3v-6 q30 -46 13 -112q0 -8 -4 -24.5t-12 -34t-19 -34t-27 -21.5q-46 -19 -69.5 22t25.5 109q8 16 16 33q5 14 11 30t0 30q-49 46 -169 66.5t-300 15.5q-14 -3 -40 -10t-59 -27.5t-68.5 -54.5t-70.5 -89q-46 -74 -77.5 -129.5t-38.5 -95.5t15 -63t85 -31q180 -25 305 -77 q169 -66 263 -174q123 -153 98 -355q-11 -112 -71 -225.5t-156 -203.5q-101 -93 -237 -153q-71 -30 -149 -45t-160 -18h-11q-153 0 -270 47q-109 38 -191 120q-68 71 -102.5 165t-28.5 198z" />
<glyph unicode="6" horiz-adv-x="1417" d="M46 467q0 120 36 251q27 115 60 191.5t38 84.5q3 5 16.5 34t38 74t63 101t87.5 119q120 150 259 254q177 128 369 169q5 3 43.5 9.5t87.5 4t99.5 -23t83.5 -72.5q5 -5 21.5 -41t19.5 -96q0 -3 1.5 -12t-1.5 -15v-22v-8q-3 -27 -11 -49q-5 -19 -16 -37t-30 -23 q-46 -19 -68 22t27 109q11 22 19 44q5 19 8 40.5t-8 43.5q-3 3 -3 11q0 3 -3 3h-2q-25 41 -67.5 56t-83 15t-72.5 -6l-31 -5q-19 -5 -37 -9.5t-37 -9.5q-14 -5 -63 -26t-95 -56q-35 -27 -83 -71t-105.5 -111t-123 -159.5t-133.5 -215.5q-5 -11 -14 -25q-5 -14 -15 -30 t-21 -38q8 5 15 13.5t15 13.5q112 101 268 137q63 16 119 21.5t99.5 5.5t72.5 -4t34 -4q8 0 42 -7t80.5 -26t94.5 -54.5t83 -95.5q112 -191 -32 -516q-3 -3 -12.5 -23.5t-29 -53t-48 -72t-66.5 -80.5q-96 -98 -208 -153q-123 -55 -248 -55q-14 0 -27.5 1.5t-27.5 1.5 q-306 25 -418 224q-55 101 -60 251zM157 488q-12 -89 4 -169.5t65.5 -145t144.5 -97.5q35 -14 75 -19t84 -11q52 -3 104 0q87 11 163.5 75.5t133.5 137.5q66 87 120 192q79 150 98.5 255t7 170.5t-42.5 98.5t-46 44q-30 16 -56 25.5t-48 14.5q-25 8 -46 11h-3l-26 3 t-68.5 4.5t-97 -3t-114.5 -20.5q-309 -85 -415 -390q-25 -87 -37 -176z" />
<glyph unicode="7" horiz-adv-x="1455" d="M46 71q0 22 3 25q14 46 61.5 137.5t125.5 213t182 267.5t226.5 301.5t262 314t289.5 306.5q-71 -30 -158.5 -53.5t-180.5 -23.5h-8q-93 0 -161 31.5t-125 64.5q-14 3 -22 13q-25 11 -47 12.5t-41 1.5q-22 -3 -38 -5q-41 -14 -68.5 -11.5t-43.5 15t-17.5 33t12.5 39.5 q8 11 17.5 15t23.5 10h5q14 3 27.5 2.5t24.5 -0.5t25 -2q3 -3 8 -3t10.5 -1.5t11.5 -1.5q3 -3 5.5 -3t4.5 -2q3 0 27.5 -9.5t63.5 -34.5q11 -5 19 -10.5t19 -11.5q55 -30 116 -58.5t146 -28.5q82 0 165 20.5t150 47.5t109 49l43 22q19 14 33 -5q11 -8 21.5 -22t13.5 -33 t-6.5 -43.5t-37.5 -57.5q-319 -328 -578 -625q-112 -128 -220 -261t-195.5 -258.5t-149 -234.5t-77.5 -188q-5 -22 -19 -21t-19 4q-14 11 -23.5 26t-15.5 37z" />
<glyph unicode="8" horiz-adv-x="1482" d="M64 355q-9 104 26 224q0 3 8 31.5t27.5 72t49.5 98.5t73 115q104 139 252 232q38 22 75 42.5t78 33.5q68 30 131 52t109 38q-101 66 -104 172q-8 139 88 222q55 52 124 68t119 8q98 -16 136 -90q16 -30 21.5 -84.5t-29.5 -139.5q-22 -46 -49.5 -79t-59.5 -60 q-25 -22 -58 -41q8 -3 16.5 -5.5t19.5 -5.5q14 -5 27.5 -8t26.5 -9q5 -3 38 -13.5t72 -32.5q16 -8 34 -20.5t31 -23.5q16 -10 30 -24q16 -16 28 -36q8 -16 13.5 -35t-3.5 -41q-19 -46 -64 -38t-61 87q-5 25 -17 44q-8 16 -23 32.5t-37 27.5h3q-14 5 -23.5 9t-17.5 7 q-11 3 -16 6h-3q-14 5 -27.5 7.5t-27.5 8.5q-22 5 -43.5 12t-43.5 15q-16 -5 -34 -13.5t-37 -13.5q-101 -33 -210 -83.5t-211.5 -120t-186 -155.5t-132.5 -190q-8 -22 -15 -41t-12 -38l-3 -6v3q-35 -115 -27 -201t42 -147t84.5 -99.5t102.5 -54.5q27 -8 58.5 -12.5 t64.5 -9.5q74 -5 143.5 4.5t137.5 30.5q44 19 86.5 48t86 76.5t87 116t87.5 164.5q44 98 63 173t19 132.5t-15 97t-37 66.5q-52 63 -150 79q-11 3 -76.5 4.5t-155.5 -23.5q-229 -66 -366 -281q-11 -22 -14 -42.5t-3 -39.5v-41q11 -41 4.5 -68t-21.5 -42t-34.5 -16.5 t-35.5 11.5q-16 14 -21.5 34.5t-2.5 42.5t10 46q3 8 9 19q5 8 9 19t10 25q0 3 2 6q87 169 213 264q101 82 227 115q101 30 172 26t85 -7q8 0 41 -5.5t76.5 -21.5t88.5 -49t75 -88q106 -186 -65 -518l-12 -20q-13 -21 -35 -52.5t-56 -70t-78 -79.5q-55 -46 -112 -81.5 t-120 -60.5t-128.5 -38t-136.5 -13q-14 0 -30 1t-30 1q-259 22 -366 178q-55 76 -64 180zM844 1469q3 -55 34.5 -91.5t77.5 -58.5q79 33 143 84.5t86 139.5q14 60 3 94t-33 51q-25 19 -60 24h-14q-38 0 -84.5 -15t-84.5 -50q-76 -68 -68 -178z" />
<glyph unicode="9" horiz-adv-x="1389" d="M71 421q5 35 11 54v8q0 3 3 3q5 25 16 46q8 19 20.5 35.5t31.5 22.5q25 5 41 -4.5t23 -30t-1 -47.5t-36 -57q-19 -22 -33 -47q-14 -22 -23 -45t-7 -48q0 -76 44 -136q30 -41 72.5 -65.5t80.5 -37t67 -14.5l29 -3q98 -8 196 21q38 14 98.5 52.5t131.5 121.5t143 221 t135 348q-25 -33 -57 -57q-55 -49 -119 -82t-138 -55q-123 -33 -213 -26t-104 10q-8 0 -47.5 8t-91.5 31.5t-106.5 64.5t-92.5 106q-109 191 27 505q5 5 39.5 73.5t113.5 148.5q87 96 205 150q145 68 306 60q306 -8 426 -202q68 -106 76 -254q5 -60 0 -125.5t-19 -136.5 q-22 -117 -50.5 -198t-34.5 -92q-3 -5 -16.5 -40.5t-39.5 -89t-62.5 -121.5t-86.5 -137q-123 -172 -256 -262q-156 -101 -317 -101q-14 0 -24.5 1.5t-24.5 1.5q-5 0 -38 4t-78 17.5t-91.5 42.5t-82.5 78q-79 112 -46 279zM200.5 949q-1.5 -64 13.5 -106.5t34 -66.5 q38 -35 80.5 -57.5t78 -34.5t60.5 -16l25 -4h2q41 -8 90 -9q41 -3 93 3t112 22q249 65 369 300q41 186 39.5 309t-26.5 199q-19 52 -47.5 89t-61.5 60t-64 35.5t-53 17.5t-42.5 6.5t-42.5 4.5q-66 3 -120.5 -9.5t-98 -31.5t-76.5 -42t-54 -42q-46 -46 -82 -94t-63 -89 q-30 -49 -55 -93q-60 -115 -84.5 -201t-26 -150z" />
<glyph unicode=":" horiz-adv-x="275" d="M22 115q8 35 26 57t39.5 29t39.5 0t26 -32q5 -22 -1.5 -41t-17.5 -35q-11 -19 -30 -38q-33 -22 -63 -18t-19 78zM131 549q8 35 26 57t39.5 29t39.5 0t26 -32q5 -22 -1.5 -41t-17.5 -35q-11 -19 -30 -38q-33 -22 -63 -18t-19 78z" />
<glyph unicode="=" horiz-adv-x="1013" d="M217 236.5q-1 17.5 10 34t34 28.5t69 12l421 -8h3q8 0 17.5 -4t12.5 -15q3 -14 4 -31.5t-10 -34t-34 -29t-70 -12.5h-38h-54.5t-113.5 1.5t-214 7.5h-3q-8 0 -17.5 4t-12.5 15q-3 14 -4 31.5zM217 446.5q-1 17.5 10 34t34 29t69 12.5l421 -9h3q8 0 17.5 -4t12.5 -15 q3 -14 4 -31.5t-10 -34t-34 -28.5t-70 -12h-38h-54.5t-113.5 1t-214 7h-3q-8 0 -17.5 4t-12.5 15q-3 14 -4 31.5z" />
<glyph unicode="A" horiz-adv-x="2624" d="M55 661q0 246 101 428.5t251 304.5t322 183t314 61q120 0 254 -32.5t247.5 -106.5t187 -194t73.5 -295q0 -30 -7 -94t-23 -129.5t-45 -114.5t-72 -49q-22 0 -34.5 16t-12.5 38q0 44 44 85q19 14 33 30q14 14 26 31.5t20 39.5q16 74 16 147q0 120 -38 209t-99.5 153 t-138 105t-155.5 64.5t-153 33t-126 9.5q-142 0 -304.5 -63t-300 -180.5t-229 -286.5t-91.5 -382q0 -167 42 -285.5t107.5 -200.5t147.5 -131.5t162.5 -75t150.5 -34t113 -8.5q142 0 288 56t289.5 150.5t283 218.5t270.5 258q-63 0 -71 1.5t-11 22.5v16.5t12 8.5t41 4t83 4 q57 60 112 117.5t104 112.5q164 180 302 307t241.5 204.5t170.5 113t92 35.5q19 0 49 -24.5t33 -87.5q0 -8 -56 -81.5t-145 -194t-198 -280t-219 -339.5q-38 -63 -80 -134t-76.5 -138t-57.5 -120t-23 -78q0 -38 35 -38q30 0 85 28.5t107 64.5q60 41 125 95q5 5 17 11 q5 5 14.5 9.5t15.5 4.5q8 0 8 -11q0 -5 -7 -23t-42 -48q-14 -11 -52 -42.5t-89 -64t-104 -58.5t-94 -26q-63 0 -89 45t-26 100q0 35 16.5 91t45 120t67 134t79.5 132q-90 5 -179 7t-157 2q-137 -142 -284 -276t-301.5 -238t-311.5 -166.5t-313 -62.5q-172 0 -316.5 53 t-248.5 154t-161 246t-57 328zM2100 677q68 0 151.5 -1.5t162.5 -6.5q60 101 127 203.5t132.5 196.5t124 179t107.5 150q-87 -52 -230.5 -155.5t-296.5 -264.5q-14 -14 -26 -27.5t-23 -24.5h3q-14 -14 -26 -27.5t-26 -27.5q-44 -46 -89 -94t-91 -100z" />
<glyph unicode="B" horiz-adv-x="2542" d="M94 892q23 152 90 277t173.5 212.5t240.5 117.5q22 5 75 9q13 1 26 1q41 0 86 -10q59 -14 111 -52t68 -117q4 -20 4 -43q0 -19 -3 -41q-7 -46 -26 -90.5t-49 -75.5t-65 -40q-27 -5 -43.5 7t-22.5 29q-5 22 12.5 50.5t64.5 50.5q3 0 19 9.5t31 27.5t24.5 43.5t1.5 58.5 q-14 63 -56 93q-42 29 -92 39q-35 7 -67 7q-14 0 -27 -1q-45 -4 -64 -7q-123 -30 -220 -113t-158 -200q-60 -118 -80 -258q-7 -52 -8 -105q0 -89 21 -178q44 -197 158.5 -336.5t274.5 -228t348 -131t382 -44.5q158 3 311.5 34t285.5 94t234.5 157t160.5 220q22 49 41 101 q16 46 29.5 103.5t13.5 117.5q0 63 -21.5 121.5t-76.5 99.5q-30 -14 -56 -23.5t-54.5 -16t-64 -10.5t-84.5 -4q-57 0 -90 20t-33 59q0 49 51.5 71t122.5 22q93 0 178 -39q44 35 74 77.5t52 81.5q25 44 40 84q19 49 20 99q0 52 -20.5 86t-48 55.5t-55 32.5t-43.5 14 q-66 16 -131 16q-79 0 -173.5 -34t-176 -83t-136.5 -106.5t-55 -103.5q0 -8 3 -11q-14 -44 -38.5 -66t-48.5 -22q-16 0 -30 12.5t-14 39.5q0 16 7 34t18 32q11 16 24 30q55 68 128.5 128t157 105t170.5 72.5t172 27.5q33 0 102.5 -9.5t138 -42.5t120 -93t51.5 -158 q0 -106 -57 -192.5t-166 -157.5q152 -119 152 -349q0 -183 -92.5 -328t-248 -247t-360.5 -158t-426 -59h-25q-175 -1 -365 39q-204 42 -383.5 138t-316 247.5t-186.5 370.5q-21 95 -21 188q0 62 9 122zM1092 74q0 5 1.5 9t1.5 7q19 74 67 206.5t145 307t251 386t389 446.5 q8 8 16 9q14 0 36 -20.5t22 -53.5q0 -38 -41 -88q-208 -240 -377 -469q-74 -98 -145 -205t-129.5 -210.5t-101 -200.5t-53.5 -176q-8 -22 -22 -22t-31.5 16.5t-25.5 46.5q0 3 -1.5 5.5t-1.5 5.5zM1972 926q0 -14 24.5 -21t56.5 -7q11 0 20.5 1.5t20.5 1.5q35 5 65.5 16 t57.5 25q-27 5 -57 13.5t-68 8.5q-57 0 -88.5 -15t-31.5 -23z" />
<glyph unicode="C" horiz-adv-x="1862" d="M93 1122q5 30 14.5 70t15.5 42l8 15t22 31.5t33 30t41 13.5q44 0 44 -39q0 -5 -1 -10q-5 -44 -62 -90l-20 -19q-8 -8 -19 -22t-22 -30q-1 -5 -1 -11q0 -39 33 -67q37 -32 104 -50.5t157 -27t194 -8.5q115 0 237.5 9.5t248.5 31.5q98 115 219.5 221.5t252.5 187 t263.5 129.5t249.5 49q61 0 103 -23q38 -21 38 -71q0 -6 -1 -12q-8 -49 -58 -93q-156 -142 -396 -246t-521 -166q-55 -66 -126 -159t-135 -196.5t-113 -210t-58 -199.5q-4 -31 -4 -61q0 -31 4 -63q8 -62 42.5 -109.5t98.5 -77.5t168 -30q79 0 158 19t153 49q93 35 169.5 91 t131 111t87.5 94.5t41 39.5q11 0 8 -17q0 -14 -8 -34t-22 -37q-66 -85 -149 -151.5t-177 -115.5t-196.5 -75t-203.5 -29q-117 0 -200.5 34t-135.5 94q-53 60 -73 142q-13 53 -13 113q0 32 4 65q8 85 47.5 176.5t83.5 169t80.5 132t42.5 63.5q5 5 31 42t73 94 q-115 -19 -228.5 -27t-219.5 -8q-213 0 -355 32.5t-175 117.5q-10 23 -10 51q0 12 2 25zM1330 1035q240 60 442 147.5t350 210.5q44 35 54.5 53t10.5 23q5 33 -20.5 44t-63.5 11t-82 -7t-74 -18h-3q-82 -27 -180 -87q-85 -52 -195.5 -142t-238.5 -235z" />
<glyph unicode="D" horiz-adv-x="2424" d="M81 552q-8 61 -8 124q0 162 53 340q0 3 25.5 69.5t83.5 156.5q33 52 71 97t82 84q55 46 113.5 79t123.5 52q5 3 41 11q36 7 86 9q5 0 10 1q46 0 98 -14q58 -15 104 -59q42 -40 70 -94q20 -37 19 -78q0 -19 -4 -38q-8 -41 -42.5 -79.5t-58.5 -65.5l-3 -3 q-14 -14 -34.5 -27.5t-42.5 -10.5q-48 5 -48 53q0 45 73 83q22 14 38 30q14 14 27.5 32t13.5 39q3 30 -6.5 60.5t-39.5 57.5q-38 38 -88 49q-44 10 -82 10h-10q-44 -2 -74 -10l-30 -8q-134 -41 -223 -125.5t-138 -164.5q-30 -44 -47.5 -80.5t-31.5 -66.5q-14 -33 -25 -66 q-51 -169 -51 -322q0 -59 8 -116q28 -203 147 -362q112 -147 271 -231q158 -84 337 -112q86 -13 174 -14q97 0 195 16q190 30 363 112t320.5 210.5t243.5 302.5q74 142 112 261t49 213q6 47 6 89t-6 79q-11 74 -33 128q-52 128 -169 194l-3 6q-22 14 -42.5 22t-34.5 13 q-16 8 -30 11q-87 27 -174 27q-193 0 -385 -133q-30 -22 -56 -41t-48 -41q-16 -19 -27 -39.5t-17 -39.5q-8 -22 -11 -44q-8 -35 -26 -56t-38 -29t-38 0t-26 30q-5 19 0 39.5t16 37.5q11 19 30 38q3 5 8 11l20 19q30 35 76 76t107 82q123 90 264 126q77 18 153 18 q96 0 189 -29q5 -3 44.5 -16.5t94.5 -49.5q55 -30 117.5 -90t109.5 -155q58 -120 58 -266q0 -199 -108 -447q-85 -197 -215.5 -336t-294.5 -229t-356.5 -131t-400.5 -41q-292 3 -509 99.5t-353 277.5q-128 169 -157 385zM792 63q-5 19 0 27q16 74 64 206.5t145 307t251 386 t389 446.5q14 14 30 6q11 -5 23.5 -17.5t19 -31.5t-1.5 -46.5t-38 -63.5q-208 -240 -377 -469q-74 -98 -145 -205t-129.5 -210.5t-101 -200.5t-53.5 -176q-5 -22 -17.5 -22t-17.5 5h-3q-11 5 -22 20.5t-16 37.5z" />
<glyph unicode="E" horiz-adv-x="1758" d="M85 1180q8 158 210 245q49 22 95.5 34.5t73.5 17.5q16 5 22 5h11q25 3 49 0q19 -3 38 -9.5t30 -22.5q10 -17 10 -32q0 -21 -20 -39q-17 -14 -43 -14q-29 0 -69 17q-19 5 -44 11q-22 5 -46.5 3.5t-54.5 -9.5q-71 -27 -136.5 -76t-71.5 -134v-9q0 -68 45 -110 q48 -45 108 -67t110 -29l51 -6h3q131 -17 256 -18q56 0 110 4q178 11 344 41q-1 10 -1 20q0 73 50 155q71 115 179 190t203 118q96 46 165.5 65.5t75.5 19.5q8 3 44 11q34 8 78 10h16q36 0 73 -6q45 -7 75 -31q14 -11 23.5 -31.5t4.5 -53.5q-5 -38 -43.5 -82t-82.5 -74 q-115 -90 -280 -170.5t-348 -134.5q-30 -11 -57.5 -19.5t-57.5 -13.5q5 -16 6 -25q49 14 106 27q72 16 136 16q13 0 27 -1q76 -4 121 -25q33 -14 41.5 -34.5t10.5 -34.5q0 -38 -30 -73q-22 -19 -50.5 -27.5t-57 -12.5t-49 -4h-26.5q-8 0 -35.5 4t-65.5 13.5t-81.5 26 t-79.5 43.5q-63 -41 -162.5 -123t-208.5 -224q-96 -131 -131 -240q-16 -49 -20 -97l-2 -24q0 -35 10 -67q14 -44 51 -78t108 -53q79 -22 167 -25q24 -1 47 -2q264 0 488 166q63 46 104 91t60 73q3 8 11 13q14 8 27 3q14 -11 5.5 -37t-27.5 -48v3q-25 -30 -61.5 -65.5 t-85.5 -73.5q-55 -44 -113.5 -75.5t-121.5 -52.5q-149 -51 -301 -51q-19 0 -38 1q-5 0 -12 1.5t-15 1.5q-270 22 -371 153q-57 76 -57 179q0 31 5 64q27 117 91 215.5t122 161.5q71 71 118.5 109t50.5 41q98 63 207 109q-5 8 -9 15t-7 15q-3 0 0 3q-188 -38 -375 -45 q-45 -2 -90 -2q-140 0 -272 17q-8 3 -62.5 11t-117.5 30q-183 73 -183 225v13zM1294 1016q232 60 412.5 148.5t286.5 170.5q55 46 79.5 76.5t24.5 43.5q5 16 0 26t-11 15q-25 19 -68 20q-17 2 -35 2q-25 0 -53 -4q-46 -7 -81 -15q-5 -3 -17 -5q-8 -3 -19 -4.5t-24 -7.5 q-14 -5 -53.5 -22.5t-97 -54.5t-123 -95.5t-131.5 -143.5q-19 -22 -35 -46q-14 -22 -30 -48t-25 -56zM1316 882q11 -8 24.5 -16.5t33.5 -13.5q3 0 2.5 -2.5t2.5 -2.5q8 -3 15 -3t12 -3q33 -11 66 -16.5t54 -8.5q22 0 67 4.5t70 28.5q8 5 14 28q0 14 -25 24q-35 18 -112 18 q-6 -1 -12 -1q-86 -2 -201 -31z" />
<glyph unicode="F" horiz-adv-x="1671" d="M98 582q2 74 17.5 135t33.5 100.5t20 42.5v3q115 199 353 308q197 93 497 126q131 14 262 18q52 2 105 1l157 -3q161 115 330 186q180 76 374 101q86 12 160 11h31q88 -3 153.5 -12.5t110.5 -21.5t64 -21q5 -3 34 -15t59 -34q30 -23 52 -55q16 -24 16 -52q0 -10 -2 -21 q0 -8 -14 -39.5t-68 -64.5q-123 -78 -387 -78q-41 0 -86 2q-63 3 -139.5 9.5t-163.5 12.5q-22 3 -46.5 4t-48.5 4q-30 -38 -78 -97t-108 -132.5t-127 -161t-135 -180.5q8 0 16 1.5t14 1.5q30 5 53 17.5t40 26.5q19 14 32 32q25 33 51 46.5t46.5 12.5t32.5 -17.5t10 -41.5 q-3 -22 -15.5 -38t-28.5 -27q-19 -14 -44 -22q-3 0 -8 -3t-22 -8q-27 -8 -70.5 -19t-98.5 -17q-14 -3 -25 -2.5t-24 0.5q-74 -104 -145 -212t-127 -207.5t-94 -189.5t-49 -161q-5 -22 -17.5 -22t-18.5 5q-14 8 -24.5 22t-16.5 36q-5 19 0 27q22 85 108 278.5t244 447.5 q-74 30 -111 96q-34 56 -34 122q0 23 4 47q16 93 95 194q55 71 109.5 117.5t59.5 51.5l9 9q-46 1 -92 1q-68 -1 -135 -3q-112 -4 -224 -18q-609 -66 -808 -406q-3 -5 -18 -41t-28 -92q-14 -55 -17 -121q0 -7 -1 -15q0 -58 23 -114q25 -60 71 -101q19 -19 41 -26t43 -9 q25 -3 47 2q20 4 37.5 4t31.5 -4q28 -8 41 -24t11.5 -35.5t-20.5 -35.5q-16 -14 -36.5 -15t-42.5 1q-25 3 -47 11l-27 14q-150 66 -199 199q-28 68 -28 136v12zM1310 746q10 -50 64 -72q87 137 193.5 280.5t237.5 287.5q-55 5 -109 8t-109 6q-63 -55 -128.5 -128.5 t-104.5 -158.5q-33 -68 -43 -125q-6 -26 -6 -53q1 -22 5 -45zM1649 1308q52 -3 101.5 -5.5t98.5 -8.5q33 38 67 72.5t69 69.5q11 11 28 6q11 -5 24.5 -17.5t19 -31.5t-1.5 -46.5t-37 -63.5l-3 -2q14 0 29 -1.5t29 -4.5q87 -5 162 -12t138 -10q51 -2 96 -2q105 0 175 13 q100 19 150.5 45t63 50.5t12.5 27.5l3 3q3 22 -11 41t-34.5 32.5t-42.5 24.5t-35 17q-70 27 -180 43q-66 10 -141 10q-50 0 -104 -4q-135 -11 -289 -56t-318 -138q-5 -5 -23 -17.5t-46 -34.5z" />
<glyph unicode="G" horiz-adv-x="2140" d="M58 -229q8 68 40 133q68 137 219 208q124 61 272 61q57 0 118 -9q0 145 77 333q46 123 92.5 206t51.5 92q5 11 64 102.5t169 213.5q63 74 132.5 137t140.5 117q175 126 366 186q3 0 46.5 9.5t98 9.5t109 -19t81.5 -74q8 -16 13 -68q1 -6 1 -12q0 -49 -38 -119 q-60 -115 -224 -238q-8 -8 -20.5 -17.5t-23.5 -14.5q-14 -11 -27 -17q-22 -11 -44 -19q-19 -5 -41 -6.5t-38 12.5q-19 14 -23 34t7 36.5t38 29.5q22 10 53 10q7 0 15 -1q22 0 47 5q22 5 45 15t45 29q66 57 104 107.5t54 91.5t16 71t-8 49q-16 33 -51.5 47t-76.5 15h-11 q-35 0 -69 -5q-38 -7 -62 -16q-19 -5 -94 -40.5t-183 -120t-236.5 -231t-256.5 -375.5q-60 -98 -107 -202q-38 -87 -72 -192.5t-34 -200.5q41 -14 83 -30.5t89 -37.5q71 -38 143.5 -83.5t145.5 -105.5q188 27 350 128q55 90 101 173.5t81.5 153t59 117.5t31.5 67q3 16 11 30 q44 109 101 128q12 6 25 6q20 0 43 -14q26 -18 26 -61t-26 -111q-14 -44 -30 -78t-19 -39t-15 -31.5t-38 -64.5t-64.5 -87t-90.5 -101q-8 -8 -17.5 -16.5t-17.5 -19.5q-46 -87 -98 -180q-38 -63 -78 -120t-83 -107q101 -106 202 -231.5t202 -273.5q5 -11 16 -27q5 -8 8 -11 q11 -25 17 -46q5 -22 3.5 -42.5t-12.5 -37.5q-19 -23 -41 -23q-14 0 -29 8q-37 21 -37 90q0 9 1 18q3 16 0 36q-3 16 -7 35t-15 41q-87 126 -174.5 229.5t-172.5 191.5q-66 -74 -139 -131q-238 -194 -516 -224q-11 -3 -106 -8q-18 -1 -36 -1q-83 0 -188 20q-156 33 -260 109 q-139 101 -191 268q-16 45 -16 93q0 19 3 38zM113 -230q-2 -18 -2 -34q0 -41 12 -80q87 -273 409 -339q66 -14 126 -18q34 -2 63 -2q22 0 41 1q208 11 367.5 123t293.5 273q-38 35 -74 65.5t-71 60.5q-71 -8 -148 -8q-287 0 -382 169q-30 60 -38 125q-33 5 -63 8t-60 3 q-137 0 -248 -51q-63 -33 -112.5 -79.5t-78 -102.5t-35.5 -114zM836 76q8 -76 53 -129t140 -73q44 -8 101 -8h42.5t42.5 3q-197 147 -379 207zM1349 -167q27 -22 53 -46.5t53 -48.5q14 14 22 30q27 35 53 69.5t51 72.5q-5 -3 -12 -5.5t-13 -5.5q-98 -46 -207 -66zM1865 199 q35 38 60 75t41 65q19 30 33 60v2q5 14 14 30q5 14 13 33t17 41q14 33 17.5 55t6.5 35q3 14 0 25q-5 5 -14 5h-5q-16 -5 -34 -29.5t-32 -57.5q-5 -8 -13.5 -34t-24.5 -81q-5 -22 -24 -80.5t-55 -143.5z" />
<glyph unicode="H" horiz-adv-x="2960" d="M55 661q0 224 76 396q33 79 83.5 147t113.5 129q85 76 198 132t238 86q126 29 258 31q6 0 13 1q126 -1 243 -31q123 -32 228 -101t179 -181q27 -44 51 -102q22 -58 32 -134q4 -35 5 -74q0 -44 -6 -93q-11 -91 -52 -201q0 -5 -11 -27v-5q-3 0 -4 -6q-11 -19 -25.5 -35.5 t-36.5 -21.5t-36.5 7t-19 32.5t5 46.5t34.5 50q19 14 33 30q14 14 26 33t19 41q17 79 18 152q0 40 -5 79q-15 108 -75 198q-96 150 -259.5 219.5t-347.5 69.5t-363 -61.5t-305 -175.5q-254 -233 -254 -616v-15q3 -298 172.5 -492t483.5 -229q53 -6 105 -6q126 0 243 38 q165 54 308.5 146t266 211t226.5 234q79 90 157 181.5t146 178.5q-24 62 -24 139q0 69 19 150q63 259 186 334q40 25 70 25l1 -1h35q63 -14 85 -68q10 -24 9 -57q0 -121 -135 -355q-38 -68 -76.5 -125.5t-65.5 -96.5q67 -57 163 -68q62 -7 120 -7q31 0 61 2q101 8 172 8 q82 128 165.5 251t155.5 224t127 174.5t76 103.5q5 5 12.5 11t20.5 0q19 -5 42.5 -31t28.5 -81q0 -11 -11 -30q-19 -25 -64 -83.5t-108 -143t-138 -189.5t-151 -220q27 -11 35 -16q41 -19 60 -52q11 -14 19.5 -30.5t5.5 -32.5q-3 -25 -18 -37t-35.5 -10.5t-42 20.5t-41.5 57 l-5 11q-3 3 -19 25q-27 -41 -53 -82t-51 -82t-53.5 -89t-55.5 -97t-52 -95.5t-41 -81.5l-8 -17q-22 -49 -27.5 -84.5t24.5 -40.5q6 -2 14 -2q27 0 67 21q54 27 108 65q63 44 136 101q16 11 30 19q11 5 20.5 4t4.5 -15q-3 -11 -11 -21q-14 -22 -38 -44q-14 -11 -53.5 -44 t-91.5 -67q-51 -34 -105 -58q-48 -22 -86 -22h-9q-38 3 -61 24.5t-34 53.5q-10 28 -10 59v9q2 37 10 72q16 74 69.5 176.5t107.5 197.5q44 82 99 164q-30 -3 -61.5 -3t-69.5 -5q-31 -2 -64 -2h-33q-51 2 -101.5 10t-97 26t-84.5 51q-3 -3 -3 -6q-180 -257 -356 -437 t-362 -297q-183 -115 -371 -170q-153 -38 -301 -38h-43.5t-43.5 3q-5 0 -39.5 2.5t-86 13.5t-116 32t-132.5 56q-167 85 -262 234q-120 183 -120 443zM2258 975q104 131 172.5 243t81.5 183q5 27 2.5 53t-14.5 42.5t-34 18t-52 -23.5q-33 -25 -74 -89t-74 -203 q-19 -76 -18 -138q-1 -47 10 -86z" />
<glyph unicode="I" horiz-adv-x="1283" d="M81.5 535q-2.5 22 3.5 44q3 25 13 49l11 16q46 126 180 298q101 131 225.5 250t255.5 206q60 41 132.5 80.5t149.5 63.5q78 24 154 26h7q73 0 141 -31q110 -51 145 -147q23 -60 24 -122q-1 -26 -5 -52q-14 -88 -33 -143q-3 -5 -8 -14q-5 -5 -8 -16t-8 -22q-3 -5 -3 -8 t-3 -8q-60 -112 -146 -263.5t-185.5 -306t-204.5 -291t-204 -212.5q-57 -44 -125 -52q-30 -3 -52 2.5t-38 13.5q-8 3 -19 8l-6 3q-3 0 -8 6l-3 2q-5 3 -16 14q-30 30 -41 71q-6 24 -6 48q0 18 3 37q11 71 42.5 113t34.5 45h2q16 14 42.5 31.5t56.5 9.5q25 -5 35.5 -21.5 t8 -37t-22 -41t-57.5 -31.5q-22 -8 -41 -19q-16 -11 -30 -27.5t-16 -38.5q-4 -17 -3 -32q0 -43 30 -69q5 -5 19 -16q8 -2 16 -2q39 -1 91 41q62 50 134.5 138t150.5 202.5t150.5 230.5t133.5 222.5t102 180.5t66 123t38 79q14 33 22 55q14 45 14 83q1 31 -9 56 q-20 57 -60 93q-25 22 -54.5 35.5t-57.5 24.5h-18q-61 0 -132 -17q-128 -35 -289 -144q-126 -85 -247.5 -201t-222.5 -244q-44 -55 -79.5 -108.5t-56.5 -99.5q-5 -22 -5.5 -41t2.5 -35q3 -19 5 -36q5 -35 -3.5 -61t-25.5 -40t-36 -12.5t-36 23.5q-14 16 -16.5 38z" />
<glyph unicode="J" horiz-adv-x="2241" d="M-82 412q0 229 80.5 407t217 300.5t317 185.5t382.5 63q123 0 260.5 -31.5t252.5 -105t190 -195t75 -299.5q0 -30 -5.5 -94t-22 -129.5t-45 -114.5t-74.5 -49q-22 0 -34.5 16t-12.5 38q0 44 44 85q19 16 33 33q14 14 26 32.5t20 40.5q16 74 16 145q0 123 -39.5 213 t-103.5 153t-144.5 104t-161 64t-154.5 31t-126 8q-137 0 -297.5 -42t-301.5 -144.5t-236.5 -274.5t-100.5 -429q0 -169 56 -286.5t140.5 -196.5t184 -124t187 -67t149 -27.5t69.5 -5.5q172 0 323.5 57.5t287 149t250 203.5t212.5 218q126 142 261 311.5t245.5 327.5 t181.5 285t71 185q0 46 -20.5 54.5t-25.5 8.5l-23 -7t-50.5 -30.5t-50.5 -67t-23 -114.5v-47.5t1 -15.5l1 -2v-11q0 -46 -19 -71t-41 -25t-38 20.5t-16 47.5q0 22 5 44t11 33q44 147 112 223.5t147 76.5q74 0 101 -68q5 -14 8 -27.5t3 -29.5q0 -120 -136 -355 q-30 -52 -84.5 -134t-108 -160t-94.5 -135.5t-44 -59.5q-191 -259 -361.5 -439.5t-337 -292.5t-336 -161t-355.5 -49q-153 0 -311 45t-289 139t-214.5 234.5t-83.5 334.5z" />
<glyph unicode="K" horiz-adv-x="2452" d="M55 82q0 25 12 38.5t32.5 15t46.5 -12.5t48 -49q16 -27 35 -49q16 -22 38 -40t44 -29q87 -38 169.5 -55.5t131.5 -23.5q39 -3 77 -3q145 0 273 48q162 62 302 164t256 229t209 242q14 14 23 27.5t23 27.5q-30 -5 -57.5 -7t-57.5 -7h-29.5t-56 4t-63 15t-50.5 33 q-26 26 -26 60q0 6 1 11q3 16 18 35.5t59 29.5q35 9 81 9q26 0 57 -3q83 -8 170 -38q11 -5 23.5 -9.5t26.5 -9.5q76 101 143 196.5t119 181.5t83 158t37 122q3 23 3 41q0 36 -12 50q-16 20 -29 23h-14h-3h3q-35 0 -107.5 -2.5t-168 -11t-209 -24.5t-228.5 -44 q-584 -145 -718 -475l11 14q-11 -25 -11 -53.5t3 -53.5q3 -30 11 -60q4 -22 4 -40q0 -15 -3 -29q-7 -28 -22 -42t-34 -13t-35 18q-16 19 -19 47.5t2 50.5q22 279 268 459q98 74 230.5 132.5t299.5 96.5q142 35 277 53t240 25t170 7h66h6q66 -11 90 -71q14 -31 14 -74 q0 -122 -110 -338q-25 -52 -50.5 -98.5t-46 -82t-35.5 -59t-15 -25.5q-14 -22 -27.5 -42.5t-27.5 -42.5q131 44 247 104t213 127t176.5 135t139.5 128q14 19 26 41t20 44q11 25 14 49q11 41 30 61.5t39.5 26t37 -4t24.5 -31.5q8 -30 -9.5 -60t-31.5 -46l-3 -3q-3 -3 -4 -5.5 t-7 -8.5q-5 -8 -22 -24q-71 -79 -178.5 -177.5t-252.5 -194.5q-115 -76 -235 -130.5t-243 -93.5q33 -22 63 -49t54 -63q71 -101 93 -208.5t36 -206.5q11 -87 24.5 -152.5t59.5 -103.5q11 -8 30.5 -14t49.5 3q11 3 21.5 7t16.5 6q8 3 14 6q33 14 59 14q4 -1 8 -1 q28 -2 44.5 -16t18 -33t-12.5 -38q-16 -22 -49 -27.5t-55 -2.5h-3q-156 0 -221 101q-30 49 -41 110.5t-19 135.5q-14 96 -34 195.5t-86 194.5q-22 30 -50.5 57.5t-66.5 49.5q-262 -377 -541 -582q-177 -128 -363 -186q-153 -49 -312 -49h-39.5t-36.5 3q-8 0 -54.5 4 t-117.5 19t-155.5 45t-169.5 82q-11 5 -22 12.5t-19 12.5q-16 11 -45 35.5t-31 54.5zM1491 713q0 -16 8 -28q22 -23 73 -29q35 -4 62 -4q13 0 24 1q90 8 166 24q8 8 11 14q-5 3 -13.5 5.5t-16.5 5.5q-120 38 -216 38q-38 0 -65 -8q-33 -8 -33 -19z" />
<glyph unicode="L" horiz-adv-x="1826" d="M46 96q0 16 11 39t41 42q52 30 145 40q34 4 73 4q65 0 140 -11q227 -30 453 -125q5 -5 41 -19q188 96 344 237.5t284 280.5q109 123 211.5 246t184.5 235t135.5 203.5t66.5 154.5q5 29 5 49q0 10 -1 18q-4 23 -12 34t-19 12t-16 1q-22 -3 -55 -24q-22 -19 -50.5 -54.5 t-55.5 -101.5q-8 -25 -9.5 -52t0.5 -52q3 -30 9 -57q4 -20 4 -37q0 -19 -4 -33q-8 -28 -23.5 -42t-34.5 -11t-35 19q-19 19 -19 50.5t5 53.5q3 8 7 24.5t7 27.5q60 243 183 319q41 25 71 25t35 -3q66 -14 85 -65q9 -24 9 -56q0 -123 -135 -359q-30 -52 -61.5 -100t-56 -85 t-41 -58.5t-16.5 -24.5q-180 -257 -356 -437t-362 -298q-38 -25 -76 -45t-77 -42q153 -52 407 -120t576 -120q328 -55 640 -73q104 -6 208 -5q210 0 425 23q194 27 355 82q25 11 46.5 27.5t38.5 32.5q19 19 35 38q27 33 54.5 44t48 7t30 -20.5t6.5 -40.5q-5 -30 -35 -50.5 t-49 -29.5q-16 -5 -47 -19q-147 -60 -322 -98t-382 -52q-66 -5 -135.5 -8t-140.5 -3q-134 0 -274.5 8t-290.5 28q-210 25 -401.5 60t-355.5 77.5t-297.5 87.5t-226.5 86q-33 -14 -65.5 -23.5t-68.5 -20.5q-96 -25 -192 -34q-51 -5 -102 -5q-46 0 -94 4q-3 0 -65.5 6.5 t-138.5 25.5q-222 56 -222 162zM101 96q0 -30 46.5 -59t133.5 -51q49 -14 94.5 -19t72.5 -8q33 -2 65 -2q82 1 160 15q108 20 209 63q-158 71 -305.5 101.5t-262.5 30.5q-129 -1 -186 -36q-22 -14 -24.5 -22t-2.5 -13z" />
<glyph unicode="M" horiz-adv-x="3153" d="M49 710q5 183 64 349.5t169.5 297.5t274.5 216t382 98q30 2 61 2q96 -1 200 -19q138 -24 257 -89.5t200.5 -181.5t92.5 -291q1 -14 1 -34q0 -26 -2 -63q-4 -64 -16.5 -129.5t-38.5 -116t-67 -53.5q-22 -3 -34 13.5t-15 38.5q-1 4 -1 8q0 37 40 77l9 9q10 10 22 25t23 34 t17 41q8 35 9 72v25q0 24 -1 48q-8 120 -52 207.5t-109.5 147.5t-146 95.5t-161 54.5t-154.5 23q-49 3 -88 3q-20 0 -37 -1q-131 -8 -274.5 -54.5t-265 -152t-206.5 -276t-101 -427.5q-2 -29 -2 -56q1 -112 27 -205q32 -116 93.5 -204.5t143.5 -150t171 -98.5t176 -51 q63 -10 118 -9q20 0 40 1q169 0 322 57.5t287 149t248.5 203.5t213.5 219q98 109 189.5 216.5t167.5 211.5q30 306 96 442.5t134 136.5q46 0 72 -39.5t26 -83.5q0 -41 -24.5 -110.5t-65.5 -150t-90 -164t-98 -156.5q0 -96 2 -208t17 -243q57 74 151.5 188.5t205 244.5 t229 261t226.5 236t198 172t145 67h19q3 0 19 -1.5t35.5 -14t35.5 -38t16 -75.5q0 -5 -56 -78.5t-143 -195.5t-196.5 -281.5t-218.5 -339.5q-38 -63 -80.5 -134t-76.5 -136.5t-57.5 -119t-23.5 -80.5q0 -38 33 -38q30 0 85 28.5t106 64.5q60 41 126 95q5 5 16 11q5 5 15 9.5 t15 4.5q8 0 9 -11q0 -5 -7 -23t-43 -48q-14 -11 -52 -42.5t-88.5 -64t-103.5 -58.5t-94 -26q-63 0 -87.5 46.5t-24.5 103.5q0 74 52 192.5t131 256.5t176 285.5t190 277t166.5 229.5t109.5 146q-14 0 -36 -11t-57.5 -37t-83 -73.5t-113.5 -121.5q-76 -87 -163.5 -197.5 t-176.5 -228t-173.5 -229.5t-155.5 -201t-123 -142t-74 -53q-68 0 -85.5 39.5t-17.5 85.5q0 115 4 219t9 191q-649 -893 -1373 -893h-8q-213 0 -371.5 61.5t-263.5 170.5t-158.5 262t-53.5 339zM2362 1079q180 254 180 374q0 30 -8 42t-19 18q-11 -5 -30 -20.5t-39.5 -57.5 t-42.5 -117.5t-36 -195.5q-3 -3 -2 -11q0 -5 -1.5 -13t-1.5 -19z" />
<glyph unicode="N" horiz-adv-x="2154" d="M85 1338q63 216 292 254q38 5 73.5 6.5t65.5 1.5q8 -3 20.5 -3t26.5 -3q22 -3 45 -10.5t36 -29.5q11 -22 5.5 -40t-24.5 -27.5t-47.5 -8t-58.5 17.5q-19 14 -41 25q-19 8 -43.5 15t-46.5 4h-3q-197 -33 -246 -216q-17 -56 -16 -106q0 -74 35 -137q25 -44 59 -72.5 t67 -47.5q38 -22 79 -33q54 -15 111 -15q144 0 304 95q101 60 199.5 143t185.5 162q66 60 127.5 113.5t117.5 93t109 58.5q37 13 73 13q15 0 29 -2q96 -16 126 -93q12 -30 12 -68q0 -104 -91 -262q-44 -79 -82 -133.5t-41 -57.5q0 -3 -3 -3q-71 -93 -149 -200.5t-140 -211.5 q-25 -41 -53.5 -89t-57.5 -97t-53.5 -95.5t-40.5 -81.5l-8 -17q-16 -38 -23 -69.5t4 -44.5q14 11 34 35.5t53 70.5q41 57 90 135t107 168q104 169 229.5 361.5t261.5 362.5q319 396 563 431q24 4 48 4q99 0 186 -64q5 0 11 -5l17 -17h2l6 -5q30 -33 33 -88q0 -11 -11 -30 q-22 -30 -86 -113t-149 -200.5t-183 -259.5t-188 -292q-25 -41 -53.5 -89t-56 -97t-52 -95.5t-41.5 -81.5l-8 -17q-22 -49 -27 -84.5t25 -40.5q6 -2 14 -2q25 0 66 21q53 27 108 65q63 44 136 101q16 11 31 19q11 5 20.5 4t3.5 -15q-3 -11 -11 -21q-14 -22 -38 -44 q-14 -11 -53.5 -44t-91.5 -67t-105 -58q-47 -22 -85 -22h-9q-38 3 -61.5 24.5t-34.5 53.5q-10 28 -10 59v9q2 37 10 72q16 74 69.5 176.5t108.5 197.5q85 145 181.5 295t188 281.5t165.5 231t109 148.5q-65 40 -134 40q-21 0 -43 -4q-120 -16 -260 -131q-120 -96 -267 -282 q-134 -167 -259.5 -358t-229.5 -357q-60 -96 -110.5 -176.5t-94.5 -140.5q-14 -22 -26 -37t-26 -28q5 0 8 2l-16 -16q-52 -55 -85 -55h-5q-3 3 -5 3h-6q-3 3 -4 3t-4 2q-43 25 -53 87q-4 25 -4 48q0 36 8 70q16 74 69.5 176.5t107.5 197.5q74 128 165.5 256.5t184.5 249.5 q68 85 117 163q42 69 66 137q11 31 11 56q0 31 -17 53q-11 14 -27 22q-14 5 -37 8t-53 -11q-68 -30 -147.5 -98t-166.5 -148q-87 -79 -188.5 -163.5t-204.5 -147.5q-177 -104 -328 -104q-71 0 -128 20q-5 0 -31.5 9.5t-63.5 30t-76.5 54.5t-66.5 83q-45 75 -45 165 q0 56 18 119z" />
<glyph unicode="O" horiz-adv-x="2217" d="M131 776q-16 30 0 60q0 8 3 11v2q5 8 8 18t8 15q5 8 8 16q3 3 6 9q3 5 5.5 8t7.5 8q8 8 11 14q3 5 6 8v-3q5 5 5 6q66 71 172 133q66 38 149 67t179 53q82 16 155.5 27.5t131 17t93 6.5t38.5 1h3q22 -3 45 -2.5t50 0.5q134 120 276 202q199 117 404 155q5 0 34 4.5 t64.5 4.5t71 -8.5t59.5 -30.5q14 -16 21 -38t-1 -52q-8 -60 -99 -125q-46 -27 -99.5 -49t-124.5 -44q-221 -63 -510 -71q-66 -60 -128.5 -151.5t-117.5 -198t-97 -221.5t-65.5 -221.5t-24.5 -198.5v-5q0 -88 29 -146q27 -81 103 -125q67 -38 194 -38h36q112 3 225 57 t218.5 136t195.5 182t155 198q104 156 150.5 269t60.5 187q7 44 7 80.5t-7 66.5q-35 128 -213 134h-3h-16q-11 0 -44 -6.5t-85 -32.5t-117.5 -81t-139.5 -147q-33 -41 -65 -93q-30 -46 -65.5 -110.5t-68.5 -146.5q-30 -74 -32 -119q0 -8 -1 -15q0 -35 10 -55 q12 -24 31 -33.5t33 -12.5q14 -2 27 -2q50 0 95 24q56 30 94 66q49 46 90 104.5t65 121.5q5 22 2.5 42.5t-7.5 36.5q-8 19 -16 36q-22 30 -25 57.5t8 46.5t29 28.5t40 4.5q19 -5 28.5 -20.5t14.5 -34.5q5 -22 8 -47v-16v-14.5t-2 -18.5q0 -19 -9 -46q-5 -30 -16 -66 q-30 -71 -75 -136.5t-100 -117.5q-112 -105 -231 -105q-24 0 -47 4q-98 16 -131 96q-17 39 -17 86q0 15 2 30q7 64 24.5 121.5t35.5 97t20 45.5q46 87 99.5 162t116.5 132q96 93 216 142q96 41 160 44t75 3q145 -5 210 -85q55 -60 60 -172v-16q0 -89 -31 -193 q-34 -113 -108 -244q-52 -96 -96 -156t-49 -65q-49 -74 -136.5 -160t-194 -158.5t-226.5 -123t-235 -53.5h-22h-25q-74 0 -133 15q-68 18 -117.5 48t-83.5 69.5t-53 78.5q-52 104 -52 231q1 27 3 56q14 161 72.5 323t148.5 305.5t180 236.5h-22t-22 3q-5 0 -50 -1.5 t-113.5 -9.5t-154.5 -23t-176 -40t-173.5 -64.5t-148.5 -93.5q-22 -27 -33 -63q-5 -16 -8 -33q-5 -41 -20.5 -69.5t-34.5 -41t-38 -8.5t-30 24zM1371 1253q123 8 235 24.5t207 46.5q123 33 196.5 78t79.5 89q11 30 -11 46q-14 14 -35.5 19.5t-46.5 5.5q-27 3 -54.5 -1.5 t-43.5 -6.5q-27 -5 -50.5 -11t-47.5 -11q-27 -11 -68.5 -26t-87.5 -42q-101 -55 -273 -211z" />
<glyph unicode="P" horiz-adv-x="1622" d="M52 642q0 25 15 37t35.5 10.5t45 -16.5t40.5 -48q11 -22 25 -41q14 -16 31.5 -34t39.5 -28h-3q46 -27 93 -46.5t90 -35.5q90 194 259.5 443.5t456.5 539.5q14 14 27 5q11 -5 24.5 -17.5t20.5 -31.5t-1.5 -46.5t-38.5 -62.5q-115 -134 -229 -279q-98 -123 -210 -275.5 t-200 -308.5q41 -11 52 -11q101 -16 196 -16q53 0 105 5q167 19 289.5 102.5t204.5 178.5q96 109 161 243q69 156 81 261q5 45 5 83q1 49 -9 87q-16 66 -49 100.5t-61 47.5q-75 24 -153 24q-201 0 -420 -158q-38 -30 -69.5 -57t-61.5 -55q-16 -16 -27 -36.5t-17 -36.5 q-8 -19 -11 -39q-21 -68 -69 -80q-10 -2 -19 -2q-32 0 -43 36q-5 19 1.5 39.5t20.5 37.5q11 19 33 35q8 11 19 22q19 19 44 35q35 33 76 70t90 75q147 106 295 148q79 21 156 22q99 0 196 -36q3 0 22 -9.5t46.5 -30t56 -52t50.5 -80.5q33 -77 33 -169q0 -127 -63 -282 q-14 -38 -41 -90t-71 -110.5t-106.5 -120t-144.5 -113.5q-150 -93 -328 -128q-55 -11 -110.5 -16.5t-116.5 -5.5q-98 0 -199 16h-3q-11 0 -68 17q-55 -96 -90 -184.5t-49 -165.5q-5 -25 -19 -23.5t-19 4.5v3q-30 14 -41 57v27q14 52 39.5 131.5t72.5 182.5q-55 22 -118 49.5 t-120 65.5q-14 5 -26 12t-23 13q-11 8 -25 16q-22 14 -38 27q-14 14 -26 30.5t-12 38.5z" />
<glyph unicode="Q" horiz-adv-x="1990" d="M79 683q3 22 8 43q8 25 22 47q0 3 3 5l11 17q30 55 79 99.5t112 85.5q128 79 320 134q82 22 155.5 37t131 23t91.5 11t37 3q57 3 106 8q128 120 251 199q96 63 195.5 107t198.5 65q8 3 35 8.5t63 6.5q6 1 12 1l58 -6q36 -7 61 -29q31 -27 31 -71q0 -9 -1 -19 q-8 -68 -93 -125q-79 -52 -210 -91q-101 -30 -225 -54t-269 -38q-55 -60 -116.5 -134t-126.5 -164q-85 -120 -153 -243q-57 -104 -105 -228q-46 -119 -46 -227v-9q5 -60 28 -107q66 -142 267 -175q-41 106 -41 243q0 63 11 131.5t30 142.5q33 123 70 204.5t37 87.5 q101 197 226 322q101 101 222 158q104 46 168 50.5t69 4.5q137 -14 208 -101q30 -35 45 -81.5t20 -101.5q1 -13 1 -27q0 -85 -27 -182q-31 -113 -102 -244q-49 -93 -90 -154.5t-47 -67.5q-8 -11 -64 -83t-157 -154q-117 -101 -248 -156q-112 -46 -235 -52l3 -2q3 -3 4 -6 t7 -5q82 19 169 28q69 8 132 8h33q78 -3 139.5 -18.5t91.5 -47.5q22 -25 22 -59q0 -17 -6 -37q-11 -33 -34 -53.5t-51.5 -30t-59 -13.5t-54.5 -4q-22 0 -37 1.5t-18 1.5q-232 33 -352 161q-106 -25 -221 -37q-86 -9 -166 -9q-27 0 -52 1q-104 4 -190 28.5t-136 73.5 q-48 51 -48 120q0 26 7 55q3 5 11.5 28.5t29.5 53.5q19 25 53.5 48t91.5 28q22 5 49.5 2.5t40.5 -21.5q14 -16 15.5 -38t-11 -38.5t-38.5 -24.5q-11 -3 -24 -3q-18 0 -40 6q-22 5 -44 8q-19 3 -36.5 -2.5t-28.5 -19.5q-5 -8 -6.5 -13.5t-4.5 -10.5t-3 -11h-3q-5 -21 -5 -40 q0 -50 35 -86q38 -38 115 -60t180 -27q31 -2 63 -2q61 0 125 6q99 10 203 31q-5 8 -9.5 16.5t-9.5 16.5h-14q-251 30 -333 205q-22 52 -31 115q-6 33 -6 72q0 32 4 67q5 60 20.5 124t36.5 135q41 123 83.5 203.5t42.5 86.5h3q3 3 19 30t49 70.5t79.5 101t106.5 120.5 q-14 0 -25 -1.5t-24 -1.5q-3 0 -45.5 -4t-110.5 -13.5t-154 -28.5t-175 -49t-172 -72.5t-146 -99.5l16 5q-22 -14 -33 -34.5t-16 -41.5q-8 -25 -8 -50q-3 -41 -16.5 -68t-32.5 -39.5t-38.5 -11t-30.5 20.5q-11 14 -8 36zM1084 -37q3 -64 11 -105h24.5t24.5 3h-11 q33 3 101.5 20.5t158.5 72t196.5 158.5t218.5 276q101 156 142 270.5t54 190.5q5 41 5 76q0 41 -7 72v-3q-16 55 -63 101t-148 57h-27q-14 -3 -33 -5.5t-41 -7.5q-30 -8 -79 -34t-109 -82t-125.5 -152t-128.5 -243q-71 -164 -106.5 -289.5t-47.5 -218.5q-11 -75 -11 -131 q0 -14 1 -26zM1161 -257q112 -98 297 -123l28 -2q27 -3 61 -0.5t65.5 15t39.5 42.5q5 30 -11 44q-44 47 -202 52q-17 1 -35 1q-49 0 -102 -6q-70 -9 -141 -23zM1319 1210q328 38 502.5 109t182.5 139q3 30 -13 47q-14 14 -37 17.5t-48 3.5q-30 0 -57.5 -4t-40.5 -9 q-44 -8 -96 -25q-25 -8 -67.5 -26t-88.5 -48q-41 -30 -101 -77.5t-136 -126.5z" />
<glyph unicode="R" horiz-adv-x="1280" d="M55 623q0 25 16 35.5t36.5 9t44 -17.5t39.5 -47q5 -16 17 -30q8 -14 19 -30t27 -30q14 -8 24.5 -14.5t21.5 -12.5q96 188 261 426t436 511q14 14 27 5q11 -5 24.5 -17.5t19 -31.5t-1.5 -46.5t-37 -62.5q-79 -93 -166 -200q-74 -90 -162.5 -206t-176.5 -244l-2 -82v-30 q0 -14 1 -34.5t4 -44.5q45 -3 88 -3h43q63 2 120 8q158 25 273 107t194 169q90 104 153 224q85 191 86 303v6q0 107 -34 163q-41 68 -123 88l6 2q-60 15 -121 15q-191 0 -382 -151q-46 -38 -84.5 -76.5t-68.5 -73.5q-25 -35 -33 -69q-5 -16 -8 -35q-8 -35 -27 -56t-39.5 -29 t-38.5 0t-23 30q-5 19 0 39.5t16 37.5q11 19 30 38l25 25q11 11 22 21.5t24 19.5q30 38 74 81.5t98 90.5q131 106 268 142q76 20 150 20q97 0 191 -34q3 0 22 -9.5t46.5 -28.5t56 -52t50.5 -79q32 -72 32 -159q0 -122 -62 -273q-16 -35 -43.5 -85.5t-71 -106.5t-105 -115 t-143.5 -108q-145 -90 -328 -123q-55 -14 -110.5 -18t-115.5 -4h-49.5t-49.5 3q14 -74 44 -165.5t84.5 -174.5t142 -146t215.5 -79q19 -3 37 -4.5t37 -1.5q76 0 156 9q25 5 42.5 16t30.5 25q14 14 28 30q22 35 46.5 50t45 15t34 -13.5t13.5 -38.5q0 -19 -8 -32.5t-19 -27.5 q-38 -33 -87.5 -49t-71.5 -22q-96 -16 -191 -16h-22q-276 5 -448 185q-46 49 -80 106.5t-57.5 115t-38.5 113.5t-23 102q-3 5 -3 14h-11q-8 0 -49 11q-63 -106 -103.5 -206t-54.5 -182q-5 -25 -19 -23.5t-19 4.5v3q-30 14 -41 57q-3 8 -1.5 15t1.5 12q14 57 45 147.5 t89 213.5q-30 16 -63 38q-30 8 -58 27q-14 11 -30 22q-22 14 -38 30q-14 14 -26 30.5t-9 38.5zM412 445q5 -3 11 -3t11 -2q-3 11 -3 19t-2 16q-5 -8 -8.5 -15t-8.5 -15z" />
<glyph unicode="S" horiz-adv-x="2113" d="M137 1098q0 41 10.5 73.5t27 58.5t31.5 44t23 29q142 172 324 258t392 86q109 0 218 -20.5t215.5 -53.5t205 -74t188.5 -79l8 8l3 3q74 71 169.5 114.5t182.5 43.5q14 0 48 -4t71 -19t65.5 -43.5t28.5 -77.5q0 -16 -8 -50.5t-31 -68.5t-64 -61.5t-107 -27.5 q-63 0 -147.5 31.5t-185.5 74.5q-74 -106 -74 -213q0 -63 23.5 -121.5t57.5 -115.5t72 -116t68 -122h-2q30 -57 47.5 -114.5t17.5 -119.5q0 -109 -50.5 -222.5t-148.5 -204t-242 -146.5q-130 -51 -291 -51q-17 0 -35 1q-295 11 -450.5 138t-207.5 348q-16 73 -16 147 q0 47 6 97q18 124 78 231t162.5 184.5t247.5 105.5q5 3 12 2.5t10 -0.5q5 0 22.5 1.5t37 -1t37 -13.5t23.5 -30q5 -25 -15.5 -44t-50.5 -25q-10 -3 -20 -3q-21 0 -45 12q-16 8 -36 13q-16 5 -36.5 8t-42.5 -2q-90 -22 -161 -91.5t-113 -163.5q-42 -95 -56 -204 q-5 -39 -5 -77q0 -67 15 -131q22 -90 71.5 -170.5t124.5 -139t174.5 -93t222.5 -34.5q218 8 348 71t197 148t86 169.5t19 133.5q-3 106 -44 178.5t-90 143.5t-88.5 156t-39.5 216q0 93 38 170.5t71 124.5q-85 35 -176.5 73t-188.5 68.5t-199 52t-203 24.5 q-202 0 -360.5 -65.5t-295.5 -223.5h3q-22 -22 -33 -46.5t-16 -46.5q-8 -25 -8 -47q0 -60 -20.5 -91.5t-50.5 -31.5q-19 0 -34 16.5t-15 41.5zM1840 1390q96 -41 175 -69.5t134 -28.5q35 0 62.5 15t45.5 35.5t27.5 43.5t9.5 39q0 35 -19 57.5t-42.5 34.5t-45.5 16t-27 4 q-22 0 -43.5 -2.5t-43.5 -5.5q-38 -8 -104 -38t-129 -101z" />
<glyph unicode="T" horiz-adv-x="1130" d="M52 1283q-3 19 9.5 38.5t25.5 32.5q16 16 39 30q11 5 21 11q11 5 22 9.5t25 4.5h11q63 19 159.5 46.5t225.5 54.5q126 25 247 42.5t244 28.5q129 9 254 10q169 0 328 -18q52 -5 101 -12t98 -13q232 -27 442 -45q118 -10 223 -10q81 0 152 6q227 19 319 126q14 16 18 36.5 t4 39.5q0 22 -5 44q-10 29 -10 52q-1 9 1 17q6 28 21 43.5t35.5 15.5t36.5 -16q14 -14 18 -35.5t4 -41.5q0 -25 -5 -46v-3q0 -3 -1.5 -5.5t-1.5 -5.5q-33 -106 -117 -172q-96 -80 -244 -108q-136 -26 -298 -26h-29q-180 2 -385 27l-410 50q0 -8 1.5 -15t1.5 -15 q0 -5 -1.5 -12t-9.5 -18q-22 -30 -86 -113.5t-148.5 -201t-183 -260.5t-188.5 -293q-25 -41 -53.5 -89t-56 -96t-52 -94t-40.5 -82l-8 -16q-22 -49 -26 -84.5t23 -44.5q6 -2 13 -2q26 1 68 23q54 28 110 67q66 44 136 101q19 11 31 19q11 5 19 4t2 -15q-3 -11 -8 -22 t-14.5 -22t-23.5 -22t-55 -43.5t-91 -66.5q-52 -34 -106 -58q-50 -23 -89 -23h-6q-38 3 -61 25t-34 53q-10 28 -10 62v6q1 37 10 70q16 76 69 178.5t108 198.5q76 134 166.5 270.5t175 259t157 224t118.5 161.5q-116 9 -230 9q-97 0 -193 -6q-210 -14 -382 -36l-82 -17 q-128 -27 -224 -53t-156 -48q-16 -22 -24 -32q-5 -8 -9 -17q-16 -33 -39 -49t-43.5 -17.5t-37 9.5t-16.5 35z" />
<glyph unicode="U" horiz-adv-x="2266" d="M86 1270v5q0 55 18 123q38 134 144 197q80 45 170 47q22 1 41 0q63 0 106 -6q5 -3 13.5 -3t14.5 -3q22 -5 46.5 -14.5t34.5 -31.5q7 -14 7 -27q0 -25 -30 -39q-16 -8 -34 -8q-32 0 -71 25q-19 16 -41 27q-19 11 -43.5 18t-46.5 4l6 3q-38 -3 -75 -11.5t-70 -29.5 q-87 -46 -120 -162q-14 -59 -14 -110q0 -127 85 -212q22 -25 45 -41t45 -27t43 -19q63 -22 132 -22q132 0 286 79q104 55 206.5 132.5t192.5 151.5q68 57 133.5 108t124.5 86.5t112 51.5q31 9 61 9q21 0 41 -4q93 -22 120 -98q8 -26 8 -56q0 -82 -59 -195q-16 -35 -94 -176 t-250 -389q-101 -145 -165.5 -257t-84.5 -188q-8 -32 -9 -57q0 -35 17 -55q21 -25 70 -26q19 0 43 4q270 38 688 508q115 131 210.5 255t155.5 209q19 30 38.5 57t38.5 55v3q101 145 178.5 251t107.5 144q5 5 13.5 11t19.5 0q19 -5 43.5 -31t27.5 -81q0 -5 -1.5 -12 t-9.5 -18q-22 -30 -86 -113t-148.5 -200.5t-183 -259.5t-188.5 -292q-25 -41 -53.5 -89t-55.5 -97t-52 -95.5t-41 -81.5l-8 -17q-22 -49 -26 -84.5t23 -40.5q6 -2 14 -2q26 0 68 21q55 27 109 65q66 44 137 101q19 11 30 19q11 5 19 4t5 -15q-3 -11 -11 -21q-14 -22 -38 -44 q-14 -11 -54.5 -44t-91 -67t-105.5 -58q-49 -22 -87 -22h-9q-38 3 -61 24.5t-34 53.5q-10 28 -10 59q1 4 1 9q2 37 9 72q16 71 66.5 171t105.5 195q-16 -22 -25 -30q-112 -126 -214 -222.5t-198 -162.5q-202 -145 -358 -145q-14 0 -28.5 1.5t-28.5 4.5q-98 16 -128 98 q-8 26 -8 57q0 78 48 192q14 30 29 60t37 63q30 52 93 151.5t134 215.5t140.5 232t113.5 203q38 76 46 120q5 26 5 45q-1 13 -3 23q-6 24 -20.5 30t-25.5 6q-76 -3 -178.5 -76.5t-217.5 -166.5q-93 -76 -196.5 -155.5t-212.5 -136.5q-161 -85 -309 -85q-76 0 -150 25 q-5 3 -54.5 24.5t-101.5 76.5q-25 25 -48 60.5t-38 81.5t-16 104z" />
<glyph unicode="V" horiz-adv-x="1622" d="M90 1319q35 104 112 164t191 73q32 4 62 4h11q36 -1 66 -6q16 0 44 -6q22 -5 46.5 -14.5t35.5 -31.5q7 -14 7 -27q0 -25 -30 -39q-16 -8 -34 -8q-32 0 -71 25q-19 16 -41 27q-19 11 -42.5 18t-45.5 4h-2q-199 -25 -260 -202q-21 -64 -22 -120q0 -66 30 -123 q22 -46 56.5 -75t64.5 -51q35 -25 76 -38q65 -23 136 -23q132 0 282 80q104 55 206 133t195 151q68 57 132.5 108t122.5 86q58 36 112 52q32 9 62 9q21 0 41 -4q93 -19 120 -98q9 -26 9 -57q0 -80 -61 -194q-16 -35 -94 -176t-250 -389q-161 -229 -227 -378 q-33 -76 -33 -124q0 -46 31 -66q25 35 80.5 122.5t137.5 203.5t183 255.5t213 281.5q156 194 294 345.5t263 263.5q147 131 273 202q140 76 244 76h8h25.5t49 -7t61.5 -20.5t60 -40.5q35 -33 52 -79q5 -11 5 -19q8 -25 14 -50h-3q5 -22 5.5 -49t-16.5 -46 q-16 -19 -36.5 -20.5t-37 13.5t-24.5 43q-4 14 -4 30t4 35q5 25 6 52q-3 22 -11 43.5t-30 35.5q-38 19 -71 21.5t-44 2.5q-96 -3 -232.5 -98t-289.5 -242.5t-312.5 -330.5t-304 -363.5t-263.5 -337.5t-190 -255q-35 -55 -55.5 -86t-20.5 -34q-8 -11 -22 -11h-6 q-101 16 -131 98q-9 26 -9 58q0 78 53 191q14 30 29 60t34 63q30 52 92.5 151.5t135 215.5t142 232t113.5 203q35 76 45 120q6 26 6 45q0 13 -3 23q-7 24 -22 30t-26 6q-76 -3 -178.5 -76.5t-217.5 -166.5q-93 -76 -196.5 -155.5t-213.5 -136.5q-161 -85 -305 -85 q-79 0 -153 25q-5 0 -31.5 11t-62 34t-72 58.5t-64.5 87.5q-34 67 -34 145q0 67 26 142z" />
<glyph unicode="W" horiz-adv-x="2318" d="M93 1264q35 104 111.5 164t191.5 74q32 4 62 4h12q36 -1 65 -7q19 0 47 -5q22 -5 45 -15t37 -32q11 -22 2.5 -39.5t-27.5 -25.5t-47.5 -5.5t-59.5 21.5q-19 16 -40 27q-19 11 -41 18t-44 4h-6q-199 -25 -256 -202q-23 -66 -24 -124q0 -64 29 -119q22 -46 56 -75t64 -50 q35 -25 77 -39h3q64 -23 133 -23q131 0 282 81q104 55 206 132.5t195 151.5q68 57 132.5 107.5t123.5 86.5q58 36 112 52q32 10 62 9q20 0 40 -4q96 -19 123 -98q7 -23 6 -50q0 -82 -61 -202q-16 -35 -94 -175.5t-250 -389.5q-162 -232 -226 -380q-33 -75 -32 -121 q0 -46 31 -67q30 52 123 191.5t227 321.5q68 96 151.5 206.5t176 225.5t192.5 225.5t198 208.5q17 14 55 33q17 8 34 8q24 0 50 -14q11 -8 22 -19q19 -22 22 -63q0 -76 -60 -191q-16 -35 -94 -175.5t-250 -389.5q-158 -232 -224 -380q-34 -75 -34 -123q0 -45 31 -65 q22 35 78 122.5t138 203.5t183 255.5t213 281.5q156 194 295 345.5t262 263.5q147 131 273 202q137 76 251 76h3h23.5t49 -6.5t61 -20t60.5 -41.5q35 -33 52 -79q5 -11 5 -19q8 -25 14 -49q5 -22 3.5 -49.5t-17.5 -46.5q-14 -19 -34.5 -20.5t-36.5 13.5q-17 14 -25 42 q-4 14 -4 32q0 16 4 34q8 25 6 52q-3 22 -12.5 44t-31.5 35q-35 19 -68 22t-46 3q-96 -3 -232.5 -98.5t-289.5 -243t-312.5 -330.5t-304.5 -363t-263.5 -337t-189.5 -256q-35 -55 -56 -86t-21 -34q-8 -11 -22 -11h-5q-104 16 -129 99q-10 28 -10 62q0 77 51 186q14 30 29 60 t34 63q30 52 93 151.5t135.5 215.5t142 232t113.5 204q22 44 35 84q-147 -147 -298.5 -323t-287 -345.5t-246 -317t-178.5 -240.5q-35 -55 -56 -86t-21 -34q-8 -11 -22 -11h-5q-104 16 -128 99q-10 28 -10 62q0 77 51 186q14 30 28.5 60t33.5 63q30 52 93 151.5t135.5 215.5 t142 232t113.5 204q38 76 46 120q4 24 4 42q-1 15 -3 25q-6 23 -21 30t-26 7q-76 -3 -179 -76.5t-217 -166.5q-93 -76 -197 -155.5t-213 -136.5q-161 -85 -306 -85q-79 0 -153 24q-5 0 -31 11t-61.5 34.5t-72.5 59t-64 87.5q-34 67 -34 144q0 67 26 142z" />
<glyph unicode="X" horiz-adv-x="1925" d="M60 1349q25 167 227 221q41 14 79 18t65 4q14 3 53.5 0t58.5 -30q11 -19 5.5 -37t-24.5 -30t-46 -15t-60 11q-16 8 -36 16q-35 14 -79 14q0 -3 -3 -3q-164 -46 -185 -177q-1 -12 -2 -23q0 -48 29 -81q30 -35 80.5 -54.5t97 -29t82.5 -11.5l35 -1h3q25 -1 48 -1 q116 0 212 20q116 24 212 63t175 88t147 95q110 74 208 124q75 38 160 39q27 0 56 -4q76 -8 117 -74q46 -71 49 -183q1 -20 1 -39q0 -91 -12 -174q-3 -11 -3 -22t-2 -24q147 147 309.5 271.5t342.5 227.5q5 3 16.5 4.5t22.5 -4.5q22 -26 22 -62q0 -37 -14 -72 q-8 -14 -25 -24q-393 -224 -696 -560q-5 -52 -6.5 -97t-4.5 -75q-3 -82 -3 -166v-85q2 -128 17.5 -243t45.5 -203.5t85 -129.5q14 -14 35.5 -26.5t51.5 -17.5h-3q25 -5 47 4.5t38 25.5q19 16 35 44q22 35 48 50t48 14t35.5 -15t10.5 -38q-5 -22 -23 -44t-39 -36 q-5 -5 -12 -7.5t-13 -8.5q-63 -49 -136 -49q-38 0 -68.5 11t-53.5 26t-38 27t-18 15q-126 112 -158 442q-5 82 -8 176q-1 35 -1 73q0 62 3 128q3 30 3 56t3 54q-19 -22 -37 -46.5t-37 -46.5q-66 -90 -126 -186t-106 -197q-3 -5 -4.5 -9t-3.5 -10q-11 -25 -20.5 -56t-1.5 -58 q5 -14 5 -41.5t-19 -32.5q-22 -5 -35.5 8.5t-27.5 29.5q-22 35 -23 79v10q0 39 7 78q25 109 86 212.5t124 199.5q106 153 230 284q3 63 4 130t4 146q0 68 -20.5 122.5t-53.5 88.5t-75 48q-23 7 -47 8q-19 0 -39 -5q-55 -22 -109.5 -54.5t-117.5 -73.5q-71 -49 -153 -100 t-181.5 -92t-221.5 -65q-98 -20 -213 -20q-28 0 -58 1q-5 0 -45 2.5t-93 13.5t-107.5 34.5t-90.5 63.5q-44 48 -44 113q0 17 3 35z" />
<glyph unicode="Y" horiz-adv-x="2356" d="M82 -119q11 97 57 193q46 98 124 176t177 127q147 68 308 68h14q180 -3 385 -95q3 8 8 19q14 30 29 60t34 63q30 52 93 151.5t134 215.5t140.5 232t112.5 203q38 76 46 120q6 27 6 46q0 12 -2 22q-6 23 -21 29.5t-26 6.5q-76 -3 -178.5 -76.5t-217.5 -166.5 q-93 -76 -196.5 -155.5t-212.5 -136.5q-161 -85 -309 -85q-76 0 -150 25q-5 3 -38 15t-76.5 38t-89 67t-75.5 98q-35 67 -35 143q0 60 22 125q71 213 333 235q29 3 56 3q22 0 42 -2q47 -4 79 -9q3 0 4.5 -1.5t6.5 -1.5q8 0 17 -3h2q5 -3 13.5 -3t14.5 -5h5l6 -3 q38 -14 49 -41q11 -22 2.5 -38t-29 -24.5t-49 -5.5t-55.5 25q-16 16 -36 27q-16 11 -36.5 19t-42.5 11q-14 -3 -23.5 -3h-22.5q-227 -22 -284 -196q-19 -58 -19 -111q0 -62 27 -116q27 -52 68 -87.5t80.5 -58.5t69.5 -34l30 -11q65 -23 136 -23q131 0 282 80 q104 55 206.5 132.5t192.5 151.5q68 57 133.5 108t124.5 86.5t112 51.5q31 9 61 9q21 0 41 -4q93 -22 120 -98q9 -26 9 -57q0 -80 -61 -194q-16 -35 -94 -176t-250 -389q-74 -106 -128.5 -195t-86.5 -160q126 -71 248 -170q227 115 527 454q115 131 210.5 255t155.5 209 q19 30 38 57t39 55v3q101 145 178.5 251t107.5 144q5 5 13.5 11t19.5 0q19 -5 43.5 -31t27.5 -81q0 -5 -1.5 -12t-9.5 -18q-22 -30 -86 -113t-148.5 -200.5t-181.5 -259.5t-187 -292q-25 -41 -53.5 -89t-57.5 -97t-53.5 -95.5t-40.5 -81.5l-8 -17q-22 -49 -26 -84.5 t23 -40.5q6 -2 14 -2q25 0 67 21q55 27 110 65q66 44 137 101q19 11 30 19q11 5 19 4t5 -15q-3 -11 -11 -21q-14 -22 -38 -44q-14 -11 -55 -44t-91.5 -67t-105.5 -58q-48 -22 -86 -22h-9q-33 3 -53 19t-34 41q-19 -30 -41 -61.5t-44 -61.5q-14 -19 -26 -37t-26 -34 q183 -197 369 -459q3 -3 3 -4t2 -4l17 -27q11 -25 16 -47q5 -19 4 -39.5t-12 -36.5q-14 -19 -33 -23t-35.5 6.5t-28.5 37.5q-10 24 -10 58v11q0 19 -2 41q-5 44 -28 85q-11 11 -13 16l-8 8l2 -3q-139 188 -278 336q-172 -213 -347 -346q-284 -213 -568 -219q-3 0 -8.5 -1.5 t-13.5 -1.5q-38 0 -117 8.5t-175 38.5q-147 46 -248 131q-131 109 -181 273q-19 62 -19 129q0 27 3 55zM138 -123q-3 -26 -3 -52q0 -58 15 -112q87 -276 393 -368q76 -25 142 -33t107 -8q109 0 206 32.5t185.5 87t169.5 128.5t157 156q41 46 80.5 93.5t77.5 102.5 q-87 87 -177 162q-104 -49 -194 -50q-14 0 -27.5 1.5t-27.5 4.5q-101 16 -131 98q-10 27 -10 60q0 52 24 120q-109 49 -204.5 69.5t-175.5 20.5q-87 0 -158 -19t-126 -43q-87 -46 -158 -117.5t-115 -161.5q-41 -85 -50 -172zM1218 105q18 -34 78 -34q19 0 42 3q25 5 51 10.5 t56 19.5q-55 41 -108.5 76.5t-107.5 65.5q-21 -57 -21 -96q0 -27 10 -45zM1546 90q38 -30 77.5 -65.5t77.5 -73.5q60 85 115 171t101 163.5t83 143t59 109.5q-109 -123 -210 -217t-191 -160q-30 -22 -57.5 -38.5t-54.5 -32.5z" />
<glyph unicode="Z" horiz-adv-x="1354" d="M79.5 1300q5.5 19 26.5 35q16 14 38.5 15.5t43.5 -4.5q25 -5 47 -13q3 0 8 -3q11 -5 19 -8q3 -3 5.5 -4.5t5.5 -4.5q3 0 22 -16t49 -46q35 -27 79 -52q43 -25 105 -40q56 -14 133 -14q8 1 15 1q86 2 206 25q257 52 450.5 122t316.5 127q139 63 216 110.5t85 56.5 q19 19 38 0q3 -3 8 -14q22 -19 22 -56q0 -36 -63 -97q-115 -101 -246 -213q-112 -96 -251 -223t-281 -266q76 -22 106 -57q11 -15 14 -43v-7q0 -26 -19 -62q-3 -5 -31.5 -32.5t-91.5 -27.5h-25q-25 5 -24 30q5 30 30 24q12 -1 22 -1q34 0 50 14q20 18 24 20q14 27 11 38 t-6 14q-5 8 -27 22t-82 22q-101 -101 -196.5 -202t-176.5 -195.5t-141 -179t-90 -150.5q90 -8 173.5 -54.5t170.5 -106.5q68 -46 147.5 -95t174.5 -87q96 -40 214 -64q98 -20 214 -20q24 0 48 1q25 0 52 3q52 5 112 25q153 55 158 177v8q0 60 -41 101q-49 46 -123 63 q-25 5 -49.5 1.5t-45.5 -9.5q-25 -8 -44 -19q-33 -14 -60.5 -12.5t-46.5 14t-25.5 31.5t6.5 38q19 27 59 30t59 0q27 0 68 -4t83.5 -13.5t84.5 -29t72 -49.5q58 -58 58 -140v-13q-3 -158 -197 -226q-66 -22 -120.5 -26t-59.5 -4h-41q-142 0 -257 26t-209 65.5t-173 87 t-148 94.5q-98 68 -182 113q-76 41 -162 41q-9 0 -19 -1q-25 -8 -35 -8q3 -5 -15 5.5t-24 54.5q0 8 3 13.5t3 10.5q19 38 68 108t124 162.5t173.5 204.5t213.5 235q-85 0 -150.5 -6.5t-68.5 -6.5q-25 -5 -30 21q-5 30 25 30q3 3 69.5 10t154.5 7h52q158 167 338 340t377 337 q-19 -8 -38 -17.5l-41 -20.5q-126 -57 -324 -128.5t-457 -125.5q-126 -27 -229 -27q-131 0 -210.5 35.5t-134.5 73.5v2q-16 11 -21 14q-19 11 -37 15t-34 7q-19 3 -36 0q-15 -2 -28 -2q-25 1 -41 7q-26 10 -37 24.5t-5.5 33.5z" />
<glyph unicode="_" horiz-adv-x="1706" d="M146 -189.5q-1 17.5 10 34t34 28.5t69 15h1229h3q8 0 17.5 -4t12.5 -15q3 -14 4 -31.5t-9.5 -34t-34 -29t-69.5 -14.5h-85t-176 -1.5t-235 -1.5h-262h-255t-216 3h-3q-8 0 -17.5 4t-12.5 15q-3 14 -4 31.5z" />
<glyph unicode="`" horiz-adv-x="352" d="M49 1046q0 35 52 35q25 0 37 -8t25.5 -27t36 -46.5t68.5 -65.5q8 -8 21.5 -15t24.5 -12.5t16.5 -8t-0.5 -5.5q-30 -8 -60 3t-60 19q-3 0 -27.5 11t-54.5 28.5t-54.5 41t-24.5 50.5z" />
<glyph unicode="a" d="M-22 126q0 57 34 147t130 229q117 167 244 256t217 89q63 0 94.5 -37t31.5 -100q0 -74 -38 -183h8q8 -3 19 -5q5 -5 12 -9.5t7 -18.5q0 -11 -32.5 -57.5t-72 -107.5t-72.5 -126.5t-33 -112.5q0 -38 36 -38q30 0 83 28.5t105 64.5q60 41 126 95q8 5 19 11q8 5 15 9.5 t12 4.5q8 0 8 -8l3 -6q0 -8 -9.5 -24.5t-39.5 -43.5q-14 -11 -53.5 -42.5t-88.5 -64t-102.5 -58.5t-94.5 -26q-63 0 -89 45t-26 102q1 47 17 93q-35 -38 -80.5 -79t-94.5 -78t-97 -60t-91 -23q-22 0 -41 8t-33 25q-14 14 -23.5 38t-9.5 63zM85 93q0 -19 16 -19q22 0 69.5 27 t105 69.5t119 94.5t110.5 101q14 22 26 45t29 48q8 14 19 24q11 11 27.5 22t43.5 17q5 30 10.5 65.5t5.5 65.5q0 35 -12 59.5t-45 24.5q-35 0 -80.5 -27t-92 -71t-91.5 -96t-80 -101t-68 -101t-57.5 -99.5t-39.5 -87t-15 -61.5z" />
<glyph unicode="b" horiz-adv-x="712" d="M-49 63q0 22 3 27q16 74 64 206.5t144.5 307t251 386t389.5 446.5q14 14 27 6q11 -5 24.5 -17.5t20.5 -31.5t-1 -46.5t-38 -63.5q-87 -101 -178 -213q-79 -96 -174.5 -221t-183.5 -259q44 49 89 97t90 84.5t86 57t74 20.5q65 -5 83 -55q9 -27 10 -59q0 -27 -7 -59 q-15 -70 -49 -146.5t-70 -133.5q-5 -11 -12 -19t-12 -19q19 0 75 34t118.5 77.5t118.5 87.5t81 63q16 11 30 19q11 5 20 4t4 -15q-3 -11 -10 -22q-14 -22 -39 -43q-41 -33 -97 -77t-120 -86t-128 -77.5t-119 -52.5q-41 -52 -87.5 -101t-95.5 -87t-101 -60q-46 -19 -89 -19 h-12q-25 0 -38 11q-14 8 -22 24.5t-3 46.5q14 63 77 108t188 77q3 0 11 3q5 3 12 4.5t18 6.5q19 27 41 58.5t44 69.5q87 134 121 218q21 52 21 79q0 17 -8 26q-76 -35 -159 -99q-71 -55 -154 -142t-163 -218q-33 -71 -56 -135.5t-31 -118.5q-5 -22 -17.5 -22t-17.5 5h-3 q-30 14 -41 58zM153 115q0 -8 8 -11q5 -3 17.5 1t34.5 18t45 33t53 52q-5 -3 -13 -3q-41 -14 -71 -28q-27 -14 -50.5 -28.5t-23.5 -33.5z" />
<glyph unicode="c" horiz-adv-x="622" d="M3 106q-7 25 -7 59q0 37 8 83q15 90 100 233q79 131 169 221q35 38 77.5 72t87.5 54.5t90 24.5q7 1 14 1q38 0 75 -18q19 -11 33 -30q14 -16 20 -42q4 -18 5 -42q0 -11 -1 -23q-5 -33 -19 -63q-14 -25 -35.5 -46.5t-59.5 -26.5q-22 -3 -31.5 2.5t-12.5 7.5q-19 19 -22 44 q3 14 14 19.5t19 10.5q22 5 49 24.5t30 65.5q-41 0 -98 -30q-49 -30 -123 -94t-175 -195q-55 -76 -87 -145q-29 -57 -39 -111q-2 -11 -3 -20q0 -38 31 -55q21 -11 53 -12q21 -1 47 5q64 12 141.5 50.5t161 100t159.5 143.5q25 27 47 52t38 46q19 25 36 47l24 24 q8 8 16.5 9.5t8.5 -14.5q0 -11 -3 -22q-3 -19 -27 -52q-11 -14 -42.5 -56t-72.5 -89q-112 -115 -224 -191q-49 -33 -101 -63t-105 -47.5t-103 -19.5q-6 0 -12 -1q-44 0 -83 17q-52 30 -68 92z" />
<glyph unicode="d" d="M-19 90q-3 14 -3 31q0 47 22 121q30 100 142 260q68 98 142 169.5t143.5 113.5t129.5 56q25 6 48 6q31 0 56 -11q52 -19 65 -88q98 156 233.5 329.5t321.5 358.5q14 14 30 6q11 -5 23 -17.5t19 -31.5t-1.5 -46.5t-38.5 -63.5q-101 -115 -202 -243q-87 -109 -189.5 -245.5 t-189.5 -281.5q-55 -87 -101.5 -170.5t-76.5 -162.5q-14 -33 -19 -60q-5 -22 -4 -41t21 -24q6 -2 14 -2q25 0 66 21q53 27 108 65q63 44 137 101q16 11 30 19q11 5 20.5 4t3.5 -15q-3 -11 -11 -21q-14 -22 -38 -44q-14 -11 -53.5 -44t-91.5 -67t-105 -58q-47 -22 -85 -22h-9 q-41 3 -64 27.5t-34 60.5q-9 29 -9 61q1 7 1 15q2 41 16 76q-41 -41 -93 -88.5t-106.5 -84.5t-108.5 -56q-29 -10 -54 -10q-22 0 -42 7q-52 27 -63 90zM90 76q4 -4 12 -4q20 0 64 26q60 36 137 93h3q11 8 22 16.5t22 19.5q49 41 92.5 92.5t77.5 99.5t58.5 86t35.5 58 q3 5 4.5 6.5t4.5 6.5q5 5 6.5 13.5t6.5 13.5q25 44 25 70t-3 32q-8 22 -30 30q-10 3 -21 3q-27 0 -59 -17q-46 -25 -96.5 -68.5t-99.5 -101t-87 -109.5q-41 -55 -76.5 -114.5t-61.5 -111.5t-37 -90.5t0 -49.5z" />
<glyph unicode="e" horiz-adv-x="603" d="M0 106q-7 25 -7 59q0 37 8 83q15 90 103 233q79 128 169 218q35 38 77.5 72.5t87.5 55t90 24.5q8 1 16 0q37 0 73 -15q30 -16 44 -47q12 -22 12 -55q0 -6 -1 -14q-3 -42 -33 -108q-30 -63 -87 -110q-48 -38 -132 -68q-61 -22 -145 -22q-31 0 -65 3l-2 -5 q-57 -76 -88 -142q-30 -55 -38 -107q-1 -9 -2 -17q0 -39 32 -57q21 -11 53 -12q21 -1 47 5q64 12 141.5 50.5t161 100t159.5 143.5q22 27 44 52t38 46q19 25 36 47l24 24q11 8 19.5 9.5t8.5 -14.5l-6 -22q-5 -11 -9 -24.5t-15 -27.5q-14 -14 -44 -56t-71 -89 q-115 -115 -227 -191q-49 -33 -101 -63t-103.5 -47.5t-103.5 -19.5q-6 0 -12 -1q-45 0 -84 17q-52 30 -68 92zM248 461q46 3 104 14t108.5 39.5t88.5 79t46 132.5h-7q-33 0 -77 -24q-44 -22 -109.5 -78t-153.5 -163z" />
<glyph unicode="f" horiz-adv-x="584" d="M-153 -167q0 55 20.5 120.5t47.5 122.5q30 68 71 134q46 87 105 187t133 212q-16 30 -23 61.5t-7 61.5q0 63 28.5 90t61.5 27q49 0 62.5 -9.5t24.5 -14.5q106 147 233.5 300t282.5 314q5 5 17 6q11 0 34 -20.5t23 -50.5q0 -41 -41 -91q-66 -74 -139 -163 q-63 -76 -146 -179t-171 -220q22 -52 22 -128q0 -22 -1.5 -40t-3.5 -40q45 -11 94 -11q16 0 31 2q66 4 123 31q5 3 16 10t22 13.5t22 8t17 -6.5q11 -16 -16.5 -39.5t-44.5 -34.5q-63 -38 -143 -44q-23 -1 -43 -1q-52 0 -89 10q-16 -79 -42.5 -151.5t-50.5 -130.5 q-30 -68 -60 -125q-57 -106 -110.5 -170.5t-100 -98.5t-83.5 -46.5t-64 -12.5q-25 0 -41 5q-9 3 -14 6q-57 27 -57 106zM-52 -177q0 -30 19 -39q63 11 123 71t107 131q52 82 101 183q19 35 38 85q35 85 68 218q-27 8 -47.5 19t-39.5 22l-17 -24q-101 -145 -177 -276 q-33 -55 -64.5 -112t-56 -110.5t-39.5 -97t-15 -70.5zM257 718q0 -14 2.5 -24.5t5.5 -21.5l74 106q-14 11 -33 11t-30 -16q-19 -27 -19 -55zM355 568q33 -19 63 -30v33q0 22 -1.5 41t-4.5 38z" />
<glyph unicode="g" horiz-adv-x="879" d="M-968 -329q4 23 20 34q27 16 48 6.5t37 -30t30 -46.5t25 -45q16 -33 58.5 -53t94.5 -32.5t107.5 -18t99.5 -5.5q139 0 266 69.5t235 176t197 229.5t154 230q-35 -33 -76 -68.5t-82 -63t-83.5 -45t-77.5 -17.5q-22 0 -41 8t-33 25q-14 14 -23.5 38t-9.5 63q0 57 34 147 t130 229q117 167 244 256t217 89q63 0 94.5 -37t31.5 -100q0 -74 -38 -183h8q8 -3 19 -5q5 -5 12 -9.5t7 -18.5q0 -19 -24 -54q-14 -19 -45.5 -60t-63 -91.5t-54.5 -104t-23 -94.5q0 -38 36 -38q30 0 83 28.5t105 64.5q60 41 126 95q8 5 19 11q8 5 15 9.5t12 4.5q8 0 8 -8 q3 3 1.5 -15t-47.5 -59q-16 -14 -56 -45.5t-90.5 -64t-105 -57t-95.5 -24.5q-52 3 -79 46q-68 -101 -161 -209t-206.5 -196.5t-247 -146t-281.5 -57.5q-115 0 -236.5 33t-224.5 104q-11 5 -22 16q-11 8 -22 19t-16 25q-14 22 -10 45zM85 93q0 -12 5 -17q3 -3 11 -2 q22 0 69.5 27t105 69.5t119 94.5t110.5 101q14 22 26 45t29 48q8 14 19 24q11 11 27.5 22t43.5 17q5 30 10.5 64t5.5 64q0 38 -12 62.5t-45 24.5q-49 0 -106.5 -39.5t-115 -101t-112 -136.5t-96.5 -147.5t-68 -131t-26 -88.5z" />
<glyph unicode="h" horiz-adv-x="819" d="M-45.5 78q1.5 7 1.5 9q16 74 64 206.5t143.5 307.5t251.5 386.5t388 446.5q19 13 35 8q11 -8 25 -20.5t18 -31.5t-3 -45t-37 -62q-82 -93 -169 -199q-74 -90 -162.5 -207.5t-176.5 -245.5q66 66 138 124.5t141 80.5q40 13 72 13q20 0 38 -5q44 -14 62 -54q12 -25 12 -58 q0 -19 -4 -41q-11 -60 -60 -134q-8 -14 -24.5 -39.5t-35.5 -56t-39.5 -63t-37.5 -57.5q-5 -8 -17.5 -25.5t-20.5 -31.5q-14 -27 -29 -53t-23 -51q-16 -33 -24 -60q-5 -22 -6 -41t17 -24q6 -2 14 -2q26 0 68 21q54 27 109 65q66 44 136 101q19 11 30 19q11 5 19.5 4t5.5 -15 q-3 -11 -11 -21q-14 -22 -38 -44q-14 -11 -55 -44t-91.5 -67t-104.5 -58q-49 -22 -87 -22h-9q-38 3 -58 23q-22 19 -30 51q-7 27 -7 57q1 5 1 11q2 36 9 71q14 55 51 128.5t78 144.5t77.5 125.5t47.5 70.5q19 30 14 47q-3 8 -11 14q-16 11 -46.5 0t-60.5 -28 q-33 -19 -71 -46q-74 -49 -131 -105t-102 -111t-76.5 -105.5t-53.5 -91.5q-30 -63 -49 -120t-26 -106q-5 -25 -18 -22t-19 5q-30 14 -41 61q-3 5 -1.5 12z" />
<glyph unicode="i" horiz-adv-x="415" d="M-20 132q2 36 9 70q8 44 34 100t59 114.5t67 112t59 91.5q11 16 20.5 32.5t19.5 30.5q25 38 49.5 73.5t52.5 73.5l2 3q5 5 13.5 12t19.5 2t27.5 -13.5t24.5 -26.5t5.5 -44t-27.5 -67q-22 -35 -35.5 -57t-21.5 -36q-3 -5 -8 -10t-24.5 -37t-47 -73t-56 -87t-50.5 -82v-3 l-11 -19q-19 -30 -34 -57t-26 -55q-16 -33 -25 -60q-5 -22 -5 -41t16 -24q6 -2 14 -2q26 0 68 21q55 27 110 65q66 44 136 101q16 11 30 19q11 5 20.5 4t4.5 -15q-3 -11 -11 -21q-14 -22 -38 -44q-14 -11 -55 -44t-91.5 -67t-104.5 -58q-48 -22 -85 -22h-9q-38 3 -58 23 q-20 21 -30 51q-8 26 -9 57q1 4 1 9zM441 873.5q-1 16.5 0 34.5t5.5 31.5t4.5 18.5t2 6q8 25 19 46q11 19 23.5 34t34.5 21q25 5 39.5 -7t19 -34t-4 -49t-35.5 -52q-8 -8 -19 -16l-16.5 -16.5t-16.5 -19.5q-25 -27 -38 -22h-6q-11 8 -12 24.5z" />
<glyph unicode="j" horiz-adv-x="428" d="M-1553.5 -101q-0.5 22 13.5 38q14 19 33 20.5t35.5 -11t28.5 -38t9 -61.5q-3 -25 -2 -49q0 -22 1 -44t12 -35q25 -35 66 -75t102.5 -74t146 -58.5t199.5 -30.5h22q111 0 214 45q113 51 214 134t187 188.5t156 207.5t119 191t79 141q35 66 72 127t67 105q11 16 20.5 32.5 t20.5 30.5q25 38 49.5 73.5t51.5 73.5l3 3q5 5 13.5 12t19.5 2t27 -13.5t24.5 -26.5t5.5 -44t-27 -67q-22 -35 -35.5 -57t-22.5 -36q-3 -5 -8 -10t-24.5 -37t-46.5 -73t-55.5 -87t-50.5 -82v-3l-11 -19q-19 -30 -34 -57t-26 -55q-16 -33 -25 -60q-5 -22 -5 -41t16 -24 q6 -2 14 -2q26 0 68 21q55 27 109 65q66 44 137 101q16 11 30 19q11 5 20.5 4t3.5 -15q-3 -11 -11 -21q-14 -22 -38 -44q-14 -11 -54.5 -44t-91 -67t-105.5 -58q-49 -22 -87 -22h-9q-27 3 -44.5 15t-28.5 31q-74 -104 -171 -214.5t-213 -200.5t-252 -146q-120 -49 -250 -49 q-18 0 -37 1q-57 3 -143.5 21t-176.5 61.5t-172 117t-131 185.5q-11 22 -16 44q-5 19 -5.5 41zM454.5 873.5q-1.5 16.5 0 34.5t5.5 31.5t4 18.5t3 6q8 25 19 46q11 19 23 34.5t34 20.5q25 5 40 -7t19 -34t-5.5 -49t-33.5 -52q-8 -8 -20 -16q-8 -8 -16 -16.5t-16 -19.5 q-25 -27 -39 -22h-5q-11 8 -12.5 24.5z" />
<glyph unicode="k" horiz-adv-x="816" d="M-46 66q-5 16 0 21q16 74 64 206.5t143.5 307.5t251 386.5t387.5 446.5q17 11 36 8q11 -8 23 -20.5t17.5 -31.5t-2.5 -45t-36 -62q-82 -93 -169 -199q-74 -93 -164 -210.5t-177 -248.5q66 68 139.5 128.5t141.5 82.5q39 12 71 12q11 0 22 -2q41 -6 65.5 -28.5t32.5 -62.5 q3 -13 3 -28q0 -29 -11 -61v-2v-6q-30 -87 -120 -147t-191 -101q-57 -25 -114.5 -41.5t-107.5 -29.5q19 -96 52 -152t71 -86t69.5 -38t45.5 -11h3q30 0 84.5 30t106.5 65q60 41 125 93q19 11 31 19q11 5 19 4t5 -15q-3 -11 -11 -21q-14 -22 -38 -44q-14 -11 -49.5 -39.5 t-83 -60t-98 -59t-91.5 -29.5q-19 -5 -38.5 -4t-32.5 4q-79 8 -132.5 50t-86.5 92.5t-48 100t-20 73.5q-33 -55 -46 -87q-49 -109 -66 -202q-5 -25 -17.5 -22t-17.5 5q-14 5 -25 20.5t-16 40.5zM188 380q186 71 281.5 132t136.5 108q22 25 33 42.5t16 31.5q3 14 3 21 q-3 5 -3 8t-2 6l-6 6q-16 11 -46 0t-60 -28q-33 -19 -71 -46q-96 -66 -165.5 -139.5t-116.5 -141.5z" />
<glyph unicode="l" horiz-adv-x="395" d="M-30 90q-1 7 -1 14q1 28 11 62q12 42 17 63q19 55 48 123.5t67 147.5q46 96 123 224q19 27 36.5 55.5t39.5 58.5q90 137 211.5 284.5t280.5 311.5q5 5 13.5 9t19.5 -1q11 -8 24.5 -20.5t19 -31.5t-3 -45t-35.5 -62q-74 -85 -153 -180q-68 -85 -152.5 -192.5 t-169.5 -230.5q-68 -98 -131 -199t-109 -197q-33 -71 -58 -131l-8 -25q-8 -25 -9.5 -46.5t17.5 -26.5q6 -2 14 -2q26 0 68 21q55 27 109 65q66 44 137 101q19 11 30 19q11 5 19 4t6 -15q-3 -11 -11 -21q-14 -22 -39 -44q-14 -11 -54.5 -44t-90.5 -67q-52 -34 -106 -58 q-49 -22 -86 -22h-9q-25 3 -44 13q-22 14 -31.5 37.5t-9.5 47.5z" />
<glyph unicode="m" horiz-adv-x="1193" d="M-44 68q-3 11 0 25q19 82 75 235t179 357q14 22 29 46.5t31 49.5q8 14 16.5 26t16.5 26q3 0 3 3l5 5q11 16 28 11q11 -5 27 -13.5t25.5 -26t8.5 -45t-23 -68.5q-38 -60 -58 -96q-14 -22 -27 -41t-27 -38q79 104 161 194t150 118q42 16 76 16q19 0 35 -5q45 -13 63 -53 q10 -23 10 -55q0 -21 -5 -47q-12 -62 -61 -135q-3 -3 -9 -14q-5 -5 -6.5 -9t-6.5 -10q79 104 161 194t150 118q42 16 76 16q19 0 35 -5q44 -13 62 -53q11 -24 11 -57q0 -21 -4 -45q-11 -62 -57 -135q-8 -14 -24.5 -39.5t-37 -56t-41 -63t-36.5 -57.5q-5 -8 -17.5 -25.5 t-18.5 -31.5q-35 -57 -54 -104q-14 -33 -22 -60q-5 -22 -6.5 -41t17.5 -24q6 -2 14 -2q25 0 66 21q53 27 108 65q63 44 137 101q16 11 30 19q11 5 20.5 4t3.5 -15q-3 -11 -11 -21q-14 -22 -38 -44q-14 -11 -53.5 -44t-91.5 -67t-105 -58q-47 -22 -85 -22h-9q-38 3 -58 23 q-20 19 -30 51q-8 25 -8 53v15q2 36 11 71q11 55 48 128.5t78 144.5t78 125.5t48 70.5q19 27 13 47q-3 11 -8 14q-22 19 -54.5 2.5t-62.5 -41.5q-35 -30 -74 -73q-180 -205 -265 -340.5t-107 -184.5q-14 -41 -16 -76q-5 -25 -19 -22t-19 5q-14 5 -26 23t-18 40q-3 11 0 25 q19 79 71 222.5t167 339.5l2 6q3 5 6 8t5 8q0 3 3 6q14 25 8 38q-3 8 -8 14q-22 19 -54.5 2.5t-62.5 -41.5q-35 -30 -74 -73q-180 -205 -265 -340.5t-106 -184.5q-14 -41 -17 -76q-5 -25 -19 -22t-19 5q-14 5 -26 23t-18 40z" />
<glyph unicode="n" horiz-adv-x="824" d="M-41 68q-3 11 0 25q19 82 75 235t179 357q14 22 29 46.5t31 49.5q8 14 16.5 26t16.5 26q3 0 3 3l5 5q11 16 27 11q11 -5 27.5 -13.5t26 -26t8 -45t-22.5 -68.5q-38 -60 -58 -96q-19 -27 -36.5 -54t-34.5 -55q44 55 93 109.5t97 102.5t93 82t83 48q42 16 76 16q19 0 35 -5 q44 -13 62 -53q11 -24 11 -57q0 -21 -4 -45q-11 -62 -57 -135q-8 -14 -24.5 -39.5t-37 -56t-41 -63t-36.5 -57.5q-5 -8 -17.5 -25.5t-18.5 -31.5q-35 -57 -54 -104q-14 -33 -22 -60q-5 -22 -6.5 -41t17.5 -24q6 -2 14 -2q26 0 66 21q54 27 108 65q63 44 137 101q16 11 30 19 q11 5 20.5 4t3.5 -15q-3 -11 -11 -21q-14 -22 -38 -44q-14 -11 -53.5 -44t-91 -67t-105.5 -58q-48 -22 -85 -22h-9q-38 3 -58 23q-20 19 -30 51q-9 28 -9 61v7q1 36 10 71q14 55 50.5 128.5t77.5 144.5t78 125.5t48 70.5q19 27 13 47q-3 11 -8 14q-19 16 -53 1t-67 -40 q-41 -30 -85 -68q-188 -180 -272.5 -308.5t-109.5 -180.5q-22 -66 -30 -117q-5 -25 -19 -22t-19 5q-14 5 -26 23t-18 40z" />
<glyph unicode="o" horiz-adv-x="761" d="M-5 169q0 82 31 176.5t88.5 180.5t139.5 155.5t183 99.5q14 41 35.5 56t51.5 15q52 0 90.5 -24.5t61.5 -63t34 -86t11 -91.5v-35.5t-3 -35.5q0 -8 22 -11t52 -1.5t58.5 3t36.5 1.5q30 0 31 -25q0 -19 -22 -24q-38 -11 -89 -13h-16q-42 0 -81 7q-30 -57 -73.5 -137.5 t-109.5 -151.5q-67 -72 -155 -122q-84 -48 -192 -47h-13q-35 0 -67 8t-55 27t-36.5 52t-13.5 87zM82 145q0 -46 31.5 -60t69.5 -14h24.5t21.5 3t22 5q137 41 239.5 140.5t148.5 241.5v11q-87 33 -131 77t-63 93q-57 -27 -121.5 -86t-117.5 -130t-88.5 -146t-35.5 -135z M494 718q0 -44 19 -76q11 -16 22 -33q41 -49 118 -79v13q-1 8 2 11q0 104 -35.5 169.5t-76.5 65.5q-27 0 -38 -24.5t-11 -46.5z" />
<glyph unicode="p" horiz-adv-x="767" d="M-251 -486q8 76 36.5 197.5t99.5 289.5t197 381t330 473q14 14 28 8q11 -5 26 -16t23 -29t4 -46.5t-29 -66.5q-3 -3 -8 -11q-5 -5 -12 -13.5t-13 -19.5q76 79 150 135q70 53 123 53h6q66 -5 82 -55q9 -26 9 -59q0 -28 -7 -59q-13 -70 -47 -146.5t-70 -133.5 q-11 -16 -27 -38q30 14 58.5 24.5t50.5 24.5q16 11 19 14q30 19 57.5 38t49.5 35q25 19 46 36q19 11 30 19q11 5 19.5 4t5.5 -15q-3 -11 -11 -22q-14 -22 -38 -44q-14 -11 -45.5 -35.5t-72.5 -54.5q-14 -8 -33 -20t-43 -26q-25 -14 -63 -30.5t-93 -35.5q-41 -52 -87.5 -101 t-95.5 -87t-101 -60q-46 -19 -89 -19h-12q-25 0 -38 11q-14 8 -22 24.5t-3 46.5q14 63 75.5 108t186.5 77l41 14q22 27 42.5 58.5t45.5 69.5q85 134 120 218q22 52 22 80q0 17 -8 25q-71 -33 -145 -85q-63 -46 -142 -120t-156 -180q-66 -104 -132.5 -220t-121 -235 t-93 -232.5t-41.5 -205.5q-3 -25 -16.5 -25t-18.5 3q-14 5 -26 19t-20 35q-3 8 -3 15v10zM224 115q0 -8 8 -11q5 -3 17.5 1t34.5 18t45 33t51 52q-3 -3 -11 -3q-41 -14 -71 -28q-27 -14 -50.5 -28.5t-23.5 -33.5z" />
<glyph unicode="q" horiz-adv-x="882" d="M-16 90q-3 14 -3 31q0 48 22 121q30 99 142 260q68 98 140.5 169.5t142 113.5t130.5 56q27 6 50 6q31 0 56 -11q63 -25 67 -107v-15q0 -78 -37 -187h5q19 0 30 -11q8 -8 8 -26t-22 -50q-25 -33 -65.5 -94.5t-73.5 -123t-45 -110.5q-3 -13 -3 -23q0 -28 24 -34q6 -2 14 -2 q25 0 68 21q54 27 109 65q65 44 136 101q16 11 30 19q11 5 20.5 4t4.5 -15q-3 -11 -11 -21q-14 -22 -38 -44q-14 -11 -55 -44t-91.5 -67t-104.5 -58q-49 -22 -87 -22h-9q-46 5 -71 38q-79 -156 -136.5 -304.5t-62.5 -268.5q-3 -25 -16.5 -25t-19.5 3q-14 5 -26 19t-20 35 q-5 8 -4 15t1 10q11 96 54.5 263.5t169.5 410.5q-41 -41 -87.5 -80.5t-94.5 -68t-94 -41.5q-22 -5 -42 -5q-22 0 -43 7q-52 27 -62 90zM93 76q11 -11 57.5 14t107.5 67t128 98t122 111q11 22 24.5 45t30.5 48q8 14 19 24q11 11 26 22t42 17q5 30 12 64t7 64t-8 53t-30 32 q-10 3 -21 3q-26 0 -58 -17q-47 -25 -97.5 -68.5t-99.5 -101t-87 -109.5q-41 -55 -76.5 -114.5t-61.5 -111.5t-37 -90.5t0 -49.5z" />
<glyph unicode="r" horiz-adv-x="699" d="M-44 68q-3 11 0 25q22 82 78 235t179 357q14 22 29 46.5t31 49.5q8 14 16.5 26t16.5 26l3 3q0 5 2 5q14 14 28 11q11 -5 27 -13.5t25.5 -26t8.5 -45t-23 -68.5q-35 -60 -58 -96q-19 -27 -36.5 -54t-34.5 -55q44 55 93 109.5t97 102.5t93 82t83 48q52 20 89 20 q55 0 75 -45q9 -20 9 -45q0 -68 -66 -176q-8 -16 -24.5 -37t-33 -41t-31.5 -38t-20 -23q-14 -16 -31.5 -34t-39.5 -18q-25 -3 -37 10.5t-13.5 35.5t12 46.5t43.5 46.5q19 14 36 25q14 11 28.5 24.5t23.5 26.5q5 16 9 31.5t7 28.5q5 19 5 31.5v18.5v11q-19 16 -53 1t-67 -40 q-41 -30 -84 -68q-188 -180 -273 -308.5t-110 -180.5q-22 -66 -30 -117q-5 -25 -19 -22.5t-19 5.5q-30 16 -44 63z" />
<glyph unicode="s" horiz-adv-x="472" d="M-216 71q3 19 18 47.5t58.5 61.5t121.5 70t206 69q3 14 6 27.5t5 27.5q5 19 7 35.5t4 30.5q3 14 3 24v14v30t-1 31l-2 15v16q0 45 14 111q16 78 50.5 150.5t87.5 125.5t127 53q25 0 51 -15q19 -11 19 -44q0 -10 -2 -23q-5 -35 -27 -74.5t-50.5 -80.5t-61.5 -79.5 t-60 -65.5q0 -14 -1.5 -23.5t-3 -27t-2.5 -45t-4 -71.5v-30q0 -14 -1.5 -31.5t-4.5 -39.5q60 22 127 42.5t127 48.5l66 24q19 8 19 2.5t-12.5 -17.5t-28.5 -25.5t-25 -19.5q-22 -11 -58.5 -26t-77.5 -30t-80.5 -28.5t-67.5 -21.5q0 -3 -13.5 -57.5t-54.5 -120t-116 -119 t-201 -53.5q-25 0 -54.5 5.5t-55.5 19t-42.5 34t-8.5 53.5zM-161 66q-5 -16 25 -34t84 -18q5 0 13.5 1t13.5 1q-3 0 13.5 9.5t41.5 27.5t49.5 42.5t40.5 54.5q19 27 31.5 56t20.5 59q-11 0 -60 -13.5t-106.5 -41t-106.5 -64.5t-60 -80zM366 737q55 68 78 106.5t28 57.5 q5 22 -3 24.5t-13 2.5q-30 -3 -50.5 -42t-31.5 -86q-5 -19 -5 -34t-3 -29z" />
<glyph unicode="t" horiz-adv-x="393" d="M-33 90q-1 7 -1 14q0 28 10 62q12 42 19 63q19 55 47.5 123.5t66.5 147.5q27 52 57.5 106.5t65.5 117.5q19 27 37 55.5t40 58.5q46 71 99 142t116 150q-188 -16 -311 -32.5t-126 -18.5h-5q-22 0 -27 24q-5 25 21 30l40 5q40 6 106.5 14.5t157 18t193.5 17.5 q52 60 108 121.5t119 124.5q5 5 13.5 9t22.5 -1q11 -8 23 -20.5t17.5 -31.5t-2.5 -45t-36 -62q-11 -14 -22 -24q-11 -14 -23 -27.5t-28 -35.5q44 3 87.5 3h89.5h139q71 0 116 5.5t62 10.5q14 5 24.5 8t21.5 9l22 10q33 14 61.5 12t47.5 -15t23.5 -32t-9.5 -38 q-22 -27 -60 -30t-55 -3q-27 3 -50 4t-43 1h-43h-89t-82 1.5t-61.5 1.5h-27.5h-112t-112 -3q-71 -85 -163.5 -205t-188.5 -256q-68 -98 -131 -199t-109 -197q-33 -71 -57 -131l-9 -25q-5 -25 -8 -46.5t17 -26.5q6 -2 14 -2q26 0 68 21q54 27 109 65q65 44 136 101 q19 11 30 19q11 5 19.5 4t5.5 -15q-3 -11 -11 -21q-14 -22 -38 -44q-14 -11 -55 -44t-91.5 -67t-104.5 -58q-49 -22 -87 -22h-9q-25 3 -44 13q-22 14 -30 37.5t-11 47.5z" />
<glyph unicode="u" horiz-adv-x="821" d="M-6 196q6 44 17 81t19 53q30 76 72.5 164t105.5 191q14 22 28.5 46.5t31.5 49.5q8 14 16 26t16 26l3 3q0 3 3 5q14 14 27 11q11 -5 27.5 -13.5t26 -26t8 -45t-23.5 -68.5q-35 -60 -57 -96q-55 -82 -105.5 -165t-88.5 -162q-33 -68 -35.5 -106.5t8.5 -60.5q11 -25 35 -33 h5q25 0 63 28q42 30 88 79t94 109t91.5 120t78 110.5t53.5 80.5q5 11 11 17q3 3 2.5 5.5t2.5 5.5h3q8 14 16 26t17 26q22 38 47.5 73.5t53.5 73.5l2 3q5 5 13.5 12t19.5 2t26 -13.5t24.5 -26.5t7 -44t-27.5 -67q-22 -35 -35.5 -57t-21.5 -36q-3 -5 -8 -10t-24.5 -37t-47 -73 t-56 -87t-50.5 -82v-3l-13 -19q-16 -30 -31.5 -57t-26.5 -55q-16 -33 -24 -60q-5 -22 -6 -41t17 -24q6 -2 14 -2q26 0 68 21q54 27 109 65q65 44 136 101q19 11 30 19q11 5 19.5 4t5.5 -15q-3 -11 -11 -21q-14 -22 -38 -44q-14 -11 -55 -44t-91.5 -67t-104.5 -58 q-49 -22 -87 -22h-9q-35 3 -56 23q-20 21 -30 51q-8 26 -9 57q1 5 1 9q2 36 9 70q3 5 3 12t3 13q-38 -46 -76.5 -88.5t-75.5 -74t-73 -49.5q-30 -15 -56 -15h-9q-49 3 -74 33q-30 30 -38 75q-5 27 -5 53q0 17 2 35z" />
<glyph unicode="v" horiz-adv-x="674" d="M-7 196q4 44 15 81t19 53h3q57 156 175 355q14 22 30 46.5t30 49.5q8 14 16 26t17 26q3 0 2 3q5 5 6 5q11 16 27 11q11 -5 27.5 -13.5t26 -26t8 -45t-23.5 -68.5q-38 -60 -57 -96q-55 -82 -105.5 -165t-88.5 -162q-33 -68 -35.5 -106.5t5.5 -60.5q11 -25 36 -33h4 q34 0 84 42q54 46 112.5 114t116 144.5t98.5 139.5q-61 30 -69 92q-2 14 -1 27q0 50 23 105q26 57 72 90q30 21 58 21q17 0 34 -7q33 -14 41 -46q5 -19 5 -39q0 -14 -2 -30q-6 -38 -19.5 -75t-24.5 -64q-5 -14 -9.5 -22t-6.5 -14q0 -3 2 -2q16 -5 37 -7t43 -4h46h36 q5 0 17.5 1t23 0t16 -6.5t-2.5 -16.5q-22 -16 -42.5 -21.5t-44.5 -8.5q-33 -5 -63 0h-8q-22 3 -45 4t-48 7q-41 -63 -102.5 -149t-131 -165.5t-140.5 -133.5q-67 -52 -120 -52h-6q-52 3 -76 33q-30 30 -37 75q-4 29 -4 57q0 15 1 31zM540 621q2 -34 31 -53q8 14 23 45 t27.5 65.5t16.5 66t-7 41.5q-19 16 -48 -23t-40 -86q-5 -22 -3 -56z" />
<glyph unicode="w" horiz-adv-x="1018" d="M-12 138q2 42 8.5 80.5t16 68.5t14.5 43q30 76 74 164t104 191q14 22 28.5 46.5t31.5 49.5q8 14 16 26t17 26l2 3q0 3 3 5q14 14 30 11q11 -5 27.5 -13.5t26 -26t6.5 -45t-24 -68.5q-35 -60 -58 -96q-55 -82 -104 -165t-87 -162q-33 -68 -43.5 -106.5t-8.5 -60.5 q3 -25 17 -33h5q24 0 56 24q36 26 79 68t88 95.5t86 110.5q38 55 79 117.5t65 109.5q14 22 25 42.5t25 41.5q14 22 28.5 46.5t31.5 49.5q8 14 16 26t16 26l3 3q0 3 3 5q14 14 30 11q11 -5 27.5 -13.5t26 -26t6.5 -45t-25 -68.5q-35 -60 -57 -96q-55 -82 -104 -165t-87 -162 q-33 -68 -44 -106.5t-8 -60.5q3 -25 16 -33h4q34 0 84 42q54 46 113 114t116.5 144.5t97.5 139.5q-60 30 -68 92q-2 13 -2 26q0 50 24 106q25 57 71 90q29 21 59 21q17 0 34 -7q33 -14 41 -46q5 -21 5 -44q0 -12 -1 -25q-4 -38 -19 -75t-26 -64q-5 -14 -9.5 -22t-6.5 -14 q0 -3 2 -2q16 -5 37 -7l42 -4h47h38q5 0 17.5 1t22 0t15 -6.5t-2.5 -16.5q-22 -16 -42.5 -21.5t-42.5 -8.5q-18 -2 -34 -2.5t-31 2.5h-8q-22 3 -45.5 4t-45.5 7q-41 -60 -103.5 -147.5t-132 -167t-139.5 -133.5q-66 -52 -121 -52h-6q-35 3 -50.5 24.5t-20.5 35.5 q-11 35 -11 73q0 12 2 25q4 52 14 96q-41 -49 -83 -97t-84.5 -83.5t-82.5 -55.5q-34 -18 -63 -18h-9q-35 3 -50 24.5t-21 35.5q-10 31 -10 67q1 6 1 11zM886 621q1 -34 32 -53q8 14 23 45t27 65.5t16.5 66t-6.5 41.5q-19 16 -48 -23.5t-40 -85.5q-5 -22 -4 -56z" />
<glyph unicode="x" horiz-adv-x="688" d="M-77.5 29.5q1.5 16.5 3.5 30.5q3 14 6 30q0 3 2 6q0 5 1.5 9l4.5 12q8 27 19 53.5t27 53.5q52 93 151 183q38 38 76 68t68 52q22 68 58 150q11 25 20.5 49.5t22.5 49.5q5 14 11 24.5t11 24.5q0 3 1.5 2.5t1.5 2.5l3 6q14 14 27 8q14 -5 30 -13.5t28.5 -26.5t16.5 -45 q1 -5 1 -11q0 -24 -13 -57q-3 -5 -4.5 -9.5t-3.5 -9.5q57 38 113 73.5t113 68.5l44 22q27 12 50 12q13 0 26 -4q28 -12 28 -36q0 -9 -4 -20q-14 -40 -76 -53q-14 0 -19 -3h-24.5t-32.5 -6q-8 -3 -16 -2q-11 -5 -26 -9.5t-32 -12.5q-46 -30 -92.5 -61.5t-92.5 -64.5 q-71 -142 -118 -281q-3 -5 -5.5 -20.5t-8.5 -28.5q-8 -38 -8 -93q3 -11 3 -19t3 -17q5 -19 14.5 -36.5t23.5 -25.5h5q6 -2 13 -2q25 -1 63 19q50 26 105 62q30 19 54.5 39.5t46.5 34.5q25 16 46 32q19 11 30 19q11 5 19 4t3 -15q-3 -11 -11 -21q-14 -22 -35 -44 q-14 -8 -42.5 -32.5t-68.5 -52t-85 -55t-86 -40.5q-5 -3 -18.5 -5.5t-35.5 -0.5h-17q-16 0 -32 8t-28 20q-35 30 -50 75q-15 44 -18 88q-1 19 -1 37q0 23 2 45q4 38 10 55q5 27 12 54.5t18 57.5q-55 -41 -111 -97t-97 -122q-5 -11 -11 -24q-5 -14 -7.5 -29t-2.5 -37 q0 -11 2.5 -21.5t5.5 -21.5t5 -25q8 -35 2 -62.5t-23 -44t-37.5 -16.5t-36.5 17q-11 16 -17 38v5q-5 16 -3.5 32.5z" />
<glyph unicode="y" horiz-adv-x="819" d="M-1161.5 -101q-1.5 22 11.5 38q17 22 38 22q15 0 33 -13q37 -25 37 -84q0 -7 -1 -15q-3 -25 -3 -49q0 -22 1.5 -44t12.5 -35q25 -35 65.5 -75t103.5 -74t147.5 -58.5t199.5 -30.5h20q126 0 241 57q124 63 232 161.5t196.5 218.5t156.5 227q-57 -63 -116 -105 q-54 -40 -99 -40h-6q-49 3 -74 33q-30 30 -38 75q-5 27 -5 53q0 18 2 35q6 44 17 81t19 53q30 76 72.5 164t105.5 191q14 22 28.5 46.5t31.5 49.5q8 14 16 26t16 26l3 3q0 3 3 5q14 14 27 11q11 -5 27.5 -13.5t26 -26t8 -45t-23.5 -68.5q-35 -60 -57 -96 q-55 -82 -105.5 -165t-88.5 -162q-33 -68 -35.5 -106.5t8.5 -60.5q11 -25 35 -33h5q26 0 63 28q42 30 88 79t94 109t91.5 120t78 110.5t53.5 80.5q5 11 11 17q3 3 2.5 5.5t2.5 5.5h3q8 14 16 26t17 26q22 38 47.5 73.5t53.5 73.5l2 3q5 5 13.5 12t19.5 2t26 -13.5 t24.5 -26.5t7 -44t-27.5 -67q-22 -35 -35.5 -57t-21.5 -36q-3 -5 -8 -10t-24.5 -37t-47 -73t-56 -87t-50.5 -82v-3l-13 -19q-5 -8 -9.5 -17.5t-10.5 -17.5q-14 -22 -23 -40t-15 -37q-16 -33 -24 -60q-5 -22 -5.5 -41t16.5 -24q6 -2 14 -2q25 0 68 21q54 27 109 65 q66 44 136 101q19 11 30 19q11 5 19.5 4t5.5 -15q-3 -11 -11 -21q-14 -22 -38 -44q-14 -11 -55 -44t-91.5 -67t-104.5 -58q-49 -22 -87 -22h-9q-27 3 -45 15t-29 31q-74 -104 -170.5 -214.5t-213 -200.5t-251.5 -146q-118 -49 -248 -49q-18 0 -37 1q-60 3 -146 21t-176 61.5 t-171 117t-130 185.5q-11 22 -16 44q-5 19 -6.5 41z" />
<glyph unicode="z" horiz-adv-x="644" d="M-333 19q0 14 19 25q38 16 87.5 39t84.5 45q68 44 136.5 108t130 140.5t113 164t90.5 174.5q-52 25 -71 71q-16 38 -16 78q0 8 1 16q4 48 24.5 88t47.5 53q25 11 47 11q31 0 55 -22q42 -38 45 -114q3 -22 -3.5 -51t-17.5 -59l2 3q14 5 26.5 11t17.5 8q14 8 29 15t28 13 q44 16 77 16q19 0 35 -5q44 -13 55 -53q4 -13 4 -29q0 -31 -15 -73q-22 -62 -82 -135q-11 -14 -31.5 -39.5t-46.5 -56t-53 -63t-46 -57.5q-5 -8 -20.5 -25.5t-26.5 -31.5q-44 -57 -71 -104q-25 -33 -35 -60q-11 -22 -14 -41t14 -24q6 -2 13 -2q24 0 70 21q58 27 122 65 q71 44 155 101q19 11 33 19q14 5 20.5 4t1.5 -15q-5 -11 -14 -21q-19 -22 -46 -44q-16 -11 -60 -42.5t-98.5 -64t-112 -58.5t-98.5 -26q3 -32 4 -65q1 -75 -17 -153q-24 -114 -75 -200q-51 -84 -119 -128q-37 -23 -75 -24q-33 0 -67 18q-48 24 -48 90q0 68 34 162 q33 90 90 192t117 198q-16 0 -21 3t-9 5q-22 14 -27 31.5t-2.5 32.5t9.5 26t12 17q14 19 33 21.5t33 -2.5q22 -3 43 -25q38 60 71 105t52 73q35 49 73.5 99.5t71.5 92.5t59 72.5t37 40.5q14 14 16.5 26.5t2.5 20.5q0 11 -6 14q-7 7 -20 7q-18 0 -48 -13q-3 0 -8.5 -2.5 t-10.5 -5.5q-22 -14 -41 -18t-33 -4q-5 -14 -12 -23.5t-12 -22.5q-14 -30 -32 -61.5t-34 -61.5q-79 -137 -189.5 -264t-296.5 -220q-30 -16 -74 -34q-30 -12 -53 -12q-11 0 -20 3q-22 8 -14 16zM-27 -524q74 19 121.5 83t75.5 142q27 77 35 155q6 56 6 97q0 15 -1 28 q-3 11 -2.5 19t-2.5 19q-104 -161 -152 -265t-67 -166q-15 -51 -15 -87q0 -14 2 -25zM112 150q-14 -16 8 -27q8 -5 17.5 3t15.5 11v2q-27 36 -41 11zM311 852q5 -30 16 -45t25 -23q22 63 22 107v11q-3 46 -30 35t-33 -47q-3 -16 0 -38z" />
<glyph unicode="&#xa8;" horiz-adv-x="374" d="M35 1029q8 35 26 57.5t40 29t39.5 0t26.5 -31.5q5 -22 -2 -41t-18 -35q-11 -19 -30 -39q-33 -22 -63 -18t-19 78zM213 964q8 35 26 57t39.5 29t39.5 0t26 -31q5 -22 -1.5 -41.5t-17.5 -35.5q-11 -19 -30 -38q-33 -22 -63 -18t-19 78z" />
<glyph unicode="&#xad;" horiz-adv-x="849" d="M146 342.5q-1 17.5 10 34t34 29t69 12.5l421 -8h3q8 0 17.5 -4.5t12.5 -15.5q3 -14 4 -31.5t-10 -33.5t-34 -28.5t-70 -12.5h-38h-54.5t-113.5 1.5t-214 6.5h-3q-8 0 -17.5 4t-12.5 15q-3 14 -4 31.5z" />
<glyph unicode="&#xb4;" horiz-adv-x="300" d="M5 1051q0 5 5.5 2.5t15 -10.5t22 -16t26.5 -11q55 -22 90 -27.5t57 -8t35.5 -8t27.5 -27.5q11 -19 9.5 -37t-14.5 -26q-25 -14 -56.5 -4.5t-61.5 27.5t-52 34.5t-24 18.5q-22 22 -46.5 42.5t-33.5 50.5z" />
<glyph unicode="&#xc0;" horiz-adv-x="2624" d="M55 661q0 246 101 428.5t251 304.5t322 183t314 61q120 0 254 -32.5t247.5 -106.5t187 -194t73.5 -295q0 -30 -7 -94t-23 -129.5t-45 -114.5t-72 -49q-22 0 -34.5 16t-12.5 38q0 44 44 85q19 14 33 30q14 14 26 31.5t20 39.5q16 74 16 147q0 120 -38 209t-99.5 153 t-138 105t-155.5 64.5t-153 33t-126 9.5q-142 0 -304.5 -63t-300 -180.5t-229 -286.5t-91.5 -382q0 -167 42 -285.5t107.5 -200.5t147.5 -131.5t162.5 -75t150.5 -34t113 -8.5q142 0 288 56t289.5 150.5t283 218.5t270.5 258q-63 0 -71 1.5t-11 22.5v16.5t12 8.5t41 4t83 4 q57 60 112 117.5t104 112.5q164 180 302 307t241.5 204.5t170.5 113t92 35.5q19 0 49 -24.5t33 -87.5q0 -8 -56 -81.5t-145 -194t-198 -280t-219 -339.5q-38 -63 -80 -134t-76.5 -138t-57.5 -120t-23 -78q0 -38 35 -38q30 0 85 28.5t107 64.5q60 41 125 95q5 5 17 11 q5 5 14.5 9.5t15.5 4.5q8 0 8 -11q0 -5 -7 -23t-42 -48q-14 -11 -52 -42.5t-89 -64t-104 -58.5t-94 -26q-63 0 -89 45t-26 100q0 35 16.5 91t45 120t67 134t79.5 132q-90 5 -179 7t-157 2q-137 -142 -284 -276t-301.5 -238t-311.5 -166.5t-313 -62.5q-172 0 -316.5 53 t-248.5 154t-161 246t-57 328zM2100 677q68 0 151.5 -1.5t162.5 -6.5q60 101 127 203.5t132.5 196.5t124 179t107.5 150q-87 -52 -230.5 -155.5t-296.5 -264.5q-14 -14 -26 -27.5t-23 -24.5h3q-14 -14 -26 -27.5t-26 -27.5q-44 -46 -89 -94t-91 -100zM2982 1772q0 35 52 35 q25 0 37 -8t25.5 -27t36 -46.5t68.5 -65.5q8 -8 21.5 -15t24.5 -12.5t16.5 -8t-0.5 -5.5q-30 -8 -60 3t-60 19q-3 0 -27.5 11t-54.5 28.5t-54.5 41t-24.5 50.5z" />
<glyph unicode="&#xc1;" horiz-adv-x="2624" d="M55 661q0 246 101 428.5t251 304.5t322 183t314 61q120 0 254 -32.5t247.5 -106.5t187 -194t73.5 -295q0 -30 -7 -94t-23 -129.5t-45 -114.5t-72 -49q-22 0 -34.5 16t-12.5 38q0 44 44 85q19 14 33 30q14 14 26 31.5t20 39.5q16 74 16 147q0 120 -38 209t-99.5 153 t-138 105t-155.5 64.5t-153 33t-126 9.5q-142 0 -304.5 -63t-300 -180.5t-229 -286.5t-91.5 -382q0 -167 42 -285.5t107.5 -200.5t147.5 -131.5t162.5 -75t150.5 -34t113 -8.5q142 0 288 56t289.5 150.5t283 218.5t270.5 258q-63 0 -71 1.5t-11 22.5v16.5t12 8.5t41 4t83 4 q57 60 112 117.5t104 112.5q164 180 302 307t241.5 204.5t170.5 113t92 35.5q19 0 49 -24.5t33 -87.5q0 -8 -56 -81.5t-145 -194t-198 -280t-219 -339.5q-38 -63 -80 -134t-76.5 -138t-57.5 -120t-23 -78q0 -38 35 -38q30 0 85 28.5t107 64.5q60 41 125 95q5 5 17 11 q5 5 14.5 9.5t15.5 4.5q8 0 8 -11q0 -5 -7 -23t-42 -48q-14 -11 -52 -42.5t-89 -64t-104 -58.5t-94 -26q-63 0 -89 45t-26 100q0 35 16.5 91t45 120t67 134t79.5 132q-90 5 -179 7t-157 2q-137 -142 -284 -276t-301.5 -238t-311.5 -166.5t-313 -62.5q-172 0 -316.5 53 t-248.5 154t-161 246t-57 328zM2100 677q68 0 151.5 -1.5t162.5 -6.5q60 101 127 203.5t132.5 196.5t124 179t107.5 150q-87 -52 -230.5 -155.5t-296.5 -264.5q-14 -14 -26 -27.5t-23 -24.5h3q-14 -14 -26 -27.5t-26 -27.5q-44 -46 -89 -94t-91 -100zM3001 1772q0 5 5.5 2.5 t15 -10.5t22 -16t26.5 -11q55 -22 90 -27.5t57 -8t35.5 -8t27.5 -27.5q11 -19 9.5 -37t-14.5 -26q-25 -14 -56.5 -4.5t-61.5 27.5t-52 34.5t-24 18.5q-22 22 -46.5 42.5t-33.5 50.5z" />
<glyph unicode="&#xc2;" horiz-adv-x="2624" d="M55 661q0 246 101 428.5t251 304.5t322 183t314 61q120 0 254 -32.5t247.5 -106.5t187 -194t73.5 -295q0 -30 -7 -94t-23 -129.5t-45 -114.5t-72 -49q-22 0 -34.5 16t-12.5 38q0 44 44 85q19 14 33 30q14 14 26 31.5t20 39.5q16 74 16 147q0 120 -38 209t-99.5 153 t-138 105t-155.5 64.5t-153 33t-126 9.5q-142 0 -304.5 -63t-300 -180.5t-229 -286.5t-91.5 -382q0 -167 42 -285.5t107.5 -200.5t147.5 -131.5t162.5 -75t150.5 -34t113 -8.5q142 0 288 56t289.5 150.5t283 218.5t270.5 258q-63 0 -71 1.5t-11 22.5v16.5t12 8.5t41 4t83 4 q57 60 112 117.5t104 112.5q164 180 302 307t241.5 204.5t170.5 113t92 35.5q19 0 49 -24.5t33 -87.5q0 -8 -56 -81.5t-145 -194t-198 -280t-219 -339.5q-38 -63 -80 -134t-76.5 -138t-57.5 -120t-23 -78q0 -38 35 -38q30 0 85 28.5t107 64.5q60 41 125 95q5 5 17 11 q5 5 14.5 9.5t15.5 4.5q8 0 8 -11q0 -5 -7 -23t-42 -48q-14 -11 -52 -42.5t-89 -64t-104 -58.5t-94 -26q-63 0 -89 45t-26 100q0 35 16.5 91t45 120t67 134t79.5 132q-90 5 -179 7t-157 2q-137 -142 -284 -276t-301.5 -238t-311.5 -166.5t-313 -62.5q-172 0 -316.5 53 t-248.5 154t-161 246t-57 328zM2100 677q68 0 151.5 -1.5t162.5 -6.5q60 101 127 203.5t132.5 196.5t124 179t107.5 150q-87 -52 -230.5 -155.5t-296.5 -264.5q-14 -14 -26 -27.5t-23 -24.5h3q-14 -14 -26 -27.5t-26 -27.5q-44 -46 -89 -94t-91 -100zM2906 1663q-8 5 16.5 5 t43.5 14q52 27 78 47.5t42 34.5q11 11 25 11q5 3 24 -3l8 -6q5 -5 9 -5q5 -5 5 -8t3 -3q8 -14 8 -22q5 -16 13.5 -46t35.5 -82q5 -22 27 -41t11 -19q-25 3 -46.5 23t-43.5 37q-3 0 -22 19t-38 44q-33 -14 -64 -16.5t-37 -2.5q-22 3 -49 1.5t-49 17.5z" />
<glyph unicode="&#xc3;" horiz-adv-x="2624" d="M55 661q0 246 101 428.5t251 304.5t322 183t314 61q120 0 254 -32.5t247.5 -106.5t187 -194t73.5 -295q0 -30 -7 -94t-23 -129.5t-45 -114.5t-72 -49q-22 0 -34.5 16t-12.5 38q0 44 44 85q19 14 33 30q14 14 26 31.5t20 39.5q16 74 16 147q0 120 -38 209t-99.5 153 t-138 105t-155.5 64.5t-153 33t-126 9.5q-142 0 -304.5 -63t-300 -180.5t-229 -286.5t-91.5 -382q0 -167 42 -285.5t107.5 -200.5t147.5 -131.5t162.5 -75t150.5 -34t113 -8.5q142 0 288 56t289.5 150.5t283 218.5t270.5 258q-63 0 -71 1.5t-11 22.5v16.5t12 8.5t41 4t83 4 q57 60 112 117.5t104 112.5q164 180 302 307t241.5 204.5t170.5 113t92 35.5q19 0 49 -24.5t33 -87.5q0 -8 -56 -81.5t-145 -194t-198 -280t-219 -339.5q-38 -63 -80 -134t-76.5 -138t-57.5 -120t-23 -78q0 -38 35 -38q30 0 85 28.5t107 64.5q60 41 125 95q5 5 17 11 q5 5 14.5 9.5t15.5 4.5q8 0 8 -11q0 -5 -7 -23t-42 -48q-14 -11 -52 -42.5t-89 -64t-104 -58.5t-94 -26q-63 0 -89 45t-26 100q0 35 16.5 91t45 120t67 134t79.5 132q-90 5 -179 7t-157 2q-137 -142 -284 -276t-301.5 -238t-311.5 -166.5t-313 -62.5q-172 0 -316.5 53 t-248.5 154t-161 246t-57 328zM2100 677q68 0 151.5 -1.5t162.5 -6.5q60 101 127 203.5t132.5 196.5t124 179t107.5 150q-87 -52 -230.5 -155.5t-296.5 -264.5q-14 -14 -26 -27.5t-23 -24.5h3q-14 -14 -26 -27.5t-26 -27.5q-44 -46 -89 -94t-91 -100zM2971 1693 q11 30 38.5 45t60 15t65.5 -12.5t57 -36.5q8 -8 12.5 -17.5t12.5 -19.5t21.5 -23.5t43.5 -32.5q19 -19 42.5 -22t15.5 -11q-19 -16 -45 -12t-51 10q-3 0 -35.5 6.5t-68.5 44.5q-16 14 -32.5 38.5t-76.5 27.5q-22 5 -42.5 -4.5t-17.5 4.5z" />
<glyph unicode="&#xc4;" horiz-adv-x="2624" d="M55 661q0 246 101 428.5t251 304.5t322 183t314 61q120 0 254 -32.5t247.5 -106.5t187 -194t73.5 -295q0 -30 -7 -94t-23 -129.5t-45 -114.5t-72 -49q-22 0 -34.5 16t-12.5 38q0 44 44 85q19 14 33 30q14 14 26 31.5t20 39.5q16 74 16 147q0 120 -38 209t-99.5 153 t-138 105t-155.5 64.5t-153 33t-126 9.5q-142 0 -304.5 -63t-300 -180.5t-229 -286.5t-91.5 -382q0 -167 42 -285.5t107.5 -200.5t147.5 -131.5t162.5 -75t150.5 -34t113 -8.5q142 0 288 56t289.5 150.5t283 218.5t270.5 258q-63 0 -71 1.5t-11 22.5v16.5t12 8.5t41 4t83 4 q57 60 112 117.5t104 112.5q164 180 302 307t241.5 204.5t170.5 113t92 35.5q19 0 49 -24.5t33 -87.5q0 -8 -56 -81.5t-145 -194t-198 -280t-219 -339.5q-38 -63 -80 -134t-76.5 -138t-57.5 -120t-23 -78q0 -38 35 -38q30 0 85 28.5t107 64.5q60 41 125 95q5 5 17 11 q5 5 14.5 9.5t15.5 4.5q8 0 8 -11q0 -5 -7 -23t-42 -48q-14 -11 -52 -42.5t-89 -64t-104 -58.5t-94 -26q-63 0 -89 45t-26 100q0 35 16.5 91t45 120t67 134t79.5 132q-90 5 -179 7t-157 2q-137 -142 -284 -276t-301.5 -238t-311.5 -166.5t-313 -62.5q-172 0 -316.5 53 t-248.5 154t-161 246t-57 328zM2100 677q68 0 151.5 -1.5t162.5 -6.5q60 101 127 203.5t132.5 196.5t124 179t107.5 150q-87 -52 -230.5 -155.5t-296.5 -264.5q-14 -14 -26 -27.5t-23 -24.5h3q-14 -14 -26 -27.5t-26 -27.5q-44 -46 -89 -94t-91 -100zM3020 1717 q8 35 26 57.5t40 29t39.5 0t26.5 -31.5q5 -22 -2 -41t-18 -35q-11 -19 -30 -39q-33 -22 -63 -18t-19 78zM3198 1652q8 35 26 57t39.5 29t39.5 0t26 -31q5 -22 -1.5 -41.5t-17.5 -35.5q-11 -19 -30 -38q-33 -22 -63 -18t-19 78z" />
<glyph unicode="&#xc5;" horiz-adv-x="2624" d="M55 661q0 246 101 428.5t251 304.5t322 183t314 61q120 0 254 -32.5t247.5 -106.5t187 -194t73.5 -295q0 -30 -7 -94t-23 -129.5t-45 -114.5t-72 -49q-22 0 -34.5 16t-12.5 38q0 44 44 85q19 14 33 30q14 14 26 31.5t20 39.5q16 74 16 147q0 120 -38 209t-99.5 153 t-138 105t-155.5 64.5t-153 33t-126 9.5q-142 0 -304.5 -63t-300 -180.5t-229 -286.5t-91.5 -382q0 -167 42 -285.5t107.5 -200.5t147.5 -131.5t162.5 -75t150.5 -34t113 -8.5q142 0 288 56t289.5 150.5t283 218.5t270.5 258q-63 0 -71 1.5t-11 22.5v16.5t12 8.5t41 4t83 4 q57 60 112 117.5t104 112.5q164 180 302 307t241.5 204.5t170.5 113t92 35.5q19 0 49 -24.5t33 -87.5q0 -8 -56 -81.5t-145 -194t-198 -280t-219 -339.5q-38 -63 -80 -134t-76.5 -138t-57.5 -120t-23 -78q0 -38 35 -38q30 0 85 28.5t107 64.5q60 41 125 95q5 5 17 11 q5 5 14.5 9.5t15.5 4.5q8 0 8 -11q0 -5 -7 -23t-42 -48q-14 -11 -52 -42.5t-89 -64t-104 -58.5t-94 -26q-63 0 -89 45t-26 100q0 35 16.5 91t45 120t67 134t79.5 132q-90 5 -179 7t-157 2q-137 -142 -284 -276t-301.5 -238t-311.5 -166.5t-313 -62.5q-172 0 -316.5 53 t-248.5 154t-161 246t-57 328zM2100 677q68 0 151.5 -1.5t162.5 -6.5q60 101 127 203.5t132.5 196.5t124 179t107.5 150q-87 -52 -230.5 -155.5t-296.5 -264.5q-14 -14 -26 -27.5t-23 -24.5h3q-14 -14 -26 -27.5t-26 -27.5q-44 -46 -89 -94t-91 -100zM3115 1704q8 49 34 78 t53.5 38.5t53.5 0t34 -42.5q5 -27 -3 -54.5t-21 -49.5q-16 -27 -41 -52q-22 -14 -44 -22t-39.5 -1t-26 31.5t-0.5 73.5zM3170 1712q-5 -41 10 -43.5t34 10.5l16 22q16 19 11 41q-8 27 -35.5 19t-35.5 -49z" />
<glyph unicode="&#xc6;" horiz-adv-x="3358" d="M55 661q0 246 101 428.5t251 304.5t322 183t314 61q120 0 254 -32.5t247.5 -106.5t187 -194t73.5 -295q0 -30 -7 -94t-23 -129.5t-45 -114.5t-72 -49q-22 0 -34.5 16t-12.5 38q0 44 44 85q19 14 33 30q14 14 26 31.5t20 39.5q16 74 16 147q0 120 -38 209t-99.5 153 t-138 105t-155.5 64.5t-153 33t-126 9.5q-142 0 -304.5 -63t-300 -180.5t-229 -286.5t-91.5 -382q0 -167 42 -285.5t107.5 -200.5t147.5 -131.5t162.5 -75t150.5 -34t113 -8.5q142 0 288 56t289.5 150.5t283 218.5t270.5 258q-63 0 -71 1.5t-11 22.5v16.5t12 8.5t41 4t83 4 q57 60 112 117.5t104 112.5q164 180 302 307t241.5 204.5t170.5 113t92 35.5q19 0 49 -24.5t33 -87.5q0 -5 -22 -35q22 14 45 24.5t45 21.5q96 46 165.5 65.5t74.5 19.5q8 3 43.5 11t79.5 9.5t89 -5.5t75 -31q14 -11 23.5 -31.5t3.5 -53.5q-5 -38 -43.5 -82t-81.5 -74 q-115 -90 -280.5 -170.5t-347.5 -134.5q-30 -11 -57.5 -19.5t-57.5 -13.5q5 -16 5 -25q49 14 107 27q87 19 162 15t122 -25q33 -14 41 -34.5t11 -34.5q0 -38 -30 -73q-22 -19 -51 -27.5t-57.5 -12.5t-49 -4h-25.5q-8 0 -35.5 4t-66 13.5t-82 26t-78.5 43.5 q-63 -41 -163 -123t-209 -224q-96 -131 -131 -240q-16 -49 -20 -97t9.5 -91.5t50.5 -77.5t108 -53q79 -22 166 -25q292 -16 535 164q63 46 104 91t60 73q3 8 11 13q14 8 27 3q14 -11 6 -37t-27 -48v3q-25 -30 -62 -65.5t-86 -73.5q-55 -44 -113.5 -75.5t-121.5 -52.5 q-167 -57 -338 -50q-5 0 -12 1.5t-16 1.5q-270 22 -371 153q-74 98 -52 243q16 71 46.5 134t68.5 117q14 25 28.5 49.5t31.5 51.5q-90 5 -179 7t-157 2q-137 -142 -284 -276t-301.5 -238t-311.5 -166.5t-313 -62.5q-172 0 -316.5 53t-248.5 154t-161 246t-57 328zM2100 677 q68 0 151.5 -1.5t162.5 -6.5q60 101 127 203.5t132.5 196.5t124 179t107.5 150q-87 -52 -230.5 -155.5t-296.5 -264.5l-49 -52h3l-52 -55zM2695 849l104 49q-5 8 -9.5 15t-6.5 15q-3 0 0 3l-11 30zM2885 1047q-4 -23 7 -31q232 60 412 148.5t287 170.5q55 46 79.5 76.5 t24.5 43.5q5 16 -0.5 26t-10.5 15q-25 19 -69 20q-41 5 -87 -2t-82 -15q-5 -3 -16 -5q-8 -3 -19 -4.5t-25 -6.5t-61.5 -23t-114.5 -55t-140.5 -95.5t-139.5 -143.5q-5 -5 -15 -25.5t-18 -45.5t-12 -48zM2914 882q11 -8 24.5 -16.5t32.5 -13.5q3 0 3 -2.5t2 -2.5l28 -6 q33 -11 65.5 -16.5t54.5 -8.5q22 0 67 4.5t69 28.5q8 5 14 28q0 14 -25 24q-38 19 -124 18t-200 -32z" />
<glyph unicode="&#xc7;" horiz-adv-x="1862" d="M93 1122q5 30 14.5 70t15.5 42l8 15t22 31.5t33 30t41 13.5q49 0 43 -49q-5 -44 -62 -90l-20 -19q-8 -8 -19 -22t-22 -30q-5 -46 32 -77.5t104 -50.5t157 -27.5t194 -8.5q115 0 237.5 9.5t248.5 31.5q98 115 219.5 221.5t252.5 187t263.5 129.5t249.5 49q60 0 102.5 -23 t37.5 -83q-8 -49 -58 -93q-156 -142 -396 -246t-521 -166q-55 -66 -126 -159t-135 -196.5t-113 -210t-58 -199.5q-8 -63 0.5 -124.5t42.5 -109t98 -77.5t168 -30q79 0 158 19t153 49q93 35 169.5 91t131 111t87.5 94.5t41 39.5q11 0 8 -17q0 -14 -8 -34t-22 -37 q-66 -85 -149 -151.5t-177 -115.5t-196.5 -75t-203.5 -29q-27 0 -41 3q-11 -22 -17 -30q-5 -8 -8 -17l-19 -57q-5 -8 -5 -16t-6 -17q87 19 135 19t70 -9.5t24.5 -24.5t-0.5 -26q-5 -19 -25.5 -38t-45 -36.5t-50.5 -30t-45 -20.5q-98 -41 -139 -29t-49.5 42t0.5 65l8 34 q-16 -3 -42.5 -7t-52 -5.5t-49 -3t-34.5 -1.5q-14 3 -30 12.5t8 12.5l47 5q38 3 81.5 8.5t82.5 10.5q5 14 10.5 25t10.5 22t11 22l47 98q-169 35 -241.5 152.5t-53.5 284.5q8 85 47.5 176.5t83.5 169t80.5 132t42.5 63.5q5 5 31 42t73 94q-115 -19 -228.5 -27t-219.5 -8 q-213 0 -355 32.5t-175 117.5q-14 33 -8 76zM1031.5 -392.5q-1.5 -16.5 6.5 -30.5q0 -16 10.5 -24.5t23 -12.5t22 -5.5t6.5 -1.5q5 3 9.5 3t10.5 5q44 16 73.5 38t32.5 31q8 27 -18 36.5t-61.5 9.5t-68 -7t-40.5 -9q-5 -16 -6.5 -32.5zM1330 1035q240 60 442 147.5 t350 210.5q44 35 54.5 53t10.5 23q5 33 -20.5 44t-63.5 11t-82 -7t-74 -18h-3q-82 -27 -180 -87q-85 -52 -195.5 -142t-238.5 -235z" />
<glyph unicode="&#xc8;" horiz-adv-x="1758" d="M85 1180q8 158 210 245q49 22 95.5 34.5t73.5 17.5q16 5 22 6h11q25 3 49 0q19 -3 38 -10t30 -23q25 -41 -10.5 -71t-111.5 3q-19 5 -44 11q-22 5 -46.5 3.5t-54.5 -9.5q-71 -27 -136.5 -76t-71.5 -134q-3 -74 45 -119t108 -67t110 -29l51 -6h3q188 -25 365.5 -14 t344.5 41q-8 82 49 175q71 115 179 190t203 118q96 46 165.5 65.5t75.5 19.5q8 3 43.5 11t79 9.5t88.5 -5.5t75 -31q14 -11 23.5 -31.5t4.5 -53.5q-5 -38 -43.5 -82t-82.5 -74q-115 -90 -280 -170.5t-348 -134.5q-30 -11 -57.5 -19.5t-57.5 -13.5q5 -16 6 -25q49 14 106 27 q87 19 162.5 15t121.5 -25q33 -14 41.5 -34.5t10.5 -34.5q0 -38 -30 -73q-22 -19 -50.5 -27.5t-57 -12.5t-49 -4h-26.5q-8 0 -35.5 4t-65.5 13.5t-81.5 26t-79.5 43.5q-63 -41 -162.5 -123t-208.5 -224q-96 -131 -131 -240q-16 -49 -20.5 -97t9 -91.5t50.5 -77.5t108 -53 q79 -22 167 -25q292 -16 535 164q63 46 104 91t60 73q3 8 11 13q14 8 27 3q14 -11 5.5 -37t-27.5 -48v3q-25 -30 -61.5 -65.5t-85.5 -73.5q-55 -44 -113.5 -75.5t-121.5 -52.5q-167 -57 -339 -50q-5 0 -12 1.5t-15 1.5q-270 22 -371 153q-74 98 -52 243q27 117 91 215.5 t122 161.5q71 71 118.5 109t50.5 41q98 63 207 109q-5 8 -9 15t-7 15q-3 0 0 3q-188 -38 -375 -45t-362 15q-8 3 -62.5 11t-117.5 30q-191 76 -183 238zM1294 1016q232 60 412.5 148.5t286.5 170.5q55 46 79.5 76.5t24.5 43.5q5 16 0 26t-11 15q-25 19 -68 20 q-41 5 -87.5 -2t-81.5 -15q-5 -3 -17 -5q-8 -3 -19 -4.5t-24 -6.5q-14 -5 -53.5 -23t-97 -55t-123 -95.5t-131.5 -143.5q-19 -22 -35 -46q-14 -22 -30 -48t-25 -56zM1316 882q11 -8 24.5 -16.5t33.5 -13.5q3 0 2.5 -2.5t2.5 -2.5q8 -3 15 -3t12 -3q33 -11 66 -16.5t54 -8.5 q22 0 67 4.5t70 28.5q8 5 14 28q0 14 -25 24q-38 19 -124 17.5t-201 -31.5zM1911 1789q0 35 52 35q25 0 37 -8t25.5 -27t36 -46.5t68.5 -65.5q8 -8 21.5 -15t24.5 -12.5t16.5 -8t-0.5 -5.5q-30 -8 -60 3t-60 19q-3 0 -27.5 11t-54.5 28.5t-54.5 41t-24.5 50.5z" />
<glyph unicode="&#xc9;" horiz-adv-x="1758" d="M85 1180q8 158 210 245q49 22 95.5 34.5t73.5 17.5q16 5 22 6h11q25 3 49 0q19 -3 38 -10t30 -23q25 -41 -10.5 -71t-111.5 3q-19 5 -44 11q-22 5 -46.5 3.5t-54.5 -9.5q-71 -27 -136.5 -76t-71.5 -134q-3 -74 45 -119t108 -67t110 -29l51 -6h3q188 -25 365.5 -14 t344.5 41q-8 82 49 175q71 115 179 190t203 118q96 46 165.5 65.5t75.5 19.5q8 3 43.5 11t79 9.5t88.5 -5.5t75 -31q14 -11 23.5 -31.5t4.5 -53.5q-5 -38 -43.5 -82t-82.5 -74q-115 -90 -280 -170.5t-348 -134.5q-30 -11 -57.5 -19.5t-57.5 -13.5q5 -16 6 -25q49 14 106 27 q87 19 162.5 15t121.5 -25q33 -14 41.5 -34.5t10.5 -34.5q0 -38 -30 -73q-22 -19 -50.5 -27.5t-57 -12.5t-49 -4h-26.5q-8 0 -35.5 4t-65.5 13.5t-81.5 26t-79.5 43.5q-63 -41 -162.5 -123t-208.5 -224q-96 -131 -131 -240q-16 -49 -20.5 -97t9 -91.5t50.5 -77.5t108 -53 q79 -22 167 -25q292 -16 535 164q63 46 104 91t60 73q3 8 11 13q14 8 27 3q14 -11 5.5 -37t-27.5 -48v3q-25 -30 -61.5 -65.5t-85.5 -73.5q-55 -44 -113.5 -75.5t-121.5 -52.5q-167 -57 -339 -50q-5 0 -12 1.5t-15 1.5q-270 22 -371 153q-74 98 -52 243q27 117 91 215.5 t122 161.5q71 71 118.5 109t50.5 41q98 63 207 109q-5 8 -9 15t-7 15q-3 0 0 3q-188 -38 -375 -45t-362 15q-8 3 -62.5 11t-117.5 30q-191 76 -183 238zM1294 1016q232 60 412.5 148.5t286.5 170.5q55 46 79.5 76.5t24.5 43.5q5 16 0 26t-11 15q-25 19 -68 20 q-41 5 -87.5 -2t-81.5 -15q-5 -3 -17 -5q-8 -3 -19 -4.5t-24 -6.5q-14 -5 -53.5 -23t-97 -55t-123 -95.5t-131.5 -143.5q-19 -22 -35 -46q-14 -22 -30 -48t-25 -56zM1316 882q11 -8 24.5 -16.5t33.5 -13.5q3 0 2.5 -2.5t2.5 -2.5q8 -3 15 -3t12 -3q33 -11 66 -16.5t54 -8.5 q22 0 67 4.5t70 28.5q8 5 14 28q0 14 -25 24q-38 19 -124 17.5t-201 -31.5zM1949 1807q0 5 5.5 2.5t15 -10.5t22 -16t26.5 -11q55 -22 90 -27.5t57 -8t35.5 -8t27.5 -27.5q11 -19 9.5 -37t-14.5 -26q-25 -14 -56.5 -4.5t-61.5 27.5t-52 34.5t-24 18.5q-22 22 -46.5 42.5 t-33.5 50.5z" />
<glyph unicode="&#xca;" horiz-adv-x="1758" d="M85 1180q8 158 210 245q49 22 95.5 34.5t73.5 17.5q16 5 22 6h11q25 3 49 0q19 -3 38 -10t30 -23q25 -41 -10.5 -71t-111.5 3q-19 5 -44 11q-22 5 -46.5 3.5t-54.5 -9.5q-71 -27 -136.5 -76t-71.5 -134q-3 -74 45 -119t108 -67t110 -29l51 -6h3q188 -25 365.5 -14 t344.5 41q-8 82 49 175q71 115 179 190t203 118q96 46 165.5 65.5t75.5 19.5q8 3 43.5 11t79 9.5t88.5 -5.5t75 -31q14 -11 23.5 -31.5t4.5 -53.5q-5 -38 -43.5 -82t-82.5 -74q-115 -90 -280 -170.5t-348 -134.5q-30 -11 -57.5 -19.5t-57.5 -13.5q5 -16 6 -25q49 14 106 27 q87 19 162.5 15t121.5 -25q33 -14 41.5 -34.5t10.5 -34.5q0 -38 -30 -73q-22 -19 -50.5 -27.5t-57 -12.5t-49 -4h-26.5q-8 0 -35.5 4t-65.5 13.5t-81.5 26t-79.5 43.5q-63 -41 -162.5 -123t-208.5 -224q-96 -131 -131 -240q-16 -49 -20.5 -97t9 -91.5t50.5 -77.5t108 -53 q79 -22 167 -25q292 -16 535 164q63 46 104 91t60 73q3 8 11 13q14 8 27 3q14 -11 5.5 -37t-27.5 -48v3q-25 -30 -61.5 -65.5t-85.5 -73.5q-55 -44 -113.5 -75.5t-121.5 -52.5q-167 -57 -339 -50q-5 0 -12 1.5t-15 1.5q-270 22 -371 153q-74 98 -52 243q27 117 91 215.5 t122 161.5q71 71 118.5 109t50.5 41q98 63 207 109q-5 8 -9 15t-7 15q-3 0 0 3q-188 -38 -375 -45t-362 15q-8 3 -62.5 11t-117.5 30q-191 76 -183 238zM1294 1016q232 60 412.5 148.5t286.5 170.5q55 46 79.5 76.5t24.5 43.5q5 16 0 26t-11 15q-25 19 -68 20 q-41 5 -87.5 -2t-81.5 -15q-5 -3 -17 -5q-8 -3 -19 -4.5t-24 -6.5q-14 -5 -53.5 -23t-97 -55t-123 -95.5t-131.5 -143.5q-19 -22 -35 -46q-14 -22 -30 -48t-25 -56zM1316 882q11 -8 24.5 -16.5t33.5 -13.5q3 0 2.5 -2.5t2.5 -2.5q8 -3 15 -3t12 -3q33 -11 66 -16.5t54 -8.5 q22 0 67 4.5t70 28.5q8 5 14 28q0 14 -25 24q-38 19 -124 17.5t-201 -31.5zM1912 1658q-8 5 16.5 5t43.5 14q52 27 78 47.5t42 34.5q11 11 25 11q5 3 24 -3l8 -6q5 -5 9 -5q5 -5 5 -8t3 -3q8 -14 8 -22q5 -16 13.5 -46t35.5 -82q5 -22 27 -41t11 -19q-25 3 -46.5 23 t-43.5 37q-3 0 -22 19t-38 44q-33 -14 -64 -16.5t-37 -2.5q-22 3 -49 1.5t-49 17.5z" />
<glyph unicode="&#xcb;" horiz-adv-x="1758" d="M85 1180q8 158 210 245q49 22 95.5 34.5t73.5 17.5q16 5 22 6h11q25 3 49 0q19 -3 38 -10t30 -23q25 -41 -10.5 -71t-111.5 3q-19 5 -44 11q-22 5 -46.5 3.5t-54.5 -9.5q-71 -27 -136.5 -76t-71.5 -134q-3 -74 45 -119t108 -67t110 -29l51 -6h3q188 -25 365.5 -14 t344.5 41q-8 82 49 175q71 115 179 190t203 118q96 46 165.5 65.5t75.5 19.5q8 3 43.5 11t79 9.5t88.5 -5.5t75 -31q14 -11 23.5 -31.5t4.5 -53.5q-5 -38 -43.5 -82t-82.5 -74q-115 -90 -280 -170.5t-348 -134.5q-30 -11 -57.5 -19.5t-57.5 -13.5q5 -16 6 -25q49 14 106 27 q87 19 162.5 15t121.5 -25q33 -14 41.5 -34.5t10.5 -34.5q0 -38 -30 -73q-22 -19 -50.5 -27.5t-57 -12.5t-49 -4h-26.5q-8 0 -35.5 4t-65.5 13.5t-81.5 26t-79.5 43.5q-63 -41 -162.5 -123t-208.5 -224q-96 -131 -131 -240q-16 -49 -20.5 -97t9 -91.5t50.5 -77.5t108 -53 q79 -22 167 -25q292 -16 535 164q63 46 104 91t60 73q3 8 11 13q14 8 27 3q14 -11 5.5 -37t-27.5 -48v3q-25 -30 -61.5 -65.5t-85.5 -73.5q-55 -44 -113.5 -75.5t-121.5 -52.5q-167 -57 -339 -50q-5 0 -12 1.5t-15 1.5q-270 22 -371 153q-74 98 -52 243q27 117 91 215.5 t122 161.5q71 71 118.5 109t50.5 41q98 63 207 109q-5 8 -9 15t-7 15q-3 0 0 3q-188 -38 -375 -45t-362 15q-8 3 -62.5 11t-117.5 30q-191 76 -183 238zM1294 1016q232 60 412.5 148.5t286.5 170.5q55 46 79.5 76.5t24.5 43.5q5 16 0 26t-11 15q-25 19 -68 20 q-41 5 -87.5 -2t-81.5 -15q-5 -3 -17 -5q-8 -3 -19 -4.5t-24 -6.5q-14 -5 -53.5 -23t-97 -55t-123 -95.5t-131.5 -143.5q-19 -22 -35 -46q-14 -22 -30 -48t-25 -56zM1316 882q11 -8 24.5 -16.5t33.5 -13.5q3 0 2.5 -2.5t2.5 -2.5q8 -3 15 -3t12 -3q33 -11 66 -16.5t54 -8.5 q22 0 67 4.5t70 28.5q8 5 14 28q0 14 -25 24q-38 19 -124 17.5t-201 -31.5zM2004 1720q8 35 26 57.5t40 29t39.5 0t26.5 -31.5q5 -22 -2 -41t-18 -35q-11 -19 -30 -39q-33 -22 -63 -18t-19 78zM2182 1655q8 35 26 57t39.5 29t39.5 0t26 -31q5 -22 -1.5 -41.5t-17.5 -35.5 q-11 -19 -30 -38q-33 -22 -63 -18t-19 78z" />
<glyph unicode="&#xcc;" horiz-adv-x="1283" d="M81.5 535q-2.5 22 3.5 44q3 25 13 49l11 16q46 126 180 298q101 131 225.5 250t255.5 206q60 41 132.5 80.5t150 64t154 26t147.5 -31.5q110 -51 145 -147q33 -85 19.5 -173.5t-33.5 -143.5q-3 -5 -8 -14q-5 -5 -8 -16t-8 -22q-3 -5 -3 -8t-3 -8q-60 -112 -146 -263.5 t-185.5 -306t-204.5 -291t-204 -212.5q-57 -44 -125 -52q-30 -3 -52 2.5t-38 13.5q-8 3 -19 8l-6 3q-3 0 -8 6l-3 2q-5 3 -16 14q-30 30 -41 71t-3 85q11 71 42.5 113t34.5 45h2q16 14 42.5 31.5t56.5 9.5q25 -5 35.5 -21.5t8 -37t-22 -41t-57.5 -31.5q-22 -8 -41 -19 q-16 -11 -30 -27.5t-16 -38.5q-14 -66 27 -101q5 -5 19 -16q44 -11 106.5 39.5t135 138t150.5 202t150.5 230.5t133.5 222.5t102 180.5t66 123t38 79q14 33 22 55q25 82 4.5 139t-59.5 93q-25 22 -54.5 35.5t-57.5 24.5q-68 3 -150 -17q-128 -35 -289 -144 q-126 -85 -247.5 -201t-222.5 -244q-44 -55 -79.5 -108.5t-56.5 -99.5q-5 -22 -5.5 -41t2.5 -35q3 -19 5 -36q5 -35 -4 -61t-25.5 -40t-35.5 -12.5t-36 23.5q-14 16 -16.5 38zM1283 1761q0 35 52 35q25 0 37 -8t25.5 -27t36 -46.5t68.5 -65.5q8 -8 21.5 -15t24.5 -12.5 t16.5 -8t-0.5 -5.5q-30 -8 -60 3t-60 19q-3 0 -27.5 11t-54.5 28.5t-54.5 41t-24.5 50.5z" />
<glyph unicode="&#xcd;" horiz-adv-x="1283" d="M81.5 535q-2.5 22 3.5 44q3 25 13 49l11 16q46 126 180 298q101 131 225.5 250t255.5 206q60 41 132.5 80.5t150 64t154 26t147.5 -31.5q110 -51 145 -147q33 -85 19.5 -173.5t-33.5 -143.5q-3 -5 -8 -14q-5 -5 -8 -16t-8 -22q-3 -5 -3 -8t-3 -8q-60 -112 -146 -263.5 t-185.5 -306t-204.5 -291t-204 -212.5q-57 -44 -125 -52q-30 -3 -52 2.5t-38 13.5q-8 3 -19 8l-6 3q-3 0 -8 6l-3 2q-5 3 -16 14q-30 30 -41 71t-3 85q11 71 42.5 113t34.5 45h2q16 14 42.5 31.5t56.5 9.5q25 -5 35.5 -21.5t8 -37t-22 -41t-57.5 -31.5q-22 -8 -41 -19 q-16 -11 -30 -27.5t-16 -38.5q-14 -66 27 -101q5 -5 19 -16q44 -11 106.5 39.5t135 138t150.5 202t150.5 230.5t133.5 222.5t102 180.5t66 123t38 79q14 33 22 55q25 82 4.5 139t-59.5 93q-25 22 -54.5 35.5t-57.5 24.5q-68 3 -150 -17q-128 -35 -289 -144 q-126 -85 -247.5 -201t-222.5 -244q-44 -55 -79.5 -108.5t-56.5 -99.5q-5 -22 -5.5 -41t2.5 -35q3 -19 5 -36q5 -35 -4 -61t-25.5 -40t-35.5 -12.5t-36 23.5q-14 16 -16.5 38zM1324 1761q0 5 5.5 2.5t15 -10.5t22 -16t26.5 -11q55 -22 90 -27.5t57 -8t35.5 -8t27.5 -27.5 q11 -19 9.5 -37t-14.5 -26q-25 -14 -56.5 -4.5t-61.5 27.5t-52 34.5t-24 18.5q-22 22 -46.5 42.5t-33.5 50.5z" />
<glyph unicode="&#xce;" horiz-adv-x="1283" d="M81.5 535q-2.5 22 3.5 44q3 25 13 49l11 16q46 126 180 298q101 131 225.5 250t255.5 206q60 41 132.5 80.5t150 64t154 26t147.5 -31.5q110 -51 145 -147q33 -85 19.5 -173.5t-33.5 -143.5q-3 -5 -8 -14q-5 -5 -8 -16t-8 -22q-3 -5 -3 -8t-3 -8q-60 -112 -146 -263.5 t-185.5 -306t-204.5 -291t-204 -212.5q-57 -44 -125 -52q-30 -3 -52 2.5t-38 13.5q-8 3 -19 8l-6 3q-3 0 -8 6l-3 2q-5 3 -16 14q-30 30 -41 71t-3 85q11 71 42.5 113t34.5 45h2q16 14 42.5 31.5t56.5 9.5q25 -5 35.5 -21.5t8 -37t-22 -41t-57.5 -31.5q-22 -8 -41 -19 q-16 -11 -30 -27.5t-16 -38.5q-14 -66 27 -101q5 -5 19 -16q44 -11 106.5 39.5t135 138t150.5 202t150.5 230.5t133.5 222.5t102 180.5t66 123t38 79q14 33 22 55q25 82 4.5 139t-59.5 93q-25 22 -54.5 35.5t-57.5 24.5q-68 3 -150 -17q-128 -35 -289 -144 q-126 -85 -247.5 -201t-222.5 -244q-44 -55 -79.5 -108.5t-56.5 -99.5q-5 -22 -5.5 -41t2.5 -35q3 -19 5 -36q5 -35 -4 -61t-25.5 -40t-35.5 -12.5t-36 23.5q-14 16 -16.5 38zM1248 1661q-8 5 16.5 5t43.5 14q52 27 78 47.5t42 34.5q11 11 25 11q5 3 24 -3l8 -6q5 -5 9 -5 q5 -5 5 -8t3 -3q8 -14 8 -22q5 -16 13.5 -46t35.5 -82q5 -22 27 -41t11 -19q-25 3 -46.5 23t-43.5 37q-3 0 -22 19t-38 44q-33 -14 -64 -16.5t-37 -2.5q-22 3 -49 1.5t-49 17.5z" />
<glyph unicode="&#xcf;" horiz-adv-x="1283" d="M81.5 535q-2.5 22 3.5 44q3 25 13 49l11 16q46 126 180 298q101 131 225.5 250t255.5 206q60 41 132.5 80.5t150 64t154 26t147.5 -31.5q110 -51 145 -147q33 -85 19.5 -173.5t-33.5 -143.5q-3 -5 -8 -14q-5 -5 -8 -16t-8 -22q-3 -5 -3 -8t-3 -8q-60 -112 -146 -263.5 t-185.5 -306t-204.5 -291t-204 -212.5q-57 -44 -125 -52q-30 -3 -52 2.5t-38 13.5q-8 3 -19 8l-6 3q-3 0 -8 6l-3 2q-5 3 -16 14q-30 30 -41 71t-3 85q11 71 42.5 113t34.5 45h2q16 14 42.5 31.5t56.5 9.5q25 -5 35.5 -21.5t8 -37t-22 -41t-57.5 -31.5q-22 -8 -41 -19 q-16 -11 -30 -27.5t-16 -38.5q-14 -66 27 -101q5 -5 19 -16q44 -11 106.5 39.5t135 138t150.5 202t150.5 230.5t133.5 222.5t102 180.5t66 123t38 79q14 33 22 55q25 82 4.5 139t-59.5 93q-25 22 -54.5 35.5t-57.5 24.5q-68 3 -150 -17q-128 -35 -289 -144 q-126 -85 -247.5 -201t-222.5 -244q-44 -55 -79.5 -108.5t-56.5 -99.5q-5 -22 -5.5 -41t2.5 -35q3 -19 5 -36q5 -35 -4 -61t-25.5 -40t-35.5 -12.5t-36 23.5q-14 16 -16.5 38zM1297 1712q8 35 26 57.5t40 29t39.5 0t26.5 -31.5q5 -22 -2 -41t-18 -35q-11 -19 -30 -39 q-33 -22 -63 -18t-19 78zM1475 1647q8 35 26 57t39.5 29t39.5 0t26 -31q5 -22 -1.5 -41.5t-17.5 -35.5q-11 -19 -30 -38q-33 -22 -63 -18t-19 78z" />
<glyph unicode="&#xd0;" horiz-adv-x="2424" d="M81 551.5q-29 215.5 45 464.5q0 3 25.5 69.5t83.5 156.5q33 52 71 97t82 84q55 46 113.5 79t123.5 52q5 3 41 11t86.5 9.5t108 -13.5t103.5 -59q41 -41 69.5 -94.5t15.5 -115.5q-8 -41 -42.5 -79.5t-58.5 -65.5l-3 -3q-14 -14 -34.5 -27.5t-42.5 -10.5q-46 5 -47.5 51.5 t72.5 84.5q22 14 38 30q14 14 27.5 32t13.5 39q3 30 -6.5 60.5t-39.5 57.5q-38 38 -87.5 49t-93 9.5t-73.5 -9.5l-30 -8q-134 -41 -223 -125.5t-138 -164.5q-30 -44 -47.5 -80.5t-31.5 -66.5q-14 -33 -25 -66q-71 -235 -43.5 -438t147.5 -362q112 -147 270.5 -231.5 t337.5 -112t368.5 2.5t363 112t321 210.5t243.5 302.5q74 142 112 261t49 213t0 168t-33 128q-52 128 -169 194l-3 6q-22 14 -42.5 22t-34.5 13q-16 8 -30 11q-281 87 -559 -106q-30 -22 -56 -41t-48 -41q-16 -19 -27 -39.5t-17 -39.5q-8 -22 -11 -44q-8 -35 -26 -56 t-38 -29t-38 0t-26 30q-5 19 0 39.5t16 37.5q11 19 30 38q3 5 8 11l20 19q30 35 76 76t107 82q123 90 264 126q175 41 342 -11q5 -3 44.5 -16.5t94.5 -49.5q55 -30 117.5 -90t109.5 -155q137 -284 -50 -713q-85 -197 -215.5 -336t-294.5 -229t-356.5 -131t-400.5 -41 q-292 3 -509 99.5t-353 277.5q-128 169 -157 384.5zM714 435.5q-1 17.5 10 34t34 29t69 12.5l123 -3q93 188 258.5 423t432.5 505q14 14 30 6q11 -5 23.5 -17.5t19 -31.5t-1.5 -46.5t-38 -63.5q-101 -115 -205 -245q-87 -112 -191 -250t-194 -283l164 -3h3q8 0 17.5 -4 t12.5 -15q3 -14 4 -31.5t-10 -34t-34 -28.5t-70 -12h-26h-28.5h-41h-65.5q-55 -96 -91.5 -187.5t-50.5 -167.5q-5 -22 -17.5 -22t-17.5 5h-3q-11 5 -22 20.5t-16 37.5q-5 19 0 27q11 49 34 121.5t64 168.5l-139 5h-3q-8 0 -17.5 4t-12.5 15q-3 14 -4 31.5z" />
<glyph unicode="&#xd1;" horiz-adv-x="2154" d="M85 1338q63 216 292 254q38 5 73.5 6.5t65.5 1.5q8 -3 20.5 -3t26.5 -2q22 -3 45 -11t36 -30q11 -22 5.5 -40t-24.5 -27.5t-47.5 -8t-58.5 17.5q-19 14 -41 25q-19 8 -43.5 15t-46.5 4h-3q-197 -33 -246 -216q-41 -137 19 -243q25 -44 59 -72.5t67 -47.5q38 -22 79 -33 q191 -52 415 80q101 60 199.5 143t185.5 162q66 60 127.5 113.5t117.5 93t109 58.5t102 11q96 -16 126 -93q44 -115 -79 -330q-44 -79 -82 -133.5t-41 -57.5q0 -3 -3 -3q-71 -93 -149 -200.5t-140 -211.5q-25 -41 -53.5 -89t-57.5 -97t-53.5 -95.5t-40.5 -81.5l-8 -17 q-16 -38 -23 -69.5t4 -44.5q14 11 34 35.5t53 70.5q41 57 90 135t107 168q104 169 229.5 361.5t261.5 362.5q319 396 563 431q126 19 234 -60q5 0 11 -5l17 -17h2l6 -5q30 -33 33 -88q0 -11 -11 -30q-22 -30 -86 -113t-149 -200.5t-183 -259.5t-188 -292q-25 -41 -53.5 -89 t-56 -97t-52 -95.5t-41.5 -81.5l-8 -17q-22 -49 -27 -84.5t25 -40.5q27 -8 80 19t108 65q63 44 136 101q16 11 31 19q11 5 20.5 4t3.5 -15q-3 -11 -11 -21q-14 -22 -38 -44q-14 -11 -53.5 -44t-91.5 -67t-105 -58.5t-94 -21.5q-38 3 -61.5 24.5t-34.5 53t-9.5 68.5t9.5 72 q16 74 69.5 176.5t108.5 197.5q85 145 181.5 295t188 281.5t165.5 231t109 148.5q-85 52 -177 36q-120 -16 -260 -131q-120 -96 -267 -282q-134 -167 -259.5 -358t-229.5 -357q-60 -96 -110.5 -176.5t-94.5 -140.5q-14 -22 -26 -37t-26 -28q5 0 8 2l-16 -16q-52 -55 -85 -55 h-5q-3 3 -5 3h-6q-3 3 -4 3t-4 2q-44 25 -53.5 86.5t4.5 118.5q16 74 69.5 176.5t107.5 197.5q74 128 165.5 256.5t184.5 249.5q68 85 117 163q41 68 65.5 136.5t-5.5 109.5q-11 14 -27 22q-14 5 -37 8t-53 -11q-68 -30 -147.5 -98t-166.5 -148q-87 -79 -188.5 -163.5 t-204.5 -147.5q-177 -104 -328 -104q-71 0 -128 20q-5 0 -31.5 9.5t-63.5 30t-76.5 54.5t-66.5 83q-74 123 -27 284zM1846 1767q11 30 38.5 45t60 15t65.5 -12.5t57 -36.5q8 -8 12.5 -17.5t12.5 -19.5t21.5 -23.5t43.5 -32.5q19 -19 42.5 -22t15.5 -11q-19 -16 -45 -12 t-51 10q-3 0 -35.5 6.5t-68.5 44.5q-16 14 -32.5 38.5t-76.5 27.5q-22 5 -42.5 -4.5t-17.5 4.5z" />
<glyph unicode="&#xd2;" horiz-adv-x="2217" d="M131 776q-16 30 0 60q0 8 3 11v2q5 8 8 18t8 15q5 8 8 16q3 3 6 9q3 5 5.5 8t7.5 8q8 8 11 14q3 5 6 8v-3q5 5 5 6q66 71 172 133q66 38 149 67t179 53q82 16 155.5 27.5t131 17t93 6.5t38.5 1h3q22 -3 45 -2.5t50 0.5q134 120 276 202q199 117 404 155q5 0 34 4.5 t64.5 4.5t71 -8.5t59.5 -30.5q14 -16 21 -38t-1 -52q-8 -60 -99 -125q-46 -27 -99.5 -49t-124.5 -44q-221 -63 -510 -71q-66 -60 -128.5 -151.5t-117.5 -198t-97 -221.5t-65.5 -221.5t-24.5 -198t29 -151.5q27 -82 103.5 -125.5t229.5 -37.5q112 3 225 57t218.5 136 t195.5 182t155 198q104 156 150.5 269t60.5 187q14 87 0 147q-35 128 -213 134h-3h-16q-11 0 -44 -6.5t-85 -32.5t-117.5 -81t-139.5 -147q-33 -41 -65 -93q-30 -46 -65.5 -110.5t-68.5 -146.5q-30 -74 -32.5 -119t9.5 -69.5t31 -34t33 -12.5q66 -8 122 22t94 66 q49 46 90 104.5t65 121.5q5 22 2.5 42.5t-7.5 36.5q-8 19 -16 36q-22 30 -25 57.5t8 46.5t29 28.5t40 4.5q19 -5 28.5 -20.5t14.5 -34.5q5 -22 8 -47v-16v-14.5t-2 -18.5q0 -19 -9 -46q-5 -30 -16 -66q-30 -71 -75 -136.5t-100 -117.5q-134 -126 -278 -101q-98 16 -131 96 q-22 52 -15 116t24.5 121.5t35.5 97t20 45.5q46 87 99.5 162t116.5 132q96 93 216 142q96 41 160 44t75 3q145 -5 210 -85q55 -60 60 -172q3 -96 -31 -209t-108 -244q-52 -96 -96 -156t-49 -65q-49 -74 -136.5 -160t-194 -158.5t-226.5 -123t-235 -53.5h-22q-90 -3 -158 15 t-117.5 48t-83.5 69.5t-53 78.5q-63 126 -49.5 287t72.5 323t149 305.5t180 236.5h-22t-22 3q-5 0 -50 -1.5t-113.5 -9.5t-154.5 -23t-176 -40t-173.5 -64.5t-148.5 -93.5q-22 -27 -33 -63q-5 -16 -8 -33q-5 -41 -20.5 -69.5t-34.5 -41t-38 -8.5t-30 24zM1371 1253 q123 8 235 24.5t207 46.5q123 33 196.5 78t79.5 89q11 30 -11 46q-14 14 -35.5 19.5t-46.5 5.5q-27 3 -54.5 -1.5t-43.5 -6.5q-27 -5 -50.5 -11t-47.5 -11q-27 -11 -68.5 -26t-87.5 -42q-101 -55 -273 -211zM1928 1813q0 35 52 35q25 0 37 -8t25.5 -27t36 -46.5t68.5 -65.5 q8 -8 21.5 -15t24.5 -12.5t16.5 -8t-0.5 -5.5q-30 -8 -60 3t-60 19q-3 0 -27.5 11t-54.5 28.5t-54.5 41t-24.5 50.5z" />
<glyph unicode="&#xd3;" horiz-adv-x="2217" d="M131 776q-16 30 0 60q0 8 3 11v2q5 8 8 18t8 15q5 8 8 16q3 3 6 9q3 5 5.5 8t7.5 8q8 8 11 14q3 5 6 8v-3q5 5 5 6q66 71 172 133q66 38 149 67t179 53q82 16 155.5 27.5t131 17t93 6.5t38.5 1h3q22 -3 45 -2.5t50 0.5q134 120 276 202q199 117 404 155q5 0 34 4.5 t64.5 4.5t71 -8.5t59.5 -30.5q14 -16 21 -38t-1 -52q-8 -60 -99 -125q-46 -27 -99.5 -49t-124.5 -44q-221 -63 -510 -71q-66 -60 -128.5 -151.5t-117.5 -198t-97 -221.5t-65.5 -221.5t-24.5 -198t29 -151.5q27 -82 103.5 -125.5t229.5 -37.5q112 3 225 57t218.5 136 t195.5 182t155 198q104 156 150.5 269t60.5 187q14 87 0 147q-35 128 -213 134h-3h-16q-11 0 -44 -6.5t-85 -32.5t-117.5 -81t-139.5 -147q-33 -41 -65 -93q-30 -46 -65.5 -110.5t-68.5 -146.5q-30 -74 -32.5 -119t9.5 -69.5t31 -34t33 -12.5q66 -8 122 22t94 66 q49 46 90 104.5t65 121.5q5 22 2.5 42.5t-7.5 36.5q-8 19 -16 36q-22 30 -25 57.5t8 46.5t29 28.5t40 4.5q19 -5 28.5 -20.5t14.5 -34.5q5 -22 8 -47v-16v-14.5t-2 -18.5q0 -19 -9 -46q-5 -30 -16 -66q-30 -71 -75 -136.5t-100 -117.5q-134 -126 -278 -101q-98 16 -131 96 q-22 52 -15 116t24.5 121.5t35.5 97t20 45.5q46 87 99.5 162t116.5 132q96 93 216 142q96 41 160 44t75 3q145 -5 210 -85q55 -60 60 -172q3 -96 -31 -209t-108 -244q-52 -96 -96 -156t-49 -65q-49 -74 -136.5 -160t-194 -158.5t-226.5 -123t-235 -53.5h-22q-90 -3 -158 15 t-117.5 48t-83.5 69.5t-53 78.5q-63 126 -49.5 287t72.5 323t149 305.5t180 236.5h-22t-22 3q-5 0 -50 -1.5t-113.5 -9.5t-154.5 -23t-176 -40t-173.5 -64.5t-148.5 -93.5q-22 -27 -33 -63q-5 -16 -8 -33q-5 -41 -20.5 -69.5t-34.5 -41t-38 -8.5t-30 24zM1371 1253 q123 8 235 24.5t207 46.5q123 33 196.5 78t79.5 89q11 30 -11 46q-14 14 -35.5 19.5t-46.5 5.5q-27 3 -54.5 -1.5t-43.5 -6.5q-27 -5 -50.5 -11t-47.5 -11q-27 -11 -68.5 -26t-87.5 -42q-101 -55 -273 -211zM1949 1818q0 5 5.5 2.5t15 -10.5t22 -16t26.5 -11 q55 -22 90 -27.5t57 -8t35.5 -8t27.5 -27.5q11 -19 9.5 -37t-14.5 -26q-25 -14 -56.5 -4.5t-61.5 27.5t-52 34.5t-24 18.5q-22 22 -46.5 42.5t-33.5 50.5z" />
<glyph unicode="&#xd4;" horiz-adv-x="2217" d="M131 776q-16 30 0 60q0 8 3 11v2q5 8 8 18t8 15q5 8 8 16q3 3 6 9q3 5 5.5 8t7.5 8q8 8 11 14q3 5 6 8v-3q5 5 5 6q66 71 172 133q66 38 149 67t179 53q82 16 155.5 27.5t131 17t93 6.5t38.5 1h3q22 -3 45 -2.5t50 0.5q134 120 276 202q199 117 404 155q5 0 34 4.5 t64.5 4.5t71 -8.5t59.5 -30.5q14 -16 21 -38t-1 -52q-8 -60 -99 -125q-46 -27 -99.5 -49t-124.5 -44q-221 -63 -510 -71q-66 -60 -128.5 -151.5t-117.5 -198t-97 -221.5t-65.5 -221.5t-24.5 -198t29 -151.5q27 -82 103.5 -125.5t229.5 -37.5q112 3 225 57t218.5 136 t195.5 182t155 198q104 156 150.5 269t60.5 187q14 87 0 147q-35 128 -213 134h-3h-16q-11 0 -44 -6.5t-85 -32.5t-117.5 -81t-139.5 -147q-33 -41 -65 -93q-30 -46 -65.5 -110.5t-68.5 -146.5q-30 -74 -32.5 -119t9.5 -69.5t31 -34t33 -12.5q66 -8 122 22t94 66 q49 46 90 104.5t65 121.5q5 22 2.5 42.5t-7.5 36.5q-8 19 -16 36q-22 30 -25 57.5t8 46.5t29 28.5t40 4.5q19 -5 28.5 -20.5t14.5 -34.5q5 -22 8 -47v-16v-14.5t-2 -18.5q0 -19 -9 -46q-5 -30 -16 -66q-30 -71 -75 -136.5t-100 -117.5q-134 -126 -278 -101q-98 16 -131 96 q-22 52 -15 116t24.5 121.5t35.5 97t20 45.5q46 87 99.5 162t116.5 132q96 93 216 142q96 41 160 44t75 3q145 -5 210 -85q55 -60 60 -172q3 -96 -31 -209t-108 -244q-52 -96 -96 -156t-49 -65q-49 -74 -136.5 -160t-194 -158.5t-226.5 -123t-235 -53.5h-22q-90 -3 -158 15 t-117.5 48t-83.5 69.5t-53 78.5q-63 126 -49.5 287t72.5 323t149 305.5t180 236.5h-22t-22 3q-5 0 -50 -1.5t-113.5 -9.5t-154.5 -23t-176 -40t-173.5 -64.5t-148.5 -93.5q-22 -27 -33 -63q-5 -16 -8 -33q-5 -41 -20.5 -69.5t-34.5 -41t-38 -8.5t-30 24zM1371 1253 q123 8 235 24.5t207 46.5q123 33 196.5 78t79.5 89q11 30 -11 46q-14 14 -35.5 19.5t-46.5 5.5q-27 3 -54.5 -1.5t-43.5 -6.5q-27 -5 -50.5 -11t-47.5 -11q-27 -11 -68.5 -26t-87.5 -42q-101 -55 -273 -211zM1901 1702q-8 5 16.5 5t43.5 14q52 27 78 47.5t42 34.5 q11 11 25 11q5 3 24 -3l8 -6q5 -5 9 -5q5 -5 5 -8t3 -3q8 -14 8 -22q5 -16 13.5 -46t35.5 -82q5 -22 27 -41t11 -19q-25 3 -46.5 23t-43.5 37q-3 0 -22 19t-38 44q-33 -14 -64 -16.5t-37 -2.5q-22 3 -49 1.5t-49 17.5z" />
<glyph unicode="&#xd5;" horiz-adv-x="2217" d="M131 776q-16 30 0 60q0 8 3 11v2q5 8 8 18t8 15q5 8 8 16q3 3 6 9q3 5 5.5 8t7.5 8q8 8 11 14q3 5 6 8v-3q5 5 5 6q66 71 172 133q66 38 149 67t179 53q82 16 155.5 27.5t131 17t93 6.5t38.5 1h3q22 -3 45 -2.5t50 0.5q134 120 276 202q199 117 404 155q5 0 34 4.5 t64.5 4.5t71 -8.5t59.5 -30.5q14 -16 21 -38t-1 -52q-8 -60 -99 -125q-46 -27 -99.5 -49t-124.5 -44q-221 -63 -510 -71q-66 -60 -128.5 -151.5t-117.5 -198t-97 -221.5t-65.5 -221.5t-24.5 -198t29 -151.5q27 -82 103.5 -125.5t229.5 -37.5q112 3 225 57t218.5 136 t195.5 182t155 198q104 156 150.5 269t60.5 187q14 87 0 147q-35 128 -213 134h-3h-16q-11 0 -44 -6.5t-85 -32.5t-117.5 -81t-139.5 -147q-33 -41 -65 -93q-30 -46 -65.5 -110.5t-68.5 -146.5q-30 -74 -32.5 -119t9.5 -69.5t31 -34t33 -12.5q66 -8 122 22t94 66 q49 46 90 104.5t65 121.5q5 22 2.5 42.5t-7.5 36.5q-8 19 -16 36q-22 30 -25 57.5t8 46.5t29 28.5t40 4.5q19 -5 28.5 -20.5t14.5 -34.5q5 -22 8 -47v-16v-14.5t-2 -18.5q0 -19 -9 -46q-5 -30 -16 -66q-30 -71 -75 -136.5t-100 -117.5q-134 -126 -278 -101q-98 16 -131 96 q-22 52 -15 116t24.5 121.5t35.5 97t20 45.5q46 87 99.5 162t116.5 132q96 93 216 142q96 41 160 44t75 3q145 -5 210 -85q55 -60 60 -172q3 -96 -31 -209t-108 -244q-52 -96 -96 -156t-49 -65q-49 -74 -136.5 -160t-194 -158.5t-226.5 -123t-235 -53.5h-22q-90 -3 -158 15 t-117.5 48t-83.5 69.5t-53 78.5q-63 126 -49.5 287t72.5 323t149 305.5t180 236.5h-22t-22 3q-5 0 -50 -1.5t-113.5 -9.5t-154.5 -23t-176 -40t-173.5 -64.5t-148.5 -93.5q-22 -27 -33 -63q-5 -16 -8 -33q-5 -41 -20.5 -69.5t-34.5 -41t-38 -8.5t-30 24zM1371 1253 q123 8 235 24.5t207 46.5q123 33 196.5 78t79.5 89q11 30 -11 46q-14 14 -35.5 19.5t-46.5 5.5q-27 3 -54.5 -1.5t-43.5 -6.5q-27 -5 -50.5 -11t-47.5 -11q-27 -11 -68.5 -26t-87.5 -42q-101 -55 -273 -211zM1906 1767q11 30 38.5 45t60 15t65.5 -12.5t57 -36.5 q8 -8 12.5 -17.5t12.5 -19.5t21.5 -23.5t43.5 -32.5q19 -19 42.5 -22t15.5 -11q-19 -16 -45 -12t-51 10q-3 0 -35.5 6.5t-68.5 44.5q-16 14 -32.5 38.5t-76.5 27.5q-22 5 -42.5 -4.5t-17.5 4.5z" />
<glyph unicode="&#xd6;" horiz-adv-x="2217" d="M131 776q-16 30 0 60q0 8 3 11v2q5 8 8 18t8 15q5 8 8 16q3 3 6 9q3 5 5.5 8t7.5 8q8 8 11 14q3 5 6 8v-3q5 5 5 6q66 71 172 133q66 38 149 67t179 53q82 16 155.5 27.5t131 17t93 6.5t38.5 1h3q22 -3 45 -2.5t50 0.5q134 120 276 202q199 117 404 155q5 0 34 4.5 t64.5 4.5t71 -8.5t59.5 -30.5q14 -16 21 -38t-1 -52q-8 -60 -99 -125q-46 -27 -99.5 -49t-124.5 -44q-221 -63 -510 -71q-66 -60 -128.5 -151.5t-117.5 -198t-97 -221.5t-65.5 -221.5t-24.5 -198t29 -151.5q27 -82 103.5 -125.5t229.5 -37.5q112 3 225 57t218.5 136 t195.5 182t155 198q104 156 150.5 269t60.5 187q14 87 0 147q-35 128 -213 134h-3h-16q-11 0 -44 -6.5t-85 -32.5t-117.5 -81t-139.5 -147q-33 -41 -65 -93q-30 -46 -65.5 -110.5t-68.5 -146.5q-30 -74 -32.5 -119t9.5 -69.5t31 -34t33 -12.5q66 -8 122 22t94 66 q49 46 90 104.5t65 121.5q5 22 2.5 42.5t-7.5 36.5q-8 19 -16 36q-22 30 -25 57.5t8 46.5t29 28.5t40 4.5q19 -5 28.5 -20.5t14.5 -34.5q5 -22 8 -47v-16v-14.5t-2 -18.5q0 -19 -9 -46q-5 -30 -16 -66q-30 -71 -75 -136.5t-100 -117.5q-134 -126 -278 -101q-98 16 -131 96 q-22 52 -15 116t24.5 121.5t35.5 97t20 45.5q46 87 99.5 162t116.5 132q96 93 216 142q96 41 160 44t75 3q145 -5 210 -85q55 -60 60 -172q3 -96 -31 -209t-108 -244q-52 -96 -96 -156t-49 -65q-49 -74 -136.5 -160t-194 -158.5t-226.5 -123t-235 -53.5h-22q-90 -3 -158 15 t-117.5 48t-83.5 69.5t-53 78.5q-63 126 -49.5 287t72.5 323t149 305.5t180 236.5h-22t-22 3q-5 0 -50 -1.5t-113.5 -9.5t-154.5 -23t-176 -40t-173.5 -64.5t-148.5 -93.5q-22 -27 -33 -63q-5 -16 -8 -33q-5 -41 -20.5 -69.5t-34.5 -41t-38 -8.5t-30 24zM1371 1253 q123 8 235 24.5t207 46.5q123 33 196.5 78t79.5 89q11 30 -11 46q-14 14 -35.5 19.5t-46.5 5.5q-27 3 -54.5 -1.5t-43.5 -6.5q-27 -5 -50.5 -11t-47.5 -11q-27 -11 -68.5 -26t-87.5 -42q-101 -55 -273 -211zM1960 1764q8 35 26 57.5t40 29t39.5 0t26.5 -31.5q5 -22 -2 -41 t-18 -35q-11 -19 -30 -39q-33 -22 -63 -18t-19 78zM2138 1699q8 35 26 57t39.5 29t39.5 0t26 -31q5 -22 -1.5 -41.5t-17.5 -35.5q-11 -19 -30 -38q-33 -22 -63 -18t-19 78z" />
<glyph unicode="&#xd7;" horiz-adv-x="625" d="M100 175q-4 19 4 43.5t41 57.5q19 19 32.5 34t51.5 48q-22 30 -47.5 66.5t-64.5 88.5h-2q-5 8 -7 19t7 20q8 11 21.5 21.5t32.5 12t44 -10.5t55 -48l57 -79q25 25 57.5 53.5t70.5 63.5q5 5 16.5 9.5t19.5 -1.5q11 -8 24.5 -20t17.5 -30t-4 -44t-41 -58l-85 -80l112 -153 v-2q5 -5 8 -17.5t-5 -18.5q-8 -11 -23 -22t-33 -13.5t-42.5 10t-51.5 47.5q-14 19 -26 32.5t-34 49.5l-129 -120l-2 -3q-5 -5 -15 -9.5t-18 1.5q-14 8 -26 20.5t-16 31.5z" />
<glyph unicode="&#xd8;" horiz-adv-x="2217" d="M131 776q-16 30 0 60q0 8 3 11v2q5 8 8 18t8 15q5 8 8 16q3 3 6 9q3 5 5.5 8t7.5 8q8 8 11 14q3 5 6 8v-3q5 5 5 6q66 71 172 133q66 38 149 67t179 53q82 16 155.5 27.5t131 17t93 6.5t38.5 1h3q22 -3 45 -2.5t50 0.5q134 120 276 202q199 117 404 155q5 0 34 4.5 t64.5 4.5t71 -8.5t59.5 -30.5q14 -16 21 -38t-1 -52q-8 -60 -99 -125q-46 -27 -99.5 -49t-124.5 -44q-221 -63 -510 -71q-66 -60 -128.5 -151.5t-117.5 -198t-97 -221.5t-65.5 -221.5t-24.5 -198t29 -151.5q27 -82 103.5 -125.5t229.5 -37.5q112 3 225 57t218.5 136 t195.5 182t155 198q104 156 150.5 269t60.5 187q14 87 0 147q-35 128 -213 134h-3h-16q-11 0 -44 -6.5t-85 -32.5t-117.5 -81t-139.5 -147q-33 -41 -65 -93q-30 -46 -65.5 -110.5t-68.5 -146.5q-30 -74 -32.5 -119t9.5 -69.5t31 -34t33 -12.5q66 -8 122 22t94 66 q49 46 90 104.5t65 121.5q5 22 2.5 42.5t-7.5 36.5q-8 19 -16 36q-22 30 -25 57.5t8 46.5t29 28.5t40 4.5q19 -5 28.5 -20.5t14.5 -34.5q5 -22 8 -47v-16v-14.5t-2 -18.5q0 -19 -9 -46q-5 -30 -16 -66q-30 -71 -75 -136.5t-100 -117.5q-134 -126 -278 -101q-98 16 -131 96 q-22 52 -15 116t24.5 121.5t35.5 97t20 45.5q46 87 99.5 162t116.5 132q96 93 216 142q96 41 160 44t75 3q145 -5 210 -85q55 -60 60 -172q3 -96 -31 -209t-108 -244q-52 -96 -96 -156t-49 -65q-49 -74 -136.5 -160t-194 -158.5t-226.5 -123t-235 -53.5h-22q-90 -3 -158 15 t-117.5 48t-83.5 69.5t-53 78.5q-63 126 -49.5 287t72.5 323t149 305.5t180 236.5h-22t-22 3q-5 0 -50 -1.5t-113.5 -9.5t-154.5 -23t-176 -40t-173.5 -64.5t-148.5 -93.5q-22 -27 -33 -63q-5 -16 -8 -33q-5 -41 -20.5 -69.5t-34.5 -41t-38 -8.5t-30 24zM966.5 -239 q-2.5 18 5.5 52t38 91l1005 1808v6q8 8 18 19t15 8q11 0 22 -7t15 -24.5t-4 -50.5t-36 -87q-11 -16 -72.5 -125.5t-152.5 -273.5t-202 -363.5t-220 -394.5t-206 -370t-160 -287v-2q-5 -8 -14.5 -20.5t-15.5 -9.5q-11 3 -22 8t-13.5 23zM1371 1253q123 8 235 24.5t207 46.5 q123 33 196.5 78t79.5 89q11 30 -11 46q-14 14 -35.5 19.5t-46.5 5.5q-27 3 -54.5 -1.5t-43.5 -6.5q-27 -5 -50.5 -11t-47.5 -11q-27 -11 -68.5 -26t-87.5 -42q-101 -55 -273 -211z" />
<glyph unicode="&#xd9;" horiz-adv-x="2266" d="M86 1269.5q-1 57.5 18 128.5q38 134 144 197q79 44 169.5 46.5t147.5 -5.5q5 -3 13.5 -3t14.5 -3q22 -5 46.5 -14.5t34.5 -31.5q22 -44 -23 -66t-105 17q-19 16 -41 27q-19 11 -43.5 18t-46.5 4l6 3q-38 -3 -75 -11.5t-70 -29.5q-87 -46 -120 -162q-49 -202 71 -322 q22 -25 45 -41t45 -27t43 -19q183 -63 418 57q104 55 206.5 132.5t192.5 151.5q68 57 133.5 108t124.5 86.5t112 51.5t102 5q93 -22 120 -98q30 -96 -51 -251q-16 -35 -94 -176t-250 -389q-101 -145 -165.5 -257t-85 -188.5t8.5 -112t113 -21.5q270 38 688 508 q115 131 210.5 255t155.5 209q19 30 38.5 57t38.5 55v3q101 145 178.5 251t107.5 144q5 5 13.5 11t19.5 0q19 -5 43.5 -31t27.5 -81q0 -5 -1.5 -12t-9.5 -18q-22 -30 -86 -113t-148.5 -200.5t-183 -259.5t-188.5 -292q-25 -41 -53.5 -89t-55.5 -97t-52 -95.5t-41 -81.5 l-8 -17q-22 -49 -26 -84.5t23 -40.5q27 -8 82 19t109 65q66 44 137 101q19 11 30 19q11 5 19 4t5 -15q-3 -11 -11 -21q-14 -22 -38 -44q-14 -11 -54.5 -44t-91 -67t-105.5 -58.5t-96 -21.5q-38 3 -61 24.5t-34 53t-9.5 68.5t9.5 72q16 71 66.5 171t105.5 195 q-16 -22 -25 -30q-112 -126 -214 -222.5t-198 -162.5q-202 -145 -358 -145q-14 0 -28.5 1.5t-28.5 4.5q-98 16 -128 98q-27 90 40 249q14 30 29 60t37 63q30 52 93 151.5t134 215.5t140.5 232t113.5 203q38 76 46 120t2.5 67.5t-20.5 30t-26 6.5q-76 -3 -178.5 -76.5 t-217.5 -166.5q-93 -76 -196.5 -155.5t-212.5 -136.5q-161 -85 -309 -85q-76 0 -150 25q-5 3 -54.5 24.5t-101.5 76.5q-25 25 -48 60.5t-38 81.5t-16 103.5zM2094 1751q0 35 52 35q25 0 37 -8t25.5 -27t36 -46.5t68.5 -65.5q8 -8 21.5 -15t24.5 -12.5t16.5 -8t-0.5 -5.5 q-30 -8 -60 3t-60 19q-3 0 -27.5 11t-54.5 28.5t-54.5 41t-24.5 50.5z" />
<glyph unicode="&#xda;" horiz-adv-x="2266" d="M86 1269.5q-1 57.5 18 128.5q38 134 144 197q79 44 169.5 46.5t147.5 -5.5q5 -3 13.5 -3t14.5 -3q22 -5 46.5 -14.5t34.5 -31.5q22 -44 -23 -66t-105 17q-19 16 -41 27q-19 11 -43.5 18t-46.5 4l6 3q-38 -3 -75 -11.5t-70 -29.5q-87 -46 -120 -162q-49 -202 71 -322 q22 -25 45 -41t45 -27t43 -19q183 -63 418 57q104 55 206.5 132.5t192.5 151.5q68 57 133.5 108t124.5 86.5t112 51.5t102 5q93 -22 120 -98q30 -96 -51 -251q-16 -35 -94 -176t-250 -389q-101 -145 -165.5 -257t-85 -188.5t8.5 -112t113 -21.5q270 38 688 508 q115 131 210.5 255t155.5 209q19 30 38.5 57t38.5 55v3q101 145 178.5 251t107.5 144q5 5 13.5 11t19.5 0q19 -5 43.5 -31t27.5 -81q0 -5 -1.5 -12t-9.5 -18q-22 -30 -86 -113t-148.5 -200.5t-183 -259.5t-188.5 -292q-25 -41 -53.5 -89t-55.5 -97t-52 -95.5t-41 -81.5 l-8 -17q-22 -49 -26 -84.5t23 -40.5q27 -8 82 19t109 65q66 44 137 101q19 11 30 19q11 5 19 4t5 -15q-3 -11 -11 -21q-14 -22 -38 -44q-14 -11 -54.5 -44t-91 -67t-105.5 -58.5t-96 -21.5q-38 3 -61 24.5t-34 53t-9.5 68.5t9.5 72q16 71 66.5 171t105.5 195 q-16 -22 -25 -30q-112 -126 -214 -222.5t-198 -162.5q-202 -145 -358 -145q-14 0 -28.5 1.5t-28.5 4.5q-98 16 -128 98q-27 90 40 249q14 30 29 60t37 63q30 52 93 151.5t134 215.5t140.5 232t113.5 203q38 76 46 120t2.5 67.5t-20.5 30t-26 6.5q-76 -3 -178.5 -76.5 t-217.5 -166.5q-93 -76 -196.5 -155.5t-212.5 -136.5q-161 -85 -309 -85q-76 0 -150 25q-5 3 -54.5 24.5t-101.5 76.5q-25 25 -48 60.5t-38 81.5t-16 103.5zM2067 1772q0 5 5.5 2.5t15 -10.5t22 -16t26.5 -11q55 -22 90 -27.5t57 -8t35.5 -8t27.5 -27.5q11 -19 9.5 -37 t-14.5 -26q-25 -14 -56.5 -4.5t-61.5 27.5t-52 34.5t-24 18.5q-22 22 -46.5 42.5t-33.5 50.5z" />
<glyph unicode="&#xdb;" horiz-adv-x="2266" d="M86 1269.5q-1 57.5 18 128.5q38 134 144 197q79 44 169.5 46.5t147.5 -5.5q5 -3 13.5 -3t14.5 -3q22 -5 46.5 -14.5t34.5 -31.5q22 -44 -23 -66t-105 17q-19 16 -41 27q-19 11 -43.5 18t-46.5 4l6 3q-38 -3 -75 -11.5t-70 -29.5q-87 -46 -120 -162q-49 -202 71 -322 q22 -25 45 -41t45 -27t43 -19q183 -63 418 57q104 55 206.5 132.5t192.5 151.5q68 57 133.5 108t124.5 86.5t112 51.5t102 5q93 -22 120 -98q30 -96 -51 -251q-16 -35 -94 -176t-250 -389q-101 -145 -165.5 -257t-85 -188.5t8.5 -112t113 -21.5q270 38 688 508 q115 131 210.5 255t155.5 209q19 30 38.5 57t38.5 55v3q101 145 178.5 251t107.5 144q5 5 13.5 11t19.5 0q19 -5 43.5 -31t27.5 -81q0 -5 -1.5 -12t-9.5 -18q-22 -30 -86 -113t-148.5 -200.5t-183 -259.5t-188.5 -292q-25 -41 -53.5 -89t-55.5 -97t-52 -95.5t-41 -81.5 l-8 -17q-22 -49 -26 -84.5t23 -40.5q27 -8 82 19t109 65q66 44 137 101q19 11 30 19q11 5 19 4t5 -15q-3 -11 -11 -21q-14 -22 -38 -44q-14 -11 -54.5 -44t-91 -67t-105.5 -58.5t-96 -21.5q-38 3 -61 24.5t-34 53t-9.5 68.5t9.5 72q16 71 66.5 171t105.5 195 q-16 -22 -25 -30q-112 -126 -214 -222.5t-198 -162.5q-202 -145 -358 -145q-14 0 -28.5 1.5t-28.5 4.5q-98 16 -128 98q-27 90 40 249q14 30 29 60t37 63q30 52 93 151.5t134 215.5t140.5 232t113.5 203q38 76 46 120t2.5 67.5t-20.5 30t-26 6.5q-76 -3 -178.5 -76.5 t-217.5 -166.5q-93 -76 -196.5 -155.5t-212.5 -136.5q-161 -85 -309 -85q-76 0 -150 25q-5 3 -54.5 24.5t-101.5 76.5q-25 25 -48 60.5t-38 81.5t-16 103.5zM2051 1666q-8 5 16.5 5t43.5 14q52 27 78 47.5t42 34.5q11 11 25 11q5 3 24 -3l8 -6q5 -5 9 -5q5 -5 5 -8t3 -3 q8 -14 8 -22q5 -16 13.5 -46t35.5 -82q5 -22 27 -41t11 -19q-25 3 -46.5 23t-43.5 37q-3 0 -22 19t-38 44q-33 -14 -64 -16.5t-37 -2.5q-22 3 -49 1.5t-49 17.5z" />
<glyph unicode="&#xdc;" horiz-adv-x="2266" d="M86 1269.5q-1 57.5 18 128.5q38 134 144 197q79 44 169.5 46.5t147.5 -5.5q5 -3 13.5 -3t14.5 -3q22 -5 46.5 -14.5t34.5 -31.5q22 -44 -23 -66t-105 17q-19 16 -41 27q-19 11 -43.5 18t-46.5 4l6 3q-38 -3 -75 -11.5t-70 -29.5q-87 -46 -120 -162q-49 -202 71 -322 q22 -25 45 -41t45 -27t43 -19q183 -63 418 57q104 55 206.5 132.5t192.5 151.5q68 57 133.5 108t124.5 86.5t112 51.5t102 5q93 -22 120 -98q30 -96 -51 -251q-16 -35 -94 -176t-250 -389q-101 -145 -165.5 -257t-85 -188.5t8.5 -112t113 -21.5q270 38 688 508 q115 131 210.5 255t155.5 209q19 30 38.5 57t38.5 55v3q101 145 178.5 251t107.5 144q5 5 13.5 11t19.5 0q19 -5 43.5 -31t27.5 -81q0 -5 -1.5 -12t-9.5 -18q-22 -30 -86 -113t-148.5 -200.5t-183 -259.5t-188.5 -292q-25 -41 -53.5 -89t-55.5 -97t-52 -95.5t-41 -81.5 l-8 -17q-22 -49 -26 -84.5t23 -40.5q27 -8 82 19t109 65q66 44 137 101q19 11 30 19q11 5 19 4t5 -15q-3 -11 -11 -21q-14 -22 -38 -44q-14 -11 -54.5 -44t-91 -67t-105.5 -58.5t-96 -21.5q-38 3 -61 24.5t-34 53t-9.5 68.5t9.5 72q16 71 66.5 171t105.5 195 q-16 -22 -25 -30q-112 -126 -214 -222.5t-198 -162.5q-202 -145 -358 -145q-14 0 -28.5 1.5t-28.5 4.5q-98 16 -128 98q-27 90 40 249q14 30 29 60t37 63q30 52 93 151.5t134 215.5t140.5 232t113.5 203q38 76 46 120t2.5 67.5t-20.5 30t-26 6.5q-76 -3 -178.5 -76.5 t-217.5 -166.5q-93 -76 -196.5 -155.5t-212.5 -136.5q-161 -85 -309 -85q-76 0 -150 25q-5 3 -54.5 24.5t-101.5 76.5q-25 25 -48 60.5t-38 81.5t-16 103.5zM2045 1720q8 35 26 57.5t40 29t39.5 0t26.5 -31.5q5 -22 -2 -41t-18 -35q-11 -19 -30 -39q-33 -22 -63 -18t-19 78z M2223 1655q8 35 26 57t39.5 29t39.5 0t26 -31q5 -22 -1.5 -41.5t-17.5 -35.5q-11 -19 -30 -38q-33 -22 -63 -18t-19 78z" />
<glyph unicode="&#xdd;" horiz-adv-x="2356" d="M82 -119q11 97 57 193q46 98 124 176t177 127q153 71 322 68q180 -3 385 -95q3 8 8 19q14 30 29 60t34 63q30 52 93 151.5t134 215.5t140.5 232t112.5 203q38 76 46.5 120t3 67.5t-20.5 30t-26 6.5q-76 -3 -178.5 -76.5t-217.5 -166.5q-93 -76 -196.5 -155.5 t-212.5 -136.5q-161 -85 -309 -85q-76 0 -150 25q-5 3 -38 15t-76.5 38t-89 67t-75.5 98q-63 120 -13 268q71 213 333 235q52 5 98.5 1t78.5 -9q3 0 4.5 -1.5t6.5 -1.5q8 0 17 -3h2q5 -3 13.5 -3t14.5 -5h5l6 -3q38 -14 49 -41q11 -22 2.5 -38t-29 -24.5t-49 -5.5t-55.5 25 q-16 16 -36 27q-16 11 -36.5 19t-42.5 11q-14 -3 -23.5 -3h-22.5q-227 -22 -284 -196q-41 -128 8 -227q27 -52 68 -87.5t80.5 -58.5t69.5 -34l30 -11q186 -66 418 57q104 55 206.5 132.5t192.5 151.5q68 57 133.5 108t124.5 86.5t112 51.5t102 5q93 -22 120 -98 q33 -93 -52 -251q-16 -35 -94 -176t-250 -389q-74 -106 -128.5 -195t-86.5 -160q126 -71 248 -170q227 115 527 454q115 131 210.5 255t155.5 209q19 30 38 57t39 55v3q101 145 178.5 251t107.5 144q5 5 13.5 11t19.5 0q19 -5 43.5 -31t27.5 -81q0 -5 -1.5 -12t-9.5 -18 q-22 -30 -86 -113t-148.5 -200.5t-181.5 -259.5t-187 -292q-25 -41 -53.5 -89t-57.5 -97t-53.5 -95.5t-40.5 -81.5l-8 -17q-22 -49 -26 -84.5t23 -40.5q27 -8 81.5 19t109.5 65q66 44 137 101q19 11 30 19q11 5 19 4t5 -15q-3 -11 -11 -21q-14 -22 -38 -44q-14 -11 -55 -44 t-91.5 -67t-105 -58.5t-95.5 -21.5q-33 3 -53 19t-34 41q-19 -30 -41 -61.5t-44 -61.5q-14 -19 -26 -37t-26 -34q183 -197 369 -459q3 -3 3 -4t2 -4l17 -27q11 -25 16 -47q5 -19 4 -39.5t-12 -36.5q-14 -19 -33 -23t-35.5 6.5t-28.5 38t-10 68.5q0 19 -2 41q-5 44 -28 85 q-11 11 -13 16l-8 8l2 -3q-139 188 -278 336q-172 -213 -347 -346q-284 -213 -568 -219q-3 0 -8.5 -1.5t-13.5 -1.5q-38 0 -117 8.5t-175 38.5q-147 46 -248 131q-131 109 -181 273q-27 87 -16 184zM137.5 -123q-9.5 -87 12.5 -164q87 -276 393 -368q76 -25 142 -33t107 -8 q109 0 206 32.5t185.5 87t169.5 128.5t157 156q41 46 80.5 93.5t77.5 102.5q-87 87 -177 162q-104 -49 -194 -50q-14 0 -27.5 1.5t-27.5 4.5q-101 16 -131 98q-25 68 14 180q-109 49 -204.5 69.5t-175.5 20.5q-87 0 -158 -19t-126 -43q-87 -46 -158 -117.5t-115 -161.5 q-41 -85 -50.5 -172zM1218 105q24 -45 120 -31q25 5 51 10.5t56 19.5q-55 41 -108.5 76.5t-107.5 65.5q-35 -96 -11 -141zM1546 90q38 -30 77.5 -65.5t77.5 -73.5q60 85 115 171t101 163.5t83 143t59 109.5q-109 -123 -210 -217t-191 -160q-30 -22 -57.5 -38.5t-54.5 -32.5z M2138 1780q0 5 5.5 2.5t15 -10.5t22 -16t26.5 -11q55 -22 90 -27.5t57 -8t35.5 -8t27.5 -27.5q11 -19 9.5 -37t-14.5 -26q-25 -14 -56.5 -4.5t-61.5 27.5t-52 34.5t-24 18.5q-22 22 -46.5 42.5t-33.5 50.5z" />
<glyph unicode="&#xe0;" d="M-22 126q0 57 34 147t130 229q117 167 244 256t217 89q63 0 94.5 -37t31.5 -100q0 -74 -38 -183h8q8 -3 19 -5q5 -5 12 -9.5t7 -18.5q0 -11 -32.5 -57.5t-72 -107.5t-72.5 -126.5t-33 -112.5q0 -38 36 -38q30 0 83 28.5t105 64.5q60 41 126 95q8 5 19 11q8 5 15 9.5 t12 4.5q8 0 8 -8l3 -6q0 -8 -9.5 -24.5t-39.5 -43.5q-14 -11 -53.5 -42.5t-88.5 -64t-102.5 -58.5t-94.5 -26q-63 0 -89 45t-26 102q1 47 17 93q-35 -38 -80.5 -79t-94.5 -78t-97 -60t-91 -23q-22 0 -41 8t-33 25q-14 14 -23.5 38t-9.5 63zM85 93q0 -19 16 -19q22 0 69.5 27 t105 69.5t119 94.5t110.5 101q14 22 26 45t29 48q8 14 19 24q11 11 27.5 22t43.5 17q5 30 10.5 65.5t5.5 65.5q0 35 -12 59.5t-45 24.5q-35 0 -80.5 -27t-92 -71t-91.5 -96t-80 -101t-68 -101t-57.5 -99.5t-39.5 -87t-15 -61.5zM516 1046q0 35 52 35q25 0 37 -8t25.5 -27 t36 -46.5t68.5 -65.5q8 -8 21.5 -15t24.5 -12.5t16.5 -8t-0.5 -5.5q-30 -8 -60 3t-60 19q-3 0 -27.5 11t-54.5 28.5t-54.5 41t-24.5 50.5z" />
<glyph unicode="&#xe1;" d="M-22 126q0 57 34 147t130 229q117 167 244 256t217 89q63 0 94.5 -37t31.5 -100q0 -74 -38 -183h8q8 -3 19 -5q5 -5 12 -9.5t7 -18.5q0 -11 -32.5 -57.5t-72 -107.5t-72.5 -126.5t-33 -112.5q0 -38 36 -38q30 0 83 28.5t105 64.5q60 41 126 95q8 5 19 11q8 5 15 9.5 t12 4.5q8 0 8 -8l3 -6q0 -8 -9.5 -24.5t-39.5 -43.5q-14 -11 -53.5 -42.5t-88.5 -64t-102.5 -58.5t-94.5 -26q-63 0 -89 45t-26 102q1 47 17 93q-35 -38 -80.5 -79t-94.5 -78t-97 -60t-91 -23q-22 0 -41 8t-33 25q-14 14 -23.5 38t-9.5 63zM85 93q0 -19 16 -19q22 0 69.5 27 t105 69.5t119 94.5t110.5 101q14 22 26 45t29 48q8 14 19 24q11 11 27.5 22t43.5 17q5 30 10.5 65.5t5.5 65.5q0 35 -12 59.5t-45 24.5q-35 0 -80.5 -27t-92 -71t-91.5 -96t-80 -101t-68 -101t-57.5 -99.5t-39.5 -87t-15 -61.5zM521 1051q0 5 5.5 2.5t15 -10.5t22 -16 t26.5 -11q55 -22 90 -27.5t57 -8t35.5 -8t27.5 -27.5q11 -19 9.5 -37t-14.5 -26q-25 -14 -56.5 -4.5t-61.5 27.5t-52 34.5t-24 18.5q-22 22 -46.5 42.5t-33.5 50.5z" />
<glyph unicode="&#xe2;" d="M-22 126q0 57 34 147t130 229q117 167 244 256t217 89q63 0 94.5 -37t31.5 -100q0 -74 -38 -183h8q8 -3 19 -5q5 -5 12 -9.5t7 -18.5q0 -11 -32.5 -57.5t-72 -107.5t-72.5 -126.5t-33 -112.5q0 -38 36 -38q30 0 83 28.5t105 64.5q60 41 126 95q8 5 19 11q8 5 15 9.5 t12 4.5q8 0 8 -8l3 -6q0 -8 -9.5 -24.5t-39.5 -43.5q-14 -11 -53.5 -42.5t-88.5 -64t-102.5 -58.5t-94.5 -26q-63 0 -89 45t-26 102q1 47 17 93q-35 -38 -80.5 -79t-94.5 -78t-97 -60t-91 -23q-22 0 -41 8t-33 25q-14 14 -23.5 38t-9.5 63zM85 93q0 -19 16 -19q22 0 69.5 27 t105 69.5t119 94.5t110.5 101q14 22 26 45t29 48q8 14 19 24q11 11 27.5 22t43.5 17q5 30 10.5 65.5t5.5 65.5q0 35 -12 59.5t-45 24.5q-35 0 -80.5 -27t-92 -71t-91.5 -96t-80 -101t-68 -101t-57.5 -99.5t-39.5 -87t-15 -61.5zM486 967q-8 5 16.5 5t43.5 14q52 27 78 47.5 t42 34.5q11 11 25 11q5 3 24 -3l8 -6q5 -5 9 -5q5 -5 5 -8t3 -3q8 -14 8 -22q5 -16 13.5 -46t35.5 -82q5 -22 27 -41t11 -19q-25 3 -46.5 23t-43.5 37q-3 0 -22 19t-38 44q-33 -14 -64 -16.5t-37 -2.5q-22 3 -49 1.5t-49 17.5z" />
<glyph unicode="&#xe3;" d="M-22 126q0 57 34 147t130 229q117 167 244 256t217 89q63 0 94.5 -37t31.5 -100q0 -74 -38 -183h8q8 -3 19 -5q5 -5 12 -9.5t7 -18.5q0 -11 -32.5 -57.5t-72 -107.5t-72.5 -126.5t-33 -112.5q0 -38 36 -38q30 0 83 28.5t105 64.5q60 41 126 95q8 5 19 11q8 5 15 9.5 t12 4.5q8 0 8 -8l3 -6q0 -8 -9.5 -24.5t-39.5 -43.5q-14 -11 -53.5 -42.5t-88.5 -64t-102.5 -58.5t-94.5 -26q-63 0 -89 45t-26 102q1 47 17 93q-35 -38 -80.5 -79t-94.5 -78t-97 -60t-91 -23q-22 0 -41 8t-33 25q-14 14 -23.5 38t-9.5 63zM85 93q0 -19 16 -19q22 0 69.5 27 t105 69.5t119 94.5t110.5 101q14 22 26 45t29 48q8 14 19 24q11 11 27.5 22t43.5 17q5 30 10.5 65.5t5.5 65.5q0 35 -12 59.5t-45 24.5q-35 0 -80.5 -27t-92 -71t-91.5 -96t-80 -101t-68 -101t-57.5 -99.5t-39.5 -87t-15 -61.5zM505 994q11 30 38.5 45t60 15t65.5 -12.5 t57 -36.5q8 -8 12.5 -17.5t12.5 -19.5t21.5 -23.5t43.5 -32.5q19 -19 42.5 -22t15.5 -11q-19 -16 -45 -12t-51 10q-3 0 -35.5 6.5t-68.5 44.5q-16 14 -32.5 38.5t-76.5 27.5q-22 5 -42.5 -4.5t-17.5 4.5z" />
<glyph unicode="&#xe4;" d="M-22 126q0 57 34 147t130 229q117 167 244 256t217 89q63 0 94.5 -37t31.5 -100q0 -74 -38 -183h8q8 -3 19 -5q5 -5 12 -9.5t7 -18.5q0 -11 -32.5 -57.5t-72 -107.5t-72.5 -126.5t-33 -112.5q0 -38 36 -38q30 0 83 28.5t105 64.5q60 41 126 95q8 5 19 11q8 5 15 9.5 t12 4.5q8 0 8 -8l3 -6q0 -8 -9.5 -24.5t-39.5 -43.5q-14 -11 -53.5 -42.5t-88.5 -64t-102.5 -58.5t-94.5 -26q-63 0 -89 45t-26 102q1 47 17 93q-35 -38 -80.5 -79t-94.5 -78t-97 -60t-91 -23q-22 0 -41 8t-33 25q-14 14 -23.5 38t-9.5 63zM85 93q0 -19 16 -19q22 0 69.5 27 t105 69.5t119 94.5t110.5 101q14 22 26 45t29 48q8 14 19 24q11 11 27.5 22t43.5 17q5 30 10.5 65.5t5.5 65.5q0 35 -12 59.5t-45 24.5q-35 0 -80.5 -27t-92 -71t-91.5 -96t-80 -101t-68 -101t-57.5 -99.5t-39.5 -87t-15 -61.5zM535 1029q8 35 26 57.5t40 29t39.5 0 t26.5 -31.5q5 -22 -2 -41t-18 -35q-11 -19 -30 -39q-33 -22 -63 -18t-19 78zM713 964q8 35 26 57t39.5 29t39.5 0t26 -31q5 -22 -1.5 -41.5t-17.5 -35.5q-11 -19 -30 -38q-33 -22 -63 -18t-19 78z" />
<glyph unicode="&#xe5;" d="M-22 126q0 57 34 147t130 229q117 167 244 256t217 89q63 0 94.5 -37t31.5 -100q0 -74 -38 -183h8q8 -3 19 -5q5 -5 12 -9.5t7 -18.5q0 -11 -32.5 -57.5t-72 -107.5t-72.5 -126.5t-33 -112.5q0 -38 36 -38q30 0 83 28.5t105 64.5q60 41 126 95q8 5 19 11q8 5 15 9.5 t12 4.5q8 0 8 -8l3 -6q0 -8 -9.5 -24.5t-39.5 -43.5q-14 -11 -53.5 -42.5t-88.5 -64t-102.5 -58.5t-94.5 -26q-63 0 -89 45t-26 102q1 47 17 93q-35 -38 -80.5 -79t-94.5 -78t-97 -60t-91 -23q-22 0 -41 8t-33 25q-14 14 -23.5 38t-9.5 63zM85 93q0 -19 16 -19q22 0 69.5 27 t105 69.5t119 94.5t110.5 101q14 22 26 45t29 48q8 14 19 24q11 11 27.5 22t43.5 17q5 30 10.5 65.5t5.5 65.5q0 35 -12 59.5t-45 24.5q-35 0 -80.5 -27t-92 -71t-91.5 -96t-80 -101t-68 -101t-57.5 -99.5t-39.5 -87t-15 -61.5zM641 983q8 49 34 78t53.5 38.5t53.5 0 t34 -42.5q5 -27 -3 -54.5t-21 -49.5q-16 -27 -41 -52q-22 -14 -44 -22t-39.5 -1t-26 31.5t-0.5 73.5zM696 991q-5 -41 10 -43.5t34 10.5l16 22q16 19 11 41q-8 27 -35.5 19t-35.5 -49z" />
<glyph unicode="&#xe6;" horiz-adv-x="1018" d="M-22 126q0 57 34 147t130 229q117 167 244 256t217 89q63 0 94.5 -37t31.5 -100v-25t-3 -24q38 44 84.5 86t96 69.5t98.5 35.5t98 -16q30 -16 44 -47q14 -27 11 -69.5t-33 -107.5q-30 -63 -87 -110q-49 -38 -132.5 -68t-209.5 -19l-2 -5q-57 -76 -88 -142 q-30 -55 -38 -107t30 -74q35 -19 99.5 -6.5t142.5 50.5t161 99.5t160 143.5q22 27 43.5 52t37.5 46q19 25 36 47q14 14 25 24q11 8 19 9.5t8 -14.5l-6 -22q-5 -11 -9 -24.5t-15 -27.5q-14 -14 -44 -56t-71 -89q-74 -74 -153 -136q-68 -55 -152.5 -105.5t-166.5 -69.5 q-30 -11 -79.5 -16.5t-87.5 0.5q-63 8 -89 49t-26 98q1 47 17 93q-35 -38 -80.5 -79t-94.5 -78t-97 -60t-91 -23q-22 0 -41 8t-33 25q-14 14 -23.5 38t-9.5 63zM85 93q0 -19 16 -19q22 0 72.5 28.5t113.5 72t128.5 97t114.5 102.5q5 14 12 25t15 24q30 49 56 91.5t45 67.5 q8 35 8 71q0 35 -12 59.5t-45 24.5q-35 0 -80.5 -27t-92 -71t-91.5 -96t-80 -101t-68 -101t-57.5 -99.5t-39.5 -87t-15 -61.5zM735 461q46 3 103.5 14t108 39.5t88.5 79t46 132.5q-35 3 -84 -24q-44 -22 -109.5 -78t-152.5 -163z" />
<glyph unicode="&#xe7;" horiz-adv-x="622" d="M-216 -170.5q-16 9.5 8 12.5l47 5q38 3 82 8.5t82 10.5q5 14 10.5 25t11.5 22q5 11 10 21q14 33 23.5 49.5t15.5 27.5q-3 0 -3 3q-52 30 -68 92q-14 52 1 142.5t100 232.5q79 131 169 221q35 38 77.5 72t87.5 54.5t90 24.5t89 -17q19 -11 33 -30q14 -16 20.5 -42.5 t3.5 -64.5q-5 -33 -19 -63q-14 -25 -35.5 -46.5t-59.5 -26.5q-22 -3 -31.5 2.5t-12.5 7.5q-19 19 -22 44q3 14 14 19.5t19 10.5q22 5 49 24.5t30 65.5q-41 0 -98 -30q-49 -30 -123 -94t-175 -195q-55 -76 -87 -145q-30 -57 -39.5 -110.5t28.5 -75.5q35 -19 99.5 -6.5 t142 50.5t161 99.5t159.5 143.5q25 27 47 52t38 46q19 25 36 47l24 24q8 8 16.5 9.5t8.5 -14.5q0 -11 -3 -22q-3 -19 -27 -52q-11 -14 -42.5 -56t-72.5 -89q-93 -90 -186 -161q-41 -30 -86 -58.5t-92.5 -51.5t-94 -35.5t-90.5 -12.5q-5 -5 -5 -9.5t-3 -6.5l-3 -6l-19 -57 q-5 -8 -5 -16.5t-6 -16.5q87 19 135 19t70 -9.5t24.5 -24.5t0.5 -26q-5 -19 -26 -38t-45.5 -37t-50.5 -30t-45 -21q-98 -41 -139 -28.5t-49.5 42.5t0.5 64l8 34q-16 -3 -42 -6.5t-52 -5t-49.5 -3t-34.5 -1.5q-14 3 -30 12.5zM97.5 -177.5q-1.5 -16.5 6.5 -30.5q0 -16 11 -24 t23 -12t21.5 -5.5t7.5 -1.5q5 3 9 3t10 5q44 16 73.5 38t32.5 30q8 27 -18 37t-61.5 10t-68 -7t-40.5 -10q-5 -16 -6.5 -32.5z" />
<glyph unicode="&#xe8;" horiz-adv-x="603" d="M0 106q-14 52 1 142.5t103 232.5q79 128 169 218q35 38 77.5 72.5t87.5 55t90 24.5t89 -15q30 -16 44 -47q14 -27 11 -69.5t-33 -107.5q-30 -63 -87 -110q-49 -38 -132.5 -68t-209.5 -19l-2 -5q-57 -76 -88 -142q-30 -55 -38 -107t30 -74q35 -19 99.5 -6.5t142 50.5 t161 99.5t159.5 143.5q22 27 44 52t38 46q19 25 36 47l24 24q11 8 19.5 9.5t8.5 -14.5l-6 -22q-5 -11 -9 -24.5t-15 -27.5q-14 -14 -44 -56t-71 -89q-115 -115 -227 -191q-49 -33 -101 -63t-103.5 -47.5t-103.5 -20t-96 16.5q-52 30 -68 92zM248 461q46 3 104 14t108.5 39.5 t88.5 79t46 132.5q-35 3 -84 -24q-44 -22 -109.5 -78t-153.5 -163zM459 1046q0 35 52 35q25 0 37 -8t25.5 -27t36 -46.5t68.5 -65.5q8 -8 21.5 -15t24.5 -12.5t16.5 -8t-0.5 -5.5q-30 -8 -60 3t-60 19q-3 0 -27.5 11t-54.5 28.5t-54.5 41t-24.5 50.5z" />
<glyph unicode="&#xe9;" horiz-adv-x="603" d="M0 106q-14 52 1 142.5t103 232.5q79 128 169 218q35 38 77.5 72.5t87.5 55t90 24.5t89 -15q30 -16 44 -47q14 -27 11 -69.5t-33 -107.5q-30 -63 -87 -110q-49 -38 -132.5 -68t-209.5 -19l-2 -5q-57 -76 -88 -142q-30 -55 -38 -107t30 -74q35 -19 99.5 -6.5t142 50.5 t161 99.5t159.5 143.5q22 27 44 52t38 46q19 25 36 47l24 24q11 8 19.5 9.5t8.5 -14.5l-6 -22q-5 -11 -9 -24.5t-15 -27.5q-14 -14 -44 -56t-71 -89q-115 -115 -227 -191q-49 -33 -101 -63t-103.5 -47.5t-103.5 -20t-96 16.5q-52 30 -68 92zM248 461q46 3 104 14t108.5 39.5 t88.5 79t46 132.5q-35 3 -84 -24q-44 -22 -109.5 -78t-153.5 -163zM456 1051q0 5 5.5 2.5t15 -10.5t22 -16t26.5 -11q55 -22 90 -27.5t57 -8t35.5 -8t27.5 -27.5q11 -19 9.5 -37t-14.5 -26q-25 -14 -56.5 -4.5t-61.5 27.5t-52 34.5t-24 18.5q-22 22 -46.5 42.5t-33.5 50.5z " />
<glyph unicode="&#xea;" horiz-adv-x="603" d="M0 106q-14 52 1 142.5t103 232.5q79 128 169 218q35 38 77.5 72.5t87.5 55t90 24.5t89 -15q30 -16 44 -47q14 -27 11 -69.5t-33 -107.5q-30 -63 -87 -110q-49 -38 -132.5 -68t-209.5 -19l-2 -5q-57 -76 -88 -142q-30 -55 -38 -107t30 -74q35 -19 99.5 -6.5t142 50.5 t161 99.5t159.5 143.5q22 27 44 52t38 46q19 25 36 47l24 24q11 8 19.5 9.5t8.5 -14.5l-6 -22q-5 -11 -9 -24.5t-15 -27.5q-14 -14 -44 -56t-71 -89q-115 -115 -227 -191q-49 -33 -101 -63t-103.5 -47.5t-103.5 -20t-96 16.5q-52 30 -68 92zM248 461q46 3 104 14t108.5 39.5 t88.5 79t46 132.5q-35 3 -84 -24q-44 -22 -109.5 -78t-153.5 -163zM429 967q-8 5 16.5 5t43.5 14q52 27 78 47.5t42 34.5q11 11 25 11q5 3 24 -3l8 -6q5 -5 9 -5q5 -5 5 -8t3 -3q8 -14 8 -22q5 -16 13.5 -46t35.5 -82q5 -22 27 -41t11 -19q-25 3 -46.5 23t-43.5 37 q-3 0 -22 19t-38 44q-33 -14 -64 -16.5t-37 -2.5q-22 3 -49 1.5t-49 17.5z" />
<glyph unicode="&#xeb;" horiz-adv-x="603" d="M0 106q-14 52 1 142.5t103 232.5q79 128 169 218q35 38 77.5 72.5t87.5 55t90 24.5t89 -15q30 -16 44 -47q14 -27 11 -69.5t-33 -107.5q-30 -63 -87 -110q-49 -38 -132.5 -68t-209.5 -19l-2 -5q-57 -76 -88 -142q-30 -55 -38 -107t30 -74q35 -19 99.5 -6.5t142 50.5 t161 99.5t159.5 143.5q22 27 44 52t38 46q19 25 36 47l24 24q11 8 19.5 9.5t8.5 -14.5l-6 -22q-5 -11 -9 -24.5t-15 -27.5q-14 -14 -44 -56t-71 -89q-115 -115 -227 -191q-49 -33 -101 -63t-103.5 -47.5t-103.5 -20t-96 16.5q-52 30 -68 92zM248 461q46 3 104 14t108.5 39.5 t88.5 79t46 132.5q-35 3 -84 -24q-44 -22 -109.5 -78t-153.5 -163zM461 1029q8 35 26 57.5t40 29t39.5 0t26.5 -31.5q5 -22 -2 -41t-18 -35q-11 -19 -30 -39q-33 -22 -63 -18t-19 78zM639 964q8 35 26 57t39.5 29t39.5 0t26 -31q5 -22 -1.5 -41.5t-17.5 -35.5 q-11 -19 -30 -38q-33 -22 -63 -18t-19 78z" />
<glyph unicode="&#xec;" horiz-adv-x="415" d="M-20.5 132.5q1.5 36.5 9.5 69.5q8 44 34 100t59 114.5t67 112t59 91.5q11 16 20.5 32.5t19.5 30.5q25 38 49.5 73.5t52.5 73.5l2 3q5 5 13.5 12t19.5 2t27.5 -13.5t24.5 -26.5t5.5 -44t-27.5 -67q-22 -35 -35.5 -57t-21.5 -36q-3 -5 -8 -10t-24.5 -37t-47 -73t-56 -87 t-50.5 -82v-3l-11 -19q-19 -30 -34 -57t-26 -55q-16 -33 -25 -60q-5 -22 -5 -41t16 -24q27 -8 82 19t110 65q66 44 136 101q16 11 30 19q11 5 20.5 4t4.5 -15q-3 -11 -11 -21q-14 -22 -38 -44q-14 -11 -55 -44t-91.5 -67t-104 -58.5t-94.5 -21.5q-38 3 -58.5 23t-30 50.5 t-8 67zM366 1046q0 35 52 35q25 0 37 -8t25.5 -27t35.5 -46.5t68 -65.5q8 -8 22 -15l25 -12.5t16.5 -8t-0.5 -5.5q-30 -8 -60 3t-60 19q-3 0 -27.5 11t-54.5 28.5t-54.5 41t-24.5 50.5z" />
<glyph unicode="&#xed;" horiz-adv-x="415" d="M-20.5 132.5q1.5 36.5 9.5 69.5q8 44 34 100t59 114.5t67 112t59 91.5q11 16 20.5 32.5t19.5 30.5q25 38 49.5 73.5t52.5 73.5l2 3q5 5 13.5 12t19.5 2t27.5 -13.5t24.5 -26.5t5.5 -44t-27.5 -67q-22 -35 -35.5 -57t-21.5 -36q-3 -5 -8 -10t-24.5 -37t-47 -73t-56 -87 t-50.5 -82v-3l-11 -19q-19 -30 -34 -57t-26 -55q-16 -33 -25 -60q-5 -22 -5 -41t16 -24q27 -8 82 19t110 65q66 44 136 101q16 11 30 19q11 5 20.5 4t4.5 -15q-3 -11 -11 -21q-14 -22 -38 -44q-14 -11 -55 -44t-91.5 -67t-104 -58.5t-94.5 -21.5q-38 3 -58.5 23t-30 50.5 t-8 67zM347 1051q0 5 5.5 2.5t15 -10.5t21.5 -16t26 -11q55 -22 90.5 -27.5t57 -8t35.5 -8t27 -27.5q11 -19 10 -37t-15 -26q-25 -14 -56.5 -4.5t-61.5 27.5t-51.5 34.5t-24.5 18.5q-22 22 -46.5 42.5t-32.5 50.5z" />
<glyph unicode="&#xee;" horiz-adv-x="415" d="M-20.5 132.5q1.5 36.5 9.5 69.5q8 44 34 100t59 114.5t67 112t59 91.5q11 16 20.5 32.5t19.5 30.5q25 38 49.5 73.5t52.5 73.5l2 3q5 5 13.5 12t19.5 2t27.5 -13.5t24.5 -26.5t5.5 -44t-27.5 -67q-22 -35 -35.5 -57t-21.5 -36q-3 -5 -8 -10t-24.5 -37t-47 -73t-56 -87 t-50.5 -82v-3l-11 -19q-19 -30 -34 -57t-26 -55q-16 -33 -25 -60q-5 -22 -5 -41t16 -24q27 -8 82 19t110 65q66 44 136 101q16 11 30 19q11 5 20.5 4t4.5 -15q-3 -11 -11 -21q-14 -22 -38 -44q-14 -11 -55 -44t-91.5 -67t-104 -58.5t-94.5 -21.5q-38 3 -58.5 23t-30 50.5 t-8 67zM311 967q-8 5 16.5 5t43.5 14q52 27 78 47.5t43 34.5q11 11 24 11q5 3 25 -3l8 -6q5 -5 8 -5q5 -5 6 -8q0 -3 2 -3q8 -14 8 -22q5 -16 13.5 -46t36.5 -82q5 -22 27 -41t11 -19q-25 3 -46.5 23t-43.5 37q-3 0 -22 19t-38 44q-33 -14 -64.5 -16.5t-36.5 -2.5 q-22 3 -49.5 1.5t-49.5 17.5z" />
<glyph unicode="&#xef;" horiz-adv-x="415" d="M-20.5 132.5q1.5 36.5 9.5 69.5q8 44 34 100t59 114.5t67 112t59 91.5q11 16 20.5 32.5t19.5 30.5q25 38 49.5 73.5t52.5 73.5l2 3q5 5 13.5 12t19.5 2t27.5 -13.5t24.5 -26.5t5.5 -44t-27.5 -67q-22 -35 -35.5 -57t-21.5 -36q-3 -5 -8 -10t-24.5 -37t-47 -73t-56 -87 t-50.5 -82v-3l-11 -19q-19 -30 -34 -57t-26 -55q-16 -33 -25 -60q-5 -22 -5 -41t16 -24q27 -8 82 19t110 65q66 44 136 101q16 11 30 19q11 5 20.5 4t4.5 -15q-3 -11 -11 -21q-14 -22 -38 -44q-14 -11 -55 -44t-91.5 -67t-104 -58.5t-94.5 -21.5q-38 3 -58.5 23t-30 50.5 t-8 67zM377 1029q8 35 26 57.5t39.5 29t39.5 0t26 -31.5q5 -22 -1.5 -41t-17.5 -35q-11 -19 -30 -39q-33 -22 -63 -18t-19 78zM554 964q8 35 26 57t40 29t39.5 0t25.5 -31q5 -22 -1.5 -41.5t-17.5 -35.5q-11 -19 -30 -38q-33 -22 -63 -18t-19 78z" />
<glyph unicode="&#xf1;" horiz-adv-x="824" d="M-41 68q-3 11 0 25q19 82 75 235t179 357q14 22 29 46.5t31 49.5q8 14 16.5 26t16.5 26q3 0 3 3l5 5q11 16 27 11q11 -5 27.5 -13.5t26 -26t8 -45t-22.5 -68.5q-38 -60 -58 -96q-19 -27 -36.5 -54t-34.5 -55q44 55 93 109.5t97 102.5t93 82t83 48q66 25 111 11 t62.5 -53.5t6.5 -101t-57 -135.5q-8 -14 -24.5 -39.5t-37 -56t-41 -63t-36.5 -57.5q-5 -8 -17.5 -25.5t-18.5 -31.5q-35 -57 -54 -104q-14 -33 -22 -60q-5 -22 -6.5 -41t17.5 -24q27 -8 80.5 19t107.5 65q63 44 137 101q16 11 30 19q11 5 20.5 4t3.5 -15q-3 -11 -11 -21 q-14 -22 -38 -44q-14 -11 -53.5 -44t-91 -67t-105 -58.5t-94.5 -21.5q-38 3 -58.5 23t-30 51.5t-8.5 67t10 71.5q14 55 50.5 128.5t77.5 144.5t78 125.5t48 70.5q19 27 13 47q-3 11 -8 14q-19 16 -53 1t-67 -40q-41 -30 -85 -68q-188 -180 -272.5 -308.5t-109.5 -180.5 q-22 -66 -30 -117q-5 -25 -19 -22t-19 5q-14 5 -26 23t-18 40zM472 994q11 30 38.5 45t60 15t65.5 -12.5t57 -36.5q8 -8 12.5 -17.5t12.5 -19.5t21.5 -23.5t43.5 -32.5q19 -19 42.5 -22t15.5 -11q-19 -16 -45 -12t-51 10q-3 0 -35.5 6.5t-68.5 44.5q-16 14 -32.5 38.5 t-76.5 27.5q-22 5 -42.5 -4.5t-17.5 4.5z" />
<glyph unicode="&#xf2;" horiz-adv-x="761" d="M-5 169q0 82 31 176.5t88.5 180.5t139.5 155.5t183 99.5q14 41 35.5 56t51.5 15q52 0 90.5 -24.5t61.5 -63t34 -86t11 -91.5v-35.5t-3 -35.5q0 -8 22 -11t52 -1.5t58.5 3t36.5 1.5q30 0 31 -25q0 -19 -22 -24q-38 -11 -89 -12.5t-97 6.5q-30 -57 -73.5 -137.5 t-109.5 -151.5t-154.5 -121.5t-205.5 -47.5q-35 0 -67 8t-55 27t-36.5 52t-13.5 87zM82 145q0 -46 31.5 -60t69.5 -14h24.5t21.5 3t22 5q137 41 239.5 140.5t148.5 241.5v11q-87 33 -131 77t-63 93q-57 -27 -121.5 -86t-117.5 -130t-88.5 -146t-35.5 -135zM494 718 q0 -44 19 -76q11 -16 22 -33q41 -49 118 -79v13q-1 8 2 11q0 104 -35.5 169.5t-76.5 65.5q-27 0 -38 -24.5t-11 -46.5zM502 1046q0 35 52 35q25 0 37 -8t25.5 -27t36 -46.5t68.5 -65.5q8 -8 21.5 -15t24.5 -12.5t16.5 -8t-0.5 -5.5q-30 -8 -60 3t-60 19q-3 0 -27.5 11 t-54.5 28.5t-54.5 41t-24.5 50.5z" />
<glyph unicode="&#xf3;" horiz-adv-x="761" d="M-5 169q0 82 31 176.5t88.5 180.5t139.5 155.5t183 99.5q14 41 35.5 56t51.5 15q52 0 90.5 -24.5t61.5 -63t34 -86t11 -91.5v-35.5t-3 -35.5q0 -8 22 -11t52 -1.5t58.5 3t36.5 1.5q30 0 31 -25q0 -19 -22 -24q-38 -11 -89 -12.5t-97 6.5q-30 -57 -73.5 -137.5 t-109.5 -151.5t-154.5 -121.5t-205.5 -47.5q-35 0 -67 8t-55 27t-36.5 52t-13.5 87zM82 145q0 -46 31.5 -60t69.5 -14h24.5t21.5 3t22 5q137 41 239.5 140.5t148.5 241.5v11q-87 33 -131 77t-63 93q-57 -27 -121.5 -86t-117.5 -130t-88.5 -146t-35.5 -135zM486 1051 q0 5 5.5 2.5t15 -10.5t22 -16t26.5 -11q55 -22 90 -27.5t57 -8t35.5 -8t27.5 -27.5q11 -19 9.5 -37t-14.5 -26q-25 -14 -56.5 -4.5t-61.5 27.5t-52 34.5t-24 18.5q-22 22 -46.5 42.5t-33.5 50.5zM494 718q0 -44 19 -76q11 -16 22 -33q41 -49 118 -79v13q-1 8 2 11 q0 104 -35.5 169.5t-76.5 65.5q-27 0 -38 -24.5t-11 -46.5z" />
<glyph unicode="&#xf4;" horiz-adv-x="761" d="M-5 169q0 82 31 176.5t88.5 180.5t139.5 155.5t183 99.5q14 41 35.5 56t51.5 15q52 0 90.5 -24.5t61.5 -63t34 -86t11 -91.5v-35.5t-3 -35.5q0 -8 22 -11t52 -1.5t58.5 3t36.5 1.5q30 0 31 -25q0 -19 -22 -24q-38 -11 -89 -12.5t-97 6.5q-30 -57 -73.5 -137.5 t-109.5 -151.5t-154.5 -121.5t-205.5 -47.5q-35 0 -67 8t-55 27t-36.5 52t-13.5 87zM82 145q0 -46 31.5 -60t69.5 -14h24.5t21.5 3t22 5q137 41 239.5 140.5t148.5 241.5v11q-87 33 -131 77t-63 93q-57 -27 -121.5 -86t-117.5 -130t-88.5 -146t-35.5 -135zM437 967 q-8 5 16.5 5t43.5 14q52 27 78 47.5t42 34.5q11 11 25 11q5 3 24 -3l8 -6q5 -5 9 -5q5 -5 5 -8t3 -3q8 -14 8 -22q5 -16 13.5 -46t35.5 -82q5 -22 27 -41t11 -19q-25 3 -46.5 23t-43.5 37q-3 0 -22 19t-38 44q-33 -14 -64 -16.5t-37 -2.5q-22 3 -49 1.5t-49 17.5zM494 718 q0 -44 19 -76q11 -16 22 -33q41 -49 118 -79v13q-1 8 2 11q0 104 -35.5 169.5t-76.5 65.5q-27 0 -38 -24.5t-11 -46.5z" />
<glyph unicode="&#xf5;" horiz-adv-x="761" d="M-5 169q0 82 31 176.5t88.5 180.5t139.5 155.5t183 99.5q14 41 35.5 56t51.5 15q52 0 90.5 -24.5t61.5 -63t34 -86t11 -91.5v-35.5t-3 -35.5q0 -8 22 -11t52 -1.5t58.5 3t36.5 1.5q30 0 31 -25q0 -19 -22 -24q-38 -11 -89 -12.5t-97 6.5q-30 -57 -73.5 -137.5 t-109.5 -151.5t-154.5 -121.5t-205.5 -47.5q-35 0 -67 8t-55 27t-36.5 52t-13.5 87zM82 145q0 -46 31.5 -60t69.5 -14h24.5t21.5 3t22 5q137 41 239.5 140.5t148.5 241.5v11q-87 33 -131 77t-63 93q-57 -27 -121.5 -86t-117.5 -130t-88.5 -146t-35.5 -135zM456 994 q11 30 38.5 45t60 15t65.5 -12.5t57 -36.5q8 -8 12.5 -17.5t12.5 -19.5t21.5 -23.5t43.5 -32.5q19 -19 42.5 -22t15.5 -11q-19 -16 -45 -12t-51 10q-3 0 -35.5 6.5t-68.5 44.5q-16 14 -32.5 38.5t-76.5 27.5q-22 5 -42.5 -4.5t-17.5 4.5zM494 718q0 -44 19 -76 q11 -16 22 -33q41 -49 118 -79v13q-1 8 2 11q0 104 -35.5 169.5t-76.5 65.5q-27 0 -38 -24.5t-11 -46.5z" />
<glyph unicode="&#xf6;" horiz-adv-x="761" d="M-5 169q0 82 31 176.5t88.5 180.5t139.5 155.5t183 99.5q14 41 35.5 56t51.5 15q52 0 90.5 -24.5t61.5 -63t34 -86t11 -91.5v-35.5t-3 -35.5q0 -8 22 -11t52 -1.5t58.5 3t36.5 1.5q30 0 31 -25q0 -19 -22 -24q-38 -11 -89 -12.5t-97 6.5q-30 -57 -73.5 -137.5 t-109.5 -151.5t-154.5 -121.5t-205.5 -47.5q-35 0 -67 8t-55 27t-36.5 52t-13.5 87zM82 145q0 -46 31.5 -60t69.5 -14h24.5t21.5 3t22 5q137 41 239.5 140.5t148.5 241.5v11q-87 33 -131 77t-63 93q-57 -27 -121.5 -86t-117.5 -130t-88.5 -146t-35.5 -135zM494 718 q0 -44 19 -76q11 -16 22 -33q41 -49 118 -79v13q-1 8 2 11q0 104 -35.5 169.5t-76.5 65.5q-27 0 -38 -24.5t-11 -46.5zM502 1029q8 35 26 57.5t40 29t39.5 0t26.5 -31.5q5 -22 -2 -41t-18 -35q-11 -19 -30 -39q-33 -22 -63 -18t-19 78zM680 964q8 35 26 57t39.5 29t39.5 0 t26 -31q5 -22 -1.5 -41.5t-17.5 -35.5q-11 -19 -30 -38q-33 -22 -63 -18t-19 78z" />
<glyph unicode="&#xf7;" horiz-adv-x="709" d="M61.5 342.5q-1.5 17.5 9.5 34t34 29t70 12.5l420 -8h3q8 0 17.5 -4.5t12.5 -15.5q3 -14 4.5 -31.5t-9.5 -33.5t-34.5 -28.5t-69.5 -12.5h-38.5h-54.5t-113 1.5t-215 6.5h-2q-8 0 -18 4t-12 15q-3 14 -4.5 31.5zM227 115q8 35 25.5 57t39.5 29t40 0t26 -32q5 -22 -1.5 -41 t-17.5 -35q-11 -19 -30 -38q-33 -22 -63 -18t-19 78zM336 549q8 35 26 57t39.5 29t39.5 0t26 -32q5 -22 -1.5 -41t-17.5 -35q-11 -19 -30 -38q-33 -22 -63 -18t-19 78z" />
<glyph unicode="&#xf8;" horiz-adv-x="761" d="M-5 169q0 82 31 176.5t88.5 180.5t139.5 155.5t183 99.5q14 41 35.5 56t51.5 15q52 0 90.5 -24.5t61.5 -63t34 -86t11 -91.5v-35.5t-3 -35.5q0 -8 22 -11t52 -1.5t58.5 3t36.5 1.5q30 0 31 -25q0 -19 -22 -24q-38 -11 -89 -12.5t-97 6.5q-30 -57 -73.5 -137.5 t-109.5 -151.5t-154.5 -121.5t-205.5 -47.5q-35 0 -67 8t-55 27t-36.5 52t-13.5 87zM64.5 -67q-1.5 18 14.5 48l593 999v3l10.5 10.5t16.5 5.5h26t26 -8t12.5 -24.5t-12.5 -46.5q-5 -11 -42 -71t-90.5 -150t-119 -200.5t-129.5 -218.5t-120 -203.5t-94 -158.5 q-5 -19 -28 -19h-27.5t-24 8t-12 26zM82 145q0 -46 31.5 -60t69.5 -14h24.5t21.5 3t22 5q137 41 239.5 140.5t148.5 241.5v11q-87 33 -131 77t-63 93q-57 -27 -121.5 -86t-117.5 -130t-88.5 -146t-35.5 -135zM494 718q0 -44 19 -76q11 -16 22 -33q41 -49 118 -79v13 q-1 8 2 11q0 104 -35.5 169.5t-76.5 65.5q-27 0 -38 -24.5t-11 -46.5z" />
<glyph unicode="&#xf9;" horiz-adv-x="821" d="M-5.5 196.5q5.5 43.5 16.5 80.5t19 53q30 76 72.5 164t105.5 191q14 22 28.5 46.5t31.5 49.5q8 14 16 26t16 26l3 3q0 3 3 5q14 14 27 11q11 -5 27.5 -13.5t26 -26t8 -45t-23.5 -68.5q-35 -60 -57 -96q-55 -82 -105.5 -165t-88.5 -162q-33 -68 -35.5 -106.5t8.5 -60.5 q11 -25 35 -33q27 -3 68.5 27.5t87.5 79.5t94 109t91.5 120t78 110.5t53.5 80.5q5 11 11 17q3 3 2.5 5.5t2.5 5.5h3q8 14 16 26t17 26q22 38 47.5 73.5t53.5 73.5l2 3q5 5 13.5 12t19.5 2t26 -13.5t24.5 -26.5t7 -44t-27.5 -67q-22 -35 -35.5 -57t-21.5 -36q-3 -5 -8 -10 t-24.5 -37t-47 -73t-56 -87t-50.5 -82v-3l-13 -19q-16 -30 -31.5 -57t-26.5 -55q-16 -33 -24 -60q-5 -22 -5.5 -41t16.5 -24q27 -8 81.5 19t109.5 65q65 44 136 101q19 11 30 19q11 5 19.5 4t5.5 -15q-3 -11 -11 -21q-14 -22 -38 -44q-14 -11 -55 -44t-91.5 -67t-105 -58.5 t-95.5 -21.5q-35 3 -56 23t-30.5 50.5t-8 67t9.5 69.5q3 5 3 12t3 13q-38 -46 -76.5 -88.5t-75.5 -74t-72.5 -49.5t-65.5 -15q-49 3 -74 33q-30 30 -38 75t-2.5 88.5zM450 1046q0 35 52 35q25 0 37 -8t25.5 -27t36 -46.5t68.5 -65.5q8 -8 21.5 -15t24.5 -12.5t16.5 -8 t-0.5 -5.5q-30 -8 -60 3t-60 19q-3 0 -27.5 11t-54.5 28.5t-54.5 41t-24.5 50.5z" />
<glyph unicode="&#xfa;" horiz-adv-x="821" d="M-5.5 196.5q5.5 43.5 16.5 80.5t19 53q30 76 72.5 164t105.5 191q14 22 28.5 46.5t31.5 49.5q8 14 16 26t16 26l3 3q0 3 3 5q14 14 27 11q11 -5 27.5 -13.5t26 -26t8 -45t-23.5 -68.5q-35 -60 -57 -96q-55 -82 -105.5 -165t-88.5 -162q-33 -68 -35.5 -106.5t8.5 -60.5 q11 -25 35 -33q27 -3 68.5 27.5t87.5 79.5t94 109t91.5 120t78 110.5t53.5 80.5q5 11 11 17q3 3 2.5 5.5t2.5 5.5h3q8 14 16 26t17 26q22 38 47.5 73.5t53.5 73.5l2 3q5 5 13.5 12t19.5 2t26 -13.5t24.5 -26.5t7 -44t-27.5 -67q-22 -35 -35.5 -57t-21.5 -36q-3 -5 -8 -10 t-24.5 -37t-47 -73t-56 -87t-50.5 -82v-3l-13 -19q-16 -30 -31.5 -57t-26.5 -55q-16 -33 -24 -60q-5 -22 -5.5 -41t16.5 -24q27 -8 81.5 19t109.5 65q65 44 136 101q19 11 30 19q11 5 19.5 4t5.5 -15q-3 -11 -11 -21q-14 -22 -38 -44q-14 -11 -55 -44t-91.5 -67t-105 -58.5 t-95.5 -21.5q-35 3 -56 23t-30.5 50.5t-8 67t9.5 69.5q3 5 3 12t3 13q-38 -46 -76.5 -88.5t-75.5 -74t-72.5 -49.5t-65.5 -15q-49 3 -74 33q-30 30 -38 75t-2.5 88.5zM447 1051q0 5 5.5 2.5t15 -10.5t22 -16t26.5 -11q55 -22 90 -27.5t57 -8t35.5 -8t27.5 -27.5 q11 -19 9.5 -37t-14.5 -26q-25 -14 -56.5 -4.5t-61.5 27.5t-52 34.5t-24 18.5q-22 22 -46.5 42.5t-33.5 50.5z" />
<glyph unicode="&#xfb;" horiz-adv-x="821" d="M-5.5 196.5q5.5 43.5 16.5 80.5t19 53q30 76 72.5 164t105.5 191q14 22 28.5 46.5t31.5 49.5q8 14 16 26t16 26l3 3q0 3 3 5q14 14 27 11q11 -5 27.5 -13.5t26 -26t8 -45t-23.5 -68.5q-35 -60 -57 -96q-55 -82 -105.5 -165t-88.5 -162q-33 -68 -35.5 -106.5t8.5 -60.5 q11 -25 35 -33q27 -3 68.5 27.5t87.5 79.5t94 109t91.5 120t78 110.5t53.5 80.5q5 11 11 17q3 3 2.5 5.5t2.5 5.5h3q8 14 16 26t17 26q22 38 47.5 73.5t53.5 73.5l2 3q5 5 13.5 12t19.5 2t26 -13.5t24.5 -26.5t7 -44t-27.5 -67q-22 -35 -35.5 -57t-21.5 -36q-3 -5 -8 -10 t-24.5 -37t-47 -73t-56 -87t-50.5 -82v-3l-13 -19q-16 -30 -31.5 -57t-26.5 -55q-16 -33 -24 -60q-5 -22 -5.5 -41t16.5 -24q27 -8 81.5 19t109.5 65q65 44 136 101q19 11 30 19q11 5 19.5 4t5.5 -15q-3 -11 -11 -21q-14 -22 -38 -44q-14 -11 -55 -44t-91.5 -67t-105 -58.5 t-95.5 -21.5q-35 3 -56 23t-30.5 50.5t-8 67t9.5 69.5q3 5 3 12t3 13q-38 -46 -76.5 -88.5t-75.5 -74t-72.5 -49.5t-65.5 -15q-49 3 -74 33q-30 30 -38 75t-2.5 88.5zM472 1008q-8 5 16.5 5t43.5 14q52 27 78 47.5t42 34.5q11 11 25 11q5 3 24 -3l8 -6q5 -5 9 -5q5 -5 5 -8 t3 -3q8 -14 8 -22q5 -16 13.5 -46t35.5 -82q5 -22 27 -41t11 -19q-25 3 -46.5 23t-43.5 37q-3 0 -22 19t-38 44q-33 -14 -64 -16.5t-37 -2.5q-22 3 -49 1.5t-49 17.5z" />
<glyph unicode="&#xfc;" horiz-adv-x="821" d="M-5.5 196.5q5.5 43.5 16.5 80.5t19 53q30 76 72.5 164t105.5 191q14 22 28.5 46.5t31.5 49.5q8 14 16 26t16 26l3 3q0 3 3 5q14 14 27 11q11 -5 27.5 -13.5t26 -26t8 -45t-23.5 -68.5q-35 -60 -57 -96q-55 -82 -105.5 -165t-88.5 -162q-33 -68 -35.5 -106.5t8.5 -60.5 q11 -25 35 -33q27 -3 68.5 27.5t87.5 79.5t94 109t91.5 120t78 110.5t53.5 80.5q5 11 11 17q3 3 2.5 5.5t2.5 5.5h3q8 14 16 26t17 26q22 38 47.5 73.5t53.5 73.5l2 3q5 5 13.5 12t19.5 2t26 -13.5t24.5 -26.5t7 -44t-27.5 -67q-22 -35 -35.5 -57t-21.5 -36q-3 -5 -8 -10 t-24.5 -37t-47 -73t-56 -87t-50.5 -82v-3l-13 -19q-16 -30 -31.5 -57t-26.5 -55q-16 -33 -24 -60q-5 -22 -5.5 -41t16.5 -24q27 -8 81.5 19t109.5 65q65 44 136 101q19 11 30 19q11 5 19.5 4t5.5 -15q-3 -11 -11 -21q-14 -22 -38 -44q-14 -11 -55 -44t-91.5 -67t-105 -58.5 t-95.5 -21.5q-35 3 -56 23t-30.5 50.5t-8 67t9.5 69.5q3 5 3 12t3 13q-38 -46 -76.5 -88.5t-75.5 -74t-72.5 -49.5t-65.5 -15q-49 3 -74 33q-30 30 -38 75t-2.5 88.5zM527 1029q8 35 26 57.5t40 29t39.5 0t26.5 -31.5q5 -22 -2 -41t-18 -35q-11 -19 -30 -39q-33 -22 -63 -18 t-19 78zM705 964q8 35 26 57t39.5 29t39.5 0t26 -31q5 -22 -1.5 -41.5t-17.5 -35.5q-11 -19 -30 -38q-33 -22 -63 -18t-19 78z" />
<glyph unicode="&#xfd;" horiz-adv-x="819" d="M-1161.5 -101q-1.5 22 11.5 38q30 38 71 9.5t36 -99.5q-3 -25 -3 -49q0 -22 1.5 -44t12.5 -35q25 -35 65.5 -75t103.5 -74t147.5 -58.5t199.5 -30.5q137 -5 261 57.5t232 161t196.5 218.5t156.5 227q-57 -63 -115.5 -105.5t-105.5 -39.5q-49 3 -74 33q-30 30 -38 75 t-2.5 88.5t16.5 80.5t19 53q30 76 72.5 164t105.5 191q14 22 28.5 46.5t31.5 49.5q8 14 16 26t16 26l3 3q0 3 3 5q14 14 27 11q11 -5 27.5 -13.5t26 -26t8 -45t-23.5 -68.5q-35 -60 -57 -96q-55 -82 -105.5 -165t-88.5 -162q-33 -68 -35.5 -106.5t8.5 -60.5q11 -25 35 -33 q27 -3 68.5 27.5t87.5 79.5t94 109t91.5 120t78 110.5t53.5 80.5q5 11 11 17q3 3 2.5 5.5t2.5 5.5h3q8 14 16 26t17 26q22 38 47.5 73.5t53.5 73.5l2 3q5 5 13.5 12t19.5 2t26 -13.5t24.5 -26.5t7 -44t-27.5 -67q-22 -35 -35.5 -57t-21.5 -36q-3 -5 -8 -10t-24.5 -37 t-47 -73t-56 -87t-50.5 -82v-3l-13 -19q-5 -8 -9.5 -17.5t-10.5 -17.5q-14 -22 -23 -40t-15 -37q-16 -33 -24 -60q-5 -22 -5.5 -41t16.5 -24q27 -8 81.5 19t109.5 65q66 44 136 101q19 11 30 19q11 5 19.5 4t5.5 -15q-3 -11 -11 -21q-14 -22 -38 -44q-14 -11 -55 -44 t-91.5 -67t-105 -58.5t-95.5 -21.5q-27 3 -45 15t-29 31q-74 -104 -170.5 -214.5t-213 -200.5t-251.5 -146t-285 -48q-60 3 -146 21t-176 61.5t-171 117t-130 185.5q-11 22 -16 44q-5 19 -6.5 41zM461 1051q0 5 5.5 2.5t15 -10.5t22 -16t26.5 -11q55 -22 90 -27.5t57 -8 t35.5 -8t27.5 -27.5q11 -19 9.5 -37t-14.5 -26q-25 -14 -56.5 -4.5t-61.5 27.5t-52 34.5t-24 18.5q-22 22 -46.5 42.5t-33.5 50.5z" />
<glyph unicode="&#xff;" horiz-adv-x="819" d="M-1161.5 -101q-1.5 22 11.5 38q30 38 71 9.5t36 -99.5q-3 -25 -3 -49q0 -22 1.5 -44t12.5 -35q25 -35 65.5 -75t103.5 -74t147.5 -58.5t199.5 -30.5q137 -5 261 57.5t232 161t196.5 218.5t156.5 227q-57 -63 -115.5 -105.5t-105.5 -39.5q-49 3 -74 33q-30 30 -38 75 t-2.5 88.5t16.5 80.5t19 53q30 76 72.5 164t105.5 191q14 22 28.5 46.5t31.5 49.5q8 14 16 26t16 26l3 3q0 3 3 5q14 14 27 11q11 -5 27.5 -13.5t26 -26t8 -45t-23.5 -68.5q-35 -60 -57 -96q-55 -82 -105.5 -165t-88.5 -162q-33 -68 -35.5 -106.5t8.5 -60.5q11 -25 35 -33 q27 -3 68.5 27.5t87.5 79.5t94 109t91.5 120t78 110.5t53.5 80.5q5 11 11 17q3 3 2.5 5.5t2.5 5.5h3q8 14 16 26t17 26q22 38 47.5 73.5t53.5 73.5l2 3q5 5 13.5 12t19.5 2t26 -13.5t24.5 -26.5t7 -44t-27.5 -67q-22 -35 -35.5 -57t-21.5 -36q-3 -5 -8 -10t-24.5 -37 t-47 -73t-56 -87t-50.5 -82v-3l-13 -19q-5 -8 -9.5 -17.5t-10.5 -17.5q-14 -22 -23 -40t-15 -37q-16 -33 -24 -60q-5 -22 -5.5 -41t16.5 -24q27 -8 81.5 19t109.5 65q66 44 136 101q19 11 30 19q11 5 19.5 4t5.5 -15q-3 -11 -11 -21q-14 -22 -38 -44q-14 -11 -55 -44 t-91.5 -67t-105 -58.5t-95.5 -21.5q-27 3 -45 15t-29 31q-74 -104 -170.5 -214.5t-213 -200.5t-251.5 -146t-285 -48q-60 3 -146 21t-176 61.5t-171 117t-130 185.5q-11 22 -16 44q-5 19 -6.5 41zM505 1029q8 35 26 57.5t40 29t39.5 0t26.5 -31.5q5 -22 -2 -41t-18 -35 q-11 -19 -30 -39q-33 -22 -63 -18t-19 78zM683 964q8 35 26 57t39.5 29t39.5 0t26 -31q5 -22 -1.5 -41.5t-17.5 -35.5q-11 -19 -30 -38q-33 -22 -63 -18t-19 78z" />
<glyph unicode="&#x153;" horiz-adv-x="1114" d="M-5 169q0 82 31 176.5t88.5 180.5t139.5 155.5t183 99.5q14 41 35.5 56t51.5 15q90 0 135.5 -64t55.5 -144q38 46 86 91.5t98.5 75.5t104 39.5t105.5 -14.5q30 -16 43 -47q14 -27 11.5 -69.5t-33.5 -107.5q-30 -63 -87 -110q-49 -38 -132.5 -68t-208.5 -19l-3 -5 q-57 -76 -87 -142q-30 -55 -38.5 -107t29.5 -74q35 -19 99.5 -6.5t142.5 50.5t161.5 99.5t159.5 143.5q22 27 44 52t38 46q19 25 35 47q14 14 25 24q11 8 19 9.5t8 -14.5q-3 -11 -5 -22q-5 -11 -9.5 -24.5t-15.5 -27.5q-14 -14 -43.5 -56t-70.5 -89q-115 -115 -227 -191 q-49 -33 -101 -63t-104 -47.5t-103.5 -20t-95.5 16.5q-16 11 -30 24q-14 14 -25 34.5t-16 50.5q-63 -57 -142 -94t-180 -34q-35 0 -67 8t-55 27t-36.5 52t-13.5 87zM82 145q0 -46 31.5 -60t69.5 -14h24.5t21.5 3q11 2 22 5q134 41 238 139q5 52 29.5 115t76.5 148v2l6 6 q-68 30 -104 69.5t-52 83.5q-57 -27 -121.5 -86t-117.5 -130t-88.5 -146t-35.5 -135zM494 718q0 -44 19 -76q11 -17 22 -33q33 -44 99 -71l21 30q-5 96 -39 158.5t-73 62.5q-27 0 -38 -24.5t-11 -46.5zM740 461q46 3 103.5 14t108 39.5t89 79t46.5 132.5q-35 3 -85 -24 q-44 -22 -109.5 -78t-152.5 -163z" />
<glyph unicode="&#x178;" horiz-adv-x="2356" d="M82 -119q11 97 57 193q46 98 124 176t177 127q153 71 322 68q180 -3 385 -95q3 8 8 19q14 30 29 60t34 63q30 52 93 151.5t134 215.5t140.5 232t112.5 203q38 76 46.5 120t3 67.5t-20.5 30t-26 6.5q-76 -3 -178.5 -76.5t-217.5 -166.5q-93 -76 -196.5 -155.5 t-212.5 -136.5q-161 -85 -309 -85q-76 0 -150 25q-5 3 -38 15t-76.5 38t-89 67t-75.5 98q-63 120 -13 268q71 213 333 235q52 5 98.5 1t78.5 -9q3 0 4.5 -1.5t6.5 -1.5q8 0 17 -3h2q5 -3 13.5 -3t14.5 -5h5l6 -3q38 -14 49 -41q11 -22 2.5 -38t-29 -24.5t-49 -5.5t-55.5 25 q-16 16 -36 27q-16 11 -36.5 19t-42.5 11q-14 -3 -23.5 -3h-22.5q-227 -22 -284 -196q-41 -128 8 -227q27 -52 68 -87.5t80.5 -58.5t69.5 -34l30 -11q186 -66 418 57q104 55 206.5 132.5t192.5 151.5q68 57 133.5 108t124.5 86.5t112 51.5t102 5q93 -22 120 -98 q33 -93 -52 -251q-16 -35 -94 -176t-250 -389q-74 -106 -128.5 -195t-86.5 -160q126 -71 248 -170q227 115 527 454q115 131 210.5 255t155.5 209q19 30 38 57t39 55v3q101 145 178.5 251t107.5 144q5 5 13.5 11t19.5 0q19 -5 43.5 -31t27.5 -81q0 -5 -1.5 -12t-9.5 -18 q-22 -30 -86 -113t-148.5 -200.5t-181.5 -259.5t-187 -292q-25 -41 -53.5 -89t-57.5 -97t-53.5 -95.5t-40.5 -81.5l-8 -17q-22 -49 -26 -84.5t23 -40.5q27 -8 81.5 19t109.5 65q66 44 137 101q19 11 30 19q11 5 19 4t5 -15q-3 -11 -11 -21q-14 -22 -38 -44q-14 -11 -55 -44 t-91.5 -67t-105 -58.5t-95.5 -21.5q-33 3 -53 19t-34 41q-19 -30 -41 -61.5t-44 -61.5q-14 -19 -26 -37t-26 -34q183 -197 369 -459q3 -3 3 -4t2 -4l17 -27q11 -25 16 -47q5 -19 4 -39.5t-12 -36.5q-14 -19 -33 -23t-35.5 6.5t-28.5 38t-10 68.5q0 19 -2 41q-5 44 -28 85 q-11 11 -13 16l-8 8l2 -3q-139 188 -278 336q-172 -213 -347 -346q-284 -213 -568 -219q-3 0 -8.5 -1.5t-13.5 -1.5q-38 0 -117 8.5t-175 38.5q-147 46 -248 131q-131 109 -181 273q-27 87 -16 184zM137.5 -123q-9.5 -87 12.5 -164q87 -276 393 -368q76 -25 142 -33t107 -8 q109 0 206 32.5t185.5 87t169.5 128.5t157 156q41 46 80.5 93.5t77.5 102.5q-87 87 -177 162q-104 -49 -194 -50q-14 0 -27.5 1.5t-27.5 4.5q-101 16 -131 98q-25 68 14 180q-109 49 -204.5 69.5t-175.5 20.5q-87 0 -158 -19t-126 -43q-87 -46 -158 -117.5t-115 -161.5 q-41 -85 -50.5 -172zM1218 105q24 -45 120 -31q25 5 51 10.5t56 19.5q-55 41 -108.5 76.5t-107.5 65.5q-35 -96 -11 -141zM1546 90q38 -30 77.5 -65.5t77.5 -73.5q60 85 115 171t101 163.5t83 143t59 109.5q-109 -123 -210 -217t-191 -160q-30 -22 -57.5 -38.5t-54.5 -32.5z M2209 1706q8 35 26 57.5t40 29t39.5 0t26.5 -31.5q5 -22 -2 -41t-18 -35q-11 -19 -30 -39q-33 -22 -63 -18t-19 78zM2387 1641q8 35 26 57t39.5 29t39.5 0t26 -31q5 -22 -1.5 -41.5t-17.5 -35.5q-11 -19 -30 -38q-33 -22 -63 -18t-19 78z" />
<glyph unicode="&#x2c6;" horiz-adv-x="442" d="M11 967q-8 5 16.5 5t43.5 14q52 27 78 47.5t42 34.5q11 11 25 11q5 3 24 -3l8 -6q5 -5 9 -5q5 -5 5 -8t3 -3q8 -14 8 -22q5 -16 13.5 -46t35.5 -82q5 -22 27 -41t11 -19q-25 3 -46.5 23t-43.5 37q-3 0 -22 19t-38 44q-33 -14 -64 -16.5t-37 -2.5q-22 3 -49 1.5t-49 17.5z " />
<glyph unicode="&#x2dc;" horiz-adv-x="398" d="M8 994q11 30 38.5 45t60 15t65.5 -12.5t57 -36.5q8 -8 12.5 -17.5t12.5 -19.5t21.5 -23.5t43.5 -32.5q19 -19 42.5 -22t15.5 -11q-19 -16 -45 -12t-51 10q-3 0 -35.5 6.5t-68.5 44.5q-16 14 -32.5 38.5t-76.5 27.5q-22 5 -42.5 -4.5t-17.5 4.5z" />
<glyph unicode="&#x2000;" horiz-adv-x="940" />
<glyph unicode="&#x2001;" horiz-adv-x="1880" />
<glyph unicode="&#x2002;" horiz-adv-x="940" />
<glyph unicode="&#x2003;" horiz-adv-x="1880" />
<glyph unicode="&#x2004;" horiz-adv-x="626" />
<glyph unicode="&#x2005;" horiz-adv-x="470" />
<glyph unicode="&#x2006;" horiz-adv-x="313" />
<glyph unicode="&#x2007;" horiz-adv-x="313" />
<glyph unicode="&#x2008;" horiz-adv-x="235" />
<glyph unicode="&#x2009;" horiz-adv-x="376" />
<glyph unicode="&#x200a;" horiz-adv-x="104" />
<glyph unicode="&#x2010;" horiz-adv-x="849" d="M146 342.5q-1 17.5 10 34t34 29t69 12.5l421 -8h3q8 0 17.5 -4.5t12.5 -15.5q3 -14 4 -31.5t-10 -33.5t-34 -28.5t-70 -12.5h-38h-54.5t-113.5 1.5t-214 6.5h-3q-8 0 -17.5 4t-12.5 15q-3 14 -4 31.5z" />
<glyph unicode="&#x2011;" horiz-adv-x="849" d="M146 342.5q-1 17.5 10 34t34 29t69 12.5l421 -8h3q8 0 17.5 -4.5t12.5 -15.5q3 -14 4 -31.5t-10 -33.5t-34 -28.5t-70 -12.5h-38h-54.5t-113.5 1.5t-214 6.5h-3q-8 0 -17.5 4t-12.5 15q-3 14 -4 31.5z" />
<glyph unicode="&#x2012;" horiz-adv-x="849" d="M146 342.5q-1 17.5 10 34t34 29t69 12.5l421 -8h3q8 0 17.5 -4.5t12.5 -15.5q3 -14 4 -31.5t-10 -33.5t-34 -28.5t-70 -12.5h-38h-54.5t-113.5 1.5t-214 6.5h-3q-8 0 -17.5 4t-12.5 15q-3 14 -4 31.5z" />
<glyph unicode="&#x2013;" horiz-adv-x="985" d="M209 342.5q-1 17.5 9.5 34t34 29t69.5 12.5l421 -8h2q8 0 18 -4.5t13 -15.5q3 -14 4 -31.5t-10 -33.5t-34 -28.5t-70 -12.5h-38h-54.5t-113.5 1.5t-214 6.5h-3q-8 0 -17.5 4t-12.5 15q-3 14 -4 31.5z" />
<glyph unicode="&#x2014;" horiz-adv-x="2324" d="M145.5 342.5q-3.5 17.5 36 34t122 29t246.5 12.5l1510 -8h11q28 0 62.5 -4.5t44.5 -15.5q11 -14 14.5 -31.5t-36 -33.5t-122 -28.5t-250.5 -12.5h-136.5h-195.5t-407 1.5t-767 6.5h-11q-28 0 -62.5 4t-44.5 15q-11 14 -14.5 31.5z" />
<glyph unicode="&#x2019;" horiz-adv-x="813" d="M672 1234q-14 9 0 44q5 14 8 24.5t5 21.5q3 11 6 25q8 35 26 57t39.5 29t39.5 0t26 -31q5 -22 -1.5 -41.5t-17.5 -35.5q-11 -19 -30 -38q5 -5 -3 -6q-3 -3 -14 -13.5t-24.5 -20t-30 -18t-27.5 -2.5z" />
<glyph unicode="&#x2026;" horiz-adv-x="868" d="M183 -16q8 35 26 57t39.5 28.5t39.5 0t26 -31.5q5 -22 -1.5 -41t-17.5 -35q-11 -19 -30 -38q-33 -22 -63 -18t-19 78zM396 -16q8 35 26 57t39.5 28.5t39.5 0t26 -31.5q5 -22 -1.5 -41t-17.5 -35q-11 -19 -30 -38q-33 -22 -63 -18t-19 78zM609 -16q8 35 26 57t39.5 28.5 t39.5 0t26 -31.5q5 -22 -1.5 -41t-17.5 -35q-11 -19 -30 -38q-33 -22 -63 -18t-19 78z" />
<glyph unicode="&#x202f;" horiz-adv-x="376" />
<glyph unicode="&#x205f;" horiz-adv-x="470" />
<glyph unicode="&#x2122;" horiz-adv-x="2779" d="M281 1445q-3 14 7 27t21 24t27 22q8 3 16 8q16 11 33 11h8q46 14 118.5 34.5t165.5 39.5q96 19 186 33t180 19q112 8 220 6.5t209 -11.5l147 -17q172 -22 326.5 -35.5t277.5 -2.5q169 16 237 93q11 14 14 28.5t3 28.5q0 16 -6 33q-19 60 9.5 83t53.5 -1q19 -19 19 -55 q0 -16 -5 -35v-3q0 -3 -1.5 -4.5t-1.5 -3.5q-27 -85 -87 -126q-71 -57 -180.5 -79t-243 -19t-284 19t-303.5 35q0 -5 1.5 -10.5t1.5 -10.5q0 -14 -8 -22q-16 -22 -32.5 -41t-42.5 -56t-70 -100t-115 -172q-38 -57 -83 -132t-72 -130l-8 -11q-16 -35 -20.5 -62.5t14.5 -33.5 q16 -5 46.5 7.5t63 33t64 42t50.5 35.5q16 63 58.5 170.5t127.5 252.5l46 71l25 38v3q3 0 2.5 1.5t2.5 1.5q5 14 19 8q19 -5 39.5 -28.5t-9.5 -83.5l-43 -71l-28 -38q55 71 113.5 131t105.5 79q49 16 81.5 6.5t45 -39.5t3 -75t-45.5 -99l-5 -9q55 71 113.5 132.5t107.5 83.5 q49 16 82 6.5t46.5 -39.5t5.5 -75t-44 -99l-104 -159q-3 -5 -11 -19t-13 -25q-22 -33 -41 -76q-11 -25 -16 -44q-5 -16 -5.5 -31t13.5 -18q19 -5 58.5 15.5t80.5 47.5q49 30 101 74q14 11 25 16q19 11 16 -8q-3 -8 -8 -16q-5 -5 -12 -15t-18 -18q-8 -8 -38.5 -33t-67 -49.5 t-77.5 -43.5t-71 -16q-55 5 -66 55.5t3 102.5q8 41 35.5 95.5t59 106.5t57.5 91.5t34 53.5q8 11 9.5 19t1.5 14q-3 8 -6 11q-16 14 -40.5 2.5t-46.5 -30.5q-27 -22 -55 -54q-134 -150 -195.5 -250t-80.5 -138q-5 -14 -6.5 -29t-4.5 -28q-5 -19 -14.5 -16.5t-12.5 5.5 q-27 11 -33 46q-5 8 0 17q14 60 53.5 166.5t121.5 250.5l3 3l8 14q0 3 3 2q8 22 5 30q-3 5 -5 9q-16 14 -41 2.5t-47 -30.5q-27 -22 -54 -54q-134 -150 -197 -250t-79 -138q-5 -14 -6.5 -29t-4.5 -28q-5 -19 -15 -16.5t-15 5.5q-16 5 -30 32q-19 -16 -47.5 -36.5 t-61.5 -39.5t-66 -30t-57 -8q-57 5 -69.5 58.5t1.5 102.5q14 55 54.5 130t84.5 146q60 96 97 153t63 96.5t50.5 71t56.5 77.5q-156 14 -311 3t-284 -27l-63 -14q-93 -19 -163.5 -39.5t-114.5 -34.5q-5 -8 -11 -13.5t-8 -10.5q-5 -5 -6 -11q-25 -46 -63 -50.5t-38 34.5z M483 1013q11 55 48 66t48 -25q5 -14 -0.5 -29t-13.5 -28l-22 -28q-25 -16 -46.5 -13.5t-13.5 57.5zM2348 1013q11 55 48 66t48 -25q5 -14 -0.5 -29t-13.5 -28l-22 -28q-25 -16 -46.5 -13.5t-13.5 57.5z" />
<glyph unicode="&#x25fc;" horiz-adv-x="846" d="M0 0v847h847v-847h-847z" />
<glyph unicode="&#xfb01;" horiz-adv-x="999" d="M-153 -167q0 55 20.5 120.5t47.5 122.5q30 68 71 134q46 87 105 187t133 212q-16 30 -23 61.5t-7 61.5q0 63 28.5 90t61.5 27q49 0 62.5 -9.5t24.5 -14.5q106 147 233.5 300t282.5 314q5 5 17 6q11 0 34 -20.5t23 -50.5q0 -41 -41 -91q-66 -74 -139 -163 q-63 -76 -146 -179t-171 -220q22 -52 22 -128q0 -22 -1.5 -40t-3.5 -40q60 -14 125.5 -9.5t122.5 31.5q5 3 16 10t22 13.5t22 8t17 -6.5q11 -16 -16.5 -39.5t-44.5 -34.5q-63 -38 -143 -43.5t-132 8.5q-16 -79 -42.5 -151.5t-50.5 -130.5q-30 -68 -60 -125 q-57 -106 -110.5 -170.5t-100 -98.5t-83.5 -46.5t-64 -12.5q-25 0 -41 5q-9 3 -14 6q-57 27 -57 106zM-52 -177q0 -30 19 -39q63 11 123 71t107 131q52 82 101 183q19 35 38 85q35 85 68 218q-27 8 -47.5 19t-39.5 22l-17 -24q-101 -145 -177 -276q-33 -55 -64.5 -112 t-56 -110.5t-39.5 -97t-15 -70.5zM257 718q0 -14 2.5 -24.5t5.5 -21.5l74 106q-14 11 -33 11t-30 -16q-19 -27 -19 -55zM355 568q33 -19 63 -30v33q0 22 -1.5 41t-4.5 38zM563.5 132.5q1.5 36.5 9.5 69.5q8 44 34 100t59 114.5t67 112t59 91.5q11 16 20.5 32.5t19.5 30.5 q25 38 49.5 73.5t52.5 73.5l2 3q5 5 13.5 12t19.5 2t27.5 -13.5t24.5 -26.5t5.5 -44t-27.5 -67q-22 -35 -35.5 -57t-21.5 -36q-3 -5 -8 -10t-24.5 -37t-47 -73t-56 -87t-50.5 -82v-3l-11 -19q-19 -30 -34 -57t-26 -55q-16 -33 -25 -60q-5 -22 -5 -41t16 -24q27 -8 82 19 t110 65q66 44 136 101q16 11 30 19q11 5 20.5 4t4.5 -15q-3 -11 -11 -21q-14 -22 -38 -44q-14 -11 -55 -44t-91.5 -67t-104 -58.5t-94.5 -21.5q-38 3 -58.5 23t-30 50.5t-8 67zM1025 873.5q-1 16.5 0 34.5t5.5 31.5t4.5 18.5t2 6q8 25 19 46q11 19 23.5 34t34.5 21 q25 5 39.5 -7t19 -34t-4 -49t-35.5 -52q-8 -8 -19 -16l-16.5 -16.5t-16.5 -19.5q-25 -27 -38 -22h-6q-11 8 -12 24.5z" />
<glyph unicode="&#xfb02;" horiz-adv-x="980" d="M-153 -167q0 55 20.5 120.5t47.5 122.5q30 68 71 134q46 87 105 187t133 212q-16 30 -23 61.5t-7 61.5q0 63 28.5 90t61.5 27q49 0 62.5 -9.5t24.5 -14.5q106 147 233.5 300t282.5 314q5 5 17 6q11 0 34 -20.5t23 -50.5q0 -41 -41 -91q-66 -74 -139 -163 q-63 -76 -146 -179t-171 -220q22 -52 22 -128q0 -22 -1.5 -40t-3.5 -40q60 -14 125.5 -9.5t122.5 31.5q5 3 16 10t22 13.5t22 8t17 -6.5q11 -16 -16.5 -39.5t-44.5 -34.5q-63 -38 -143 -43.5t-132 8.5q-16 -79 -42.5 -151.5t-50.5 -130.5q-30 -68 -60 -125 q-57 -106 -110.5 -170.5t-100 -98.5t-83.5 -46.5t-64 -12.5q-25 0 -41 5q-9 3 -14 6q-57 27 -57 106zM-52 -177q0 -30 19 -39q63 11 123 71t107 131q52 82 101 183q19 35 38 85q35 85 68 218q-27 8 -47.5 19t-39.5 22l-17 -24q-101 -145 -177 -276q-33 -55 -64.5 -112 t-56 -110.5t-39.5 -97t-15 -70.5zM257 718q0 -14 2.5 -24.5t5.5 -21.5l74 106q-14 11 -33 11t-30 -16q-19 -27 -19 -55zM355 568q33 -19 63 -30v33q0 22 -1.5 41t-4.5 38zM554 90q-3 35 9.5 76.5t17.5 62.5q19 55 48 123.5t67 147.5q46 96 123 224q19 27 36.5 55.5 t39.5 58.5q90 137 211.5 284.5t280.5 311.5q5 5 13.5 9t19.5 -1q11 -8 24.5 -20.5t19 -31.5t-3 -45t-35.5 -62q-74 -85 -153 -180q-68 -85 -152.5 -192.5t-169.5 -230.5q-68 -98 -131 -199t-109 -197q-33 -71 -58 -131l-8 -25q-8 -25 -9.5 -46.5t17.5 -26.5q27 -8 82 19 t109 65q66 44 137 101q19 11 30 19q11 5 19 4t6 -15q-3 -11 -11 -21q-14 -22 -39 -44q-14 -11 -54.5 -44t-91 -67t-105 -58.5t-95.5 -21.5q-25 3 -44 13q-22 14 -31.5 37.5t-9.5 47.5z" />
</font>
</defs>
</svg>
